<?xml version="1.0" encoding="utf-8"?>
<svg width="90px" height="89px" viewBox="0 0 90 89" version="1.1" xmlns:xlink="http://www.w3.org/1999/xlink" xmlns="http://www.w3.org/2000/svg">
  <desc>Created with Lunacy</desc>
  <defs>
    <linearGradient x1="0.2027647" y1="0.0903670639" x2="0.7972659" y2="0.9096315" id="gradient_1">
      <stop offset="0" stop-color="#69FF97" />
      <stop offset="1" stop-color="#00E4FF" />
    </linearGradient>
    <linearGradient x1="0.197445378" y1="0.130207881" x2="0.775878966" y2="0.837183" id="gradient_2">
      <stop offset="0" stop-color="#69FF97" />
      <stop offset="1" stop-color="#00E4FF" />
    </linearGradient>
    <path d="M14.8238 5.15751L14.8238 0L20.3513 0L20.3513 5.15751C21.8032 5.47736 23.157 6.04758 24.3764 6.814L28.0707 3.16175L31.9779 7.02656L28.2846 10.6798C29.0606 11.8846 29.6352 13.2244 29.9597 14.6601L35.1741 14.6601L35.1741 20.1252L29.9597 20.1252C29.6352 21.561 29.0606 22.9017 28.2846 24.1055L31.9779 27.7588L28.0707 31.6236L24.3764 27.9713C23.157 28.7378 21.8032 29.307 20.3513 29.6278L20.3513 34.7853L14.8238 34.7853L14.8238 29.6278C13.3729 29.307 12.0161 28.7378 10.7988 27.9713L7.10551 31.6236L3.19727 27.7588L6.89056 24.1055C6.11553 22.9017 5.53994 21.561 5.21442 20.1252L0 20.1252L0 14.6601L5.21442 14.6601C5.53994 13.2244 6.11553 11.8846 6.89056 10.6798L3.19727 7.02656L7.10551 3.16175L10.7988 6.814C12.0161 6.04656 13.3729 5.47736 14.8238 5.15751ZM17.5871 9.27473C13.0619 9.27473 9.37997 12.9168 9.37997 17.3927C9.37997 21.8686 13.0619 25.5096 17.5871 25.5096C22.1133 25.5096 25.7962 21.8686 25.7962 17.3927C25.7962 12.9168 22.1133 9.27473 17.5871 9.27473Z" transform="translate(0.5487236 0.7040863)" id="path_1" />
    <path d="M36.1949 0.777955C34.0839 2.03409 33.1535 4.47583 33.698 6.73709L8.66517 21.1106C7.74942 20.3762 6.599 19.9156 5.33177 19.9156C2.38741 19.9156 0 22.29 0 25.2171C0 27.633 1.63437 29.6473 3.85489 30.2884L3.85489 57.3851C2.57619 57.7844 1.43516 58.6329 0.719664 59.8849C-0.7812 62.5082 0.141847 65.8471 2.78166 67.3408C4.66321 68.404 6.89834 68.2235 8.57755 67.0929L33.5749 81.4467C33.4477 82.5939 33.6615 83.7868 34.3029 84.8541C35.8622 87.4432 39.2404 88.2865 41.8437 86.7347C43.8306 85.5522 44.785 83.3211 44.4408 81.178L56.1817 75.4284L54.7549 72.549L43.0171 78.2986C42.3548 77.5974 41.5267 77.1109 40.6328 76.8371L40.6328 44.693L68.7717 28.885C69.0867 29.1816 69.4298 29.4555 69.823 29.6785C70.1808 29.8807 70.551 30.0301 70.9275 30.1452L70.9275 43.7252L74.1545 43.7252L74.1545 30.139C75.4468 29.7428 76.5993 28.8901 77.319 27.6288C78.8198 25.0035 77.8978 21.6655 75.2591 20.1729C73.1981 19.008 70.7116 19.3286 69.0001 20.7662L44.3782 6.62818C44.6661 5.31706 44.4846 3.90118 43.7368 2.65957C42.7073 0.949105 40.8842 0.00103727 39.0152 0C38.0535 0 37.0794 0.25102 36.1949 0.777955ZM41.8437 10.1601C41.4568 10.3904 41.0479 10.5532 40.6328 10.6787L40.6328 41.0076L67.1895 26.0905C67.0007 25.2358 67.0163 24.3417 67.2593 23.4725L42.8002 9.42674C42.5133 9.69851 42.1994 9.94849 41.8437 10.1601ZM9.49852 28.4877C10.2171 27.5842 10.6625 26.4577 10.6625 25.2172C10.6625 24.7213 10.5718 24.2504 10.4424 23.794L35.3407 9.49831C35.9446 10.0429 36.6465 10.4422 37.4058 10.6746L37.4058 42.8207L22.7309 51.065L9.49852 28.4877ZM7.08191 57.3612C7.46886 57.4763 7.85059 57.6268 8.21772 57.8352C8.60989 58.0572 8.95199 58.3311 9.26801 58.6267L19.9211 52.6437L7.08191 30.7365L7.08191 57.3612ZM24.3538 53.8376L37.4058 46.5061L37.4058 76.1068L24.3538 53.8376ZM10.8492 61.4242C11.0745 62.448 11.0046 63.5299 10.6062 64.5526L34.8766 78.4884C34.9141 78.4438 34.9527 78.4023 34.9923 78.3587L21.5461 55.4153L10.8492 61.4242Z" transform="translate(0 0.6555567)" id="path_2" />
    <clipPath id="mask_1">
      <use xlink:href="#path_1" />
    </clipPath>
    <clipPath id="mask_2">
      <use xlink:href="#path_2" />
    </clipPath>
  </defs>
  <g id="algoritmo">
    <g id="Group-7">
      <g id="Group-3" transform="translate(53.83178 47.8271)">
        <path d="M14.8238 5.15751L14.8238 0L20.3513 0L20.3513 5.15751C21.8032 5.47736 23.157 6.04758 24.3764 6.814L28.0707 3.16175L31.9779 7.02656L28.2846 10.6798C29.0606 11.8846 29.6352 13.2244 29.9597 14.6601L35.1741 14.6601L35.1741 20.1252L29.9597 20.1252C29.6352 21.561 29.0606 22.9017 28.2846 24.1055L31.9779 27.7588L28.0707 31.6236L24.3764 27.9713C23.157 28.7378 21.8032 29.307 20.3513 29.6278L20.3513 34.7853L14.8238 34.7853L14.8238 29.6278C13.3729 29.307 12.0161 28.7378 10.7988 27.9713L7.10551 31.6236L3.19727 27.7588L6.89056 24.1055C6.11553 22.9017 5.53994 21.561 5.21442 20.1252L0 20.1252L0 14.6601L5.21442 14.6601C5.53994 13.2244 6.11553 11.8846 6.89056 10.6798L3.19727 7.02656L7.10551 3.16175L10.7988 6.814C12.0161 6.04656 13.3729 5.47736 14.8238 5.15751ZM17.5871 9.27473C13.0619 9.27473 9.37997 12.9168 9.37997 17.3927C9.37997 21.8686 13.0619 25.5096 17.5871 25.5096C22.1133 25.5096 25.7962 21.8686 25.7962 17.3927C25.7962 12.9168 22.1133 9.27473 17.5871 9.27473Z" transform="translate(0.5487236 0.7040863)" id="Clip-2" fill="none" fill-rule="evenodd" stroke="none" />
        <g clip-path="url(#mask_1)">
          <path d="M14.8238 5.15751L14.8238 0L20.3513 0L20.3513 5.15751C21.8032 5.47736 23.157 6.04758 24.3764 6.814L28.0707 3.16175L31.9779 7.02656L28.2846 10.6798C29.0606 11.8846 29.6352 13.2244 29.9597 14.6601L35.1741 14.6601L35.1741 20.1252L29.9597 20.1252C29.6352 21.561 29.0606 22.9017 28.2846 24.1055L31.9779 27.7588L28.0707 31.6236L24.3764 27.9713C23.157 28.7378 21.8032 29.307 20.3513 29.6278L20.3513 34.7853L14.8238 34.7853L14.8238 29.6278C13.3729 29.307 12.0161 28.7378 10.7988 27.9713L7.10551 31.6236L3.19727 27.7588L6.89056 24.1055C6.11553 22.9017 5.53994 21.561 5.21442 20.1252L0 20.1252L0 14.6601L5.21442 14.6601C5.53994 13.2244 6.11553 11.8846 6.89056 10.6798L3.19727 7.02656L7.10551 3.16175L10.7988 6.814C12.0161 6.04656 13.3729 5.47736 14.8238 5.15751ZM17.5871 9.27473C13.0619 9.27473 9.37997 12.9168 9.37997 17.3927C9.37997 21.8686 13.0619 25.5096 17.5871 25.5096C22.1133 25.5096 25.7962 21.8686 25.7962 17.3927C25.7962 12.9168 22.1133 9.27473 17.5871 9.27473Z" transform="translate(0.5487236 0.7040863)" id="Fill-1" fill="url(#gradient_1)" fill-rule="evenodd" stroke="none" />
        </g>
      </g>
      <g id="Group-6" transform="translate(0 0.4158879)">
        <path d="M36.1949 0.777955C34.0839 2.03409 33.1535 4.47583 33.698 6.73709L8.66517 21.1106C7.74942 20.3762 6.599 19.9156 5.33177 19.9156C2.38741 19.9156 0 22.29 0 25.2171C0 27.633 1.63437 29.6473 3.85489 30.2884L3.85489 57.3851C2.57619 57.7844 1.43516 58.6329 0.719664 59.8849C-0.7812 62.5082 0.141847 65.8471 2.78166 67.3408C4.66321 68.404 6.89834 68.2235 8.57755 67.0929L33.5749 81.4467C33.4477 82.5939 33.6615 83.7868 34.3029 84.8541C35.8622 87.4432 39.2404 88.2865 41.8437 86.7347C43.8306 85.5522 44.785 83.3211 44.4408 81.178L56.1817 75.4284L54.7549 72.549L43.0171 78.2986C42.3548 77.5974 41.5267 77.1109 40.6328 76.8371L40.6328 44.693L68.7717 28.885C69.0867 29.1816 69.4298 29.4555 69.823 29.6785C70.1808 29.8807 70.551 30.0301 70.9275 30.1452L70.9275 43.7252L74.1545 43.7252L74.1545 30.139C75.4468 29.7428 76.5993 28.8901 77.319 27.6288C78.8198 25.0035 77.8978 21.6655 75.2591 20.1729C73.1981 19.008 70.7116 19.3286 69.0001 20.7662L44.3782 6.62818C44.6661 5.31706 44.4846 3.90118 43.7368 2.65957C42.7073 0.949105 40.8842 0.00103727 39.0152 0C38.0535 0 37.0794 0.25102 36.1949 0.777955ZM41.8437 10.1601C41.4568 10.3904 41.0479 10.5532 40.6328 10.6787L40.6328 41.0076L67.1895 26.0905C67.0007 25.2358 67.0163 24.3417 67.2593 23.4725L42.8002 9.42674C42.5133 9.69851 42.1994 9.94849 41.8437 10.1601ZM9.49852 28.4877C10.2171 27.5842 10.6625 26.4577 10.6625 25.2172C10.6625 24.7213 10.5718 24.2504 10.4424 23.794L35.3407 9.49831C35.9446 10.0429 36.6465 10.4422 37.4058 10.6746L37.4058 42.8207L22.7309 51.065L9.49852 28.4877ZM7.08191 57.3612C7.46886 57.4763 7.85059 57.6268 8.21772 57.8352C8.60989 58.0572 8.95199 58.3311 9.26801 58.6267L19.9211 52.6437L7.08191 30.7365L7.08191 57.3612ZM24.3538 53.8376L37.4058 46.5061L37.4058 76.1068L24.3538 53.8376ZM10.8492 61.4242C11.0745 62.448 11.0046 63.5299 10.6062 64.5526L34.8766 78.4884C34.9141 78.4438 34.9527 78.4023 34.9923 78.3587L21.5461 55.4153L10.8492 61.4242Z" transform="translate(0 0.6555567)" id="Clip-5" fill="none" fill-rule="evenodd" stroke="none" />
        <g clip-path="url(#mask_2)">
          <path d="M36.1949 0.777955C34.0839 2.03409 33.1535 4.47583 33.698 6.73709L8.66517 21.1106C7.74942 20.3762 6.599 19.9156 5.33177 19.9156C2.38741 19.9156 0 22.29 0 25.2171C0 27.633 1.63437 29.6473 3.85489 30.2884L3.85489 57.3851C2.57619 57.7844 1.43516 58.6329 0.719664 59.8849C-0.7812 62.5082 0.141847 65.8471 2.78166 67.3408C4.66321 68.404 6.89834 68.2235 8.57755 67.0929L33.5749 81.4467C33.4477 82.5939 33.6615 83.7868 34.3029 84.8541C35.8622 87.4432 39.2404 88.2865 41.8437 86.7347C43.8306 85.5522 44.785 83.3211 44.4408 81.178L56.1817 75.4284L54.7549 72.549L43.0171 78.2986C42.3548 77.5974 41.5267 77.1109 40.6328 76.8371L40.6328 44.693L68.7717 28.885C69.0867 29.1816 69.4298 29.4555 69.823 29.6785C70.1808 29.8807 70.551 30.0301 70.9275 30.1452L70.9275 43.7252L74.1545 43.7252L74.1545 30.139C75.4468 29.7428 76.5993 28.8901 77.319 27.6288C78.8198 25.0035 77.8978 21.6655 75.2591 20.1729C73.1981 19.008 70.7116 19.3286 69.0001 20.7662L44.3782 6.62818C44.6661 5.31706 44.4846 3.90118 43.7368 2.65957C42.7073 0.949105 40.8842 0.00103727 39.0152 0C38.0535 0 37.0794 0.25102 36.1949 0.777955ZM41.8437 10.1601C41.4568 10.3904 41.0479 10.5532 40.6328 10.6787L40.6328 41.0076L67.1895 26.0905C67.0007 25.2358 67.0163 24.3417 67.2593 23.4725L42.8002 9.42674C42.5133 9.69851 42.1994 9.94849 41.8437 10.1601ZM9.49852 28.4877C10.2171 27.5842 10.6625 26.4577 10.6625 25.2172C10.6625 24.7213 10.5718 24.2504 10.4424 23.794L35.3407 9.49831C35.9446 10.0429 36.6465 10.4422 37.4058 10.6746L37.4058 42.8207L22.7309 51.065L9.49852 28.4877ZM7.08191 57.3612C7.46886 57.4763 7.85059 57.6268 8.21772 57.8352C8.60989 58.0572 8.95199 58.3311 9.26801 58.6267L19.9211 52.6437L7.08191 30.7365L7.08191 57.3612ZM24.3538 53.8376L37.4058 46.5061L37.4058 76.1068L24.3538 53.8376ZM10.8492 61.4242C11.0745 62.448 11.0046 63.5299 10.6062 64.5526L34.8766 78.4884C34.9141 78.4438 34.9527 78.4023 34.9923 78.3587L21.5461 55.4153L10.8492 61.4242Z" transform="translate(0 0.6555567)" id="Fill-4" fill="url(#gradient_2)" fill-rule="evenodd" stroke="none" />
        </g>
      </g>
    </g>
  </g>
</svg>