<?xml version="1.0" encoding="utf-8"?>
<!-- Generator: Adobe Illustrator 15.0.0, SVG Export Plug-In . SVG Version: 6.00 Build 0)  -->
<!DOCTYPE svg PUBLIC "-//W3C//DTD SVG 1.1//EN" "http://www.w3.org/Graphics/SVG/1.1/DTD/svg11.dtd">
<svg version="1.1" id="doctor" xmlns="http://www.w3.org/2000/svg" xmlns:xlink="http://www.w3.org/1999/xlink" x="0px" y="0px"
	 width="200px" height="200px" viewBox="0 0 200 200" enable-background="new 0 0 200 200" xml:space="preserve">
<g id="Group-24" transform="translate(1.546387 1.546509)">
	<g id="Group-9_1_">
		<path id="Stroke-1" fill="none" stroke="#FFFFFF" stroke-width="7" stroke-linecap="round" d="M32.417,181.463v-33.752
			c0-20.582,16.686-37.266,37.267-37.266l28.771,30.199l27.674-30.199h1.097c20.581,0,37.267,16.684,37.267,37.266v33.752"/>
		<path id="Stroke-3" fill="none" stroke="#FFFFFF" stroke-width="7" d="M98.13,100.401L98.13,100.401
			c-15.655,0-28.346-12.691-28.346-28.348V42.417c0-15.658,12.69-28.348,28.346-28.348c15.656,0,28.348,12.69,28.348,28.348v29.635
			C126.478,87.709,113.787,100.401,98.13,100.401z"/>
		<path id="Stroke-5" fill="none" stroke="#FFFFFF" stroke-width="7" d="M69.785,42.417c0,0,32.266,8.2,48.993-19.417"/>
		<path id="Stroke-7" fill="none" stroke="#FFFFFF" stroke-width="7" d="M105.666,36.694c0,0,7.929,16.031,20.813,16.675"/>
	</g>
	<g id="Group-12_1_" transform="translate(10 65)">
		<path id="Clip-11_1_" fill="none" d="M46.992,76.338v6.053h-6.051v6.74h6.051v6.049h6.742v-6.049h6.05v-6.74h-6.05v-6.053H46.992z
			"/>
		<g>
			<defs>
				<polygon id="SVGID_1_" points="46.992,76.338 46.992,82.391 40.941,82.391 40.941,89.131 46.992,89.131 46.992,95.18 
					53.734,95.18 53.734,89.131 59.784,89.131 59.784,82.391 53.734,82.391 53.734,76.338 				"/>
			</defs>
			<clipPath id="SVGID_2_">
				<use xlink:href="#SVGID_1_"  overflow="visible"/>
			</clipPath>
			<g clip-path="url(#SVGID_2_)">
				
					<linearGradient id="Fill-10_2_" gradientUnits="userSpaceOnUse" x1="-833.54" y1="545.5863" x2="-831.6074" y2="545.5863" gradientTransform="matrix(9.749 0 0 -9.749 8167.1284 5404.6689)">
					<stop  offset="0" style="stop-color:#8DCB86"/>
					<stop  offset="1" style="stop-color:#5DCAE8"/>
				</linearGradient>
				<path id="Fill-10_1_" fill="url(#Fill-10_2_)" d="M46.992,76.338v6.053h-6.051v6.74h6.051v6.049h6.742v-6.049h6.05v-6.74h-6.05
					v-6.053H46.992z"/>
			</g>
		</g>
	</g>
	<path id="Stroke-13" fill="none" stroke="#FFFFFF" stroke-width="7" stroke-linecap="round" d="M98.454,140.645L77.516,160.18
		v22.658"/>
	<g id="Group-17" transform="translate(47 68)">
		<path id="Clip-16" fill="none" d="M78.331,79.293c-1.902,1.105-2.477,3.498-1.441,5.439l0,0c0.858,1.625,2.778,1.992,2.778,1.992
			l0,0c0.411,0.123,2.099,0.594,2.756,1.729l0,0c0.66,1.133,0.233,2.834,0.14,3.252l0,0c0,0-0.635,1.848,0.347,3.4l0,0
			c1.178,1.857,3.541,2.547,5.443,1.441l0,0c1.896-1.102,2.469-3.498,1.442-5.438l0,0c-0.864-1.625-2.784-1.992-2.784-1.992l0,0
			c-0.411-0.123-2.097-0.59-2.758-1.727l0,0c-0.658-1.137-0.231-2.832-0.134-3.252l0,0c0,0,0.633-1.85-0.353-3.404l0,0
			c-0.793-1.25-2.126-1.971-3.488-1.971l0,0C79.618,78.764,78.948,78.934,78.331,79.293"/>
		<g>
			<defs>
				<path id="SVGID_3_" d="M78.331,79.293c-1.902,1.105-2.477,3.498-1.441,5.439l0,0c0.858,1.625,2.778,1.992,2.778,1.992l0,0
					c0.411,0.123,2.099,0.594,2.756,1.729l0,0c0.66,1.133,0.233,2.834,0.14,3.252l0,0c0,0-0.635,1.848,0.347,3.4l0,0
					c1.178,1.857,3.541,2.547,5.443,1.441l0,0c1.896-1.102,2.469-3.498,1.442-5.438l0,0c-0.864-1.625-2.784-1.992-2.784-1.992l0,0
					c-0.411-0.123-2.097-0.59-2.758-1.727l0,0c-0.658-1.137-0.231-2.832-0.134-3.252l0,0c0,0,0.633-1.85-0.353-3.404l0,0
					c-0.793-1.25-2.126-1.971-3.488-1.971l0,0C79.618,78.764,78.948,78.934,78.331,79.293"/>
			</defs>
			<clipPath id="SVGID_4_">
				<use xlink:href="#SVGID_3_"  overflow="visible"/>
			</clipPath>
			<g clip-path="url(#SVGID_4_)">
				
					<linearGradient id="Fill-15_1_" gradientUnits="userSpaceOnUse" x1="-852.5972" y1="541.5023" x2="-850.6646" y2="541.5023" gradientTransform="matrix(7.2017 0 0 -9.4748 6216.4897 5218.5562)">
					<stop  offset="0" style="stop-color:#8DCB86"/>
					<stop  offset="1" style="stop-color:#5DCAE8"/>
				</linearGradient>
				<path id="Fill-15" fill="url(#Fill-15_1_)" d="M78.331,79.293c-1.902,1.105-2.477,3.498-1.441,5.439l0,0
					c0.858,1.625,2.778,1.992,2.778,1.992l0,0c0.411,0.123,2.099,0.594,2.756,1.729l0,0c0.66,1.133,0.233,2.834,0.14,3.252l0,0
					c0,0-0.635,1.848,0.347,3.4l0,0c1.178,1.857,3.541,2.547,5.443,1.441l0,0c1.896-1.102,2.469-3.498,1.442-5.438l0,0
					c-0.864-1.625-2.784-1.992-2.784-1.992l0,0c-0.411-0.123-2.097-0.59-2.758-1.727l0,0c-0.658-1.137-0.231-2.832-0.134-3.252l0,0
					c0,0,0.633-1.85-0.353-3.404l0,0c-0.793-1.25-2.126-1.971-3.488-1.971l0,0C79.618,78.764,78.948,78.934,78.331,79.293"/>
			</g>
		</g>
	</g>
	<g id="Group-20" transform="translate(44 74)">
		<path id="Clip-19" fill="none" d="M74.487,84.418c-1.08,1.189-1.327,2.992-0.623,4.436l0,0c0.714,1.465,2.337,2.363,3.958,2.207
			l0,0c1.667-0.158,3.102-1.412,3.492-3.037l0,0c0.413-1.688-0.387-3.527-1.897-4.387l0,0c-0.602-0.344-1.275-0.512-1.951-0.512l0,0
			C76.355,83.125,75.253,83.575,74.487,84.418"/>
		<g>
			<defs>
				<path id="SVGID_5_" d="M74.487,84.418c-1.08,1.189-1.327,2.992-0.623,4.436l0,0c0.714,1.465,2.337,2.363,3.958,2.207l0,0
					c1.667-0.158,3.102-1.412,3.492-3.037l0,0c0.413-1.688-0.387-3.527-1.897-4.387l0,0c-0.602-0.344-1.275-0.512-1.951-0.512l0,0
					C76.355,83.125,75.253,83.575,74.487,84.418"/>
			</defs>
			<clipPath id="SVGID_6_">
				<use xlink:href="#SVGID_5_"  overflow="visible"/>
			</clipPath>
			<g clip-path="url(#SVGID_6_)">
				
					<linearGradient id="Fill-18_1_" gradientUnits="userSpaceOnUse" x1="-809.0928" y1="496.5316" x2="-807.1602" y2="496.5316" gradientTransform="matrix(4.1159 0 0 -4.1149 3403.585 2130.2905)">
					<stop  offset="0" style="stop-color:#8DCB86"/>
					<stop  offset="1" style="stop-color:#5DCAE8"/>
				</linearGradient>
				<path id="Fill-18" fill="url(#Fill-18_1_)" d="M74.487,84.418c-1.08,1.189-1.327,2.992-0.623,4.436l0,0
					c0.714,1.465,2.337,2.363,3.958,2.207l0,0c1.667-0.158,3.102-1.412,3.492-3.037l0,0c0.413-1.688-0.387-3.527-1.897-4.387l0,0
					c-0.602-0.344-1.275-0.512-1.951-0.512l0,0C76.355,83.125,75.253,83.575,74.487,84.418"/>
			</g>
		</g>
	</g>
	<g id="Group-23" transform="translate(50 63)">
		<path id="Clip-22" fill="none" d="M81.227,73.973c-1.902,1.102-2.473,3.498-1.441,5.436l0,0c0.856,1.627,2.78,1.99,2.78,1.99l0,0
			c0.409,0.125,2.097,0.596,2.757,1.73l0,0c0.657,1.137,0.234,2.834,0.135,3.25l0,0c0,0-0.625,1.832,0.338,3.379l0,0
			c0.866,1.604,2.767,1.967,2.767,1.967l0,0c0.411,0.123,2.099,0.594,2.76,1.729l0,0c0.656,1.133,0.23,2.834,0.132,3.252l0,0
			c0,0-0.632,1.848,0.354,3.4l0,0c1.175,1.857,3.537,2.547,5.437,1.441l0,0c1.9-1.102,2.473-3.498,1.441-5.438l0,0
			c-0.86-1.625-2.78-1.992-2.78-1.992l0,0c-0.409-0.123-2.097-0.59-2.757-1.727l0,0c-0.661-1.137-0.23-2.832-0.137-3.252l0,0
			c0,0,0.623-1.83-0.336-3.377l0,0c-0.868-1.605-2.767-1.965-2.767-1.965l0,0c-0.411-0.123-2.099-0.596-2.76-1.732l0,0
			c-0.658-1.131-0.229-2.83-0.132-3.252l0,0c0,0,0.631-1.85-0.353-3.398l0,0c-0.791-1.254-2.122-1.975-3.486-1.975l0,0
			C82.514,73.44,81.846,73.61,81.227,73.973"/>
		<g>
			<defs>
				<path id="SVGID_7_" d="M81.227,73.973c-1.902,1.102-2.473,3.498-1.441,5.436l0,0c0.856,1.627,2.78,1.99,2.78,1.99l0,0
					c0.409,0.125,2.097,0.596,2.757,1.73l0,0c0.657,1.137,0.234,2.834,0.135,3.25l0,0c0,0-0.625,1.832,0.338,3.379l0,0
					c0.866,1.604,2.767,1.967,2.767,1.967l0,0c0.411,0.123,2.099,0.594,2.76,1.729l0,0c0.656,1.133,0.23,2.834,0.132,3.252l0,0
					c0,0-0.632,1.848,0.354,3.4l0,0c1.175,1.857,3.537,2.547,5.437,1.441l0,0c1.9-1.102,2.473-3.498,1.441-5.438l0,0
					c-0.86-1.625-2.78-1.992-2.78-1.992l0,0c-0.409-0.123-2.097-0.59-2.757-1.727l0,0c-0.661-1.137-0.23-2.832-0.137-3.252l0,0
					c0,0,0.623-1.83-0.336-3.377l0,0c-0.868-1.605-2.767-1.965-2.767-1.965l0,0c-0.411-0.123-2.099-0.596-2.76-1.732l0,0
					c-0.658-1.131-0.229-2.83-0.132-3.252l0,0c0,0,0.631-1.85-0.353-3.398l0,0c-0.791-1.254-2.122-1.975-3.486-1.975l0,0
					C82.514,73.44,81.846,73.61,81.227,73.973"/>
			</defs>
			<clipPath id="SVGID_8_">
				<use xlink:href="#SVGID_7_"  overflow="visible"/>
			</clipPath>
			<g clip-path="url(#SVGID_8_)">
				
					<linearGradient id="Fill-21_1_" gradientUnits="userSpaceOnUse" x1="-871.8652" y1="557.2885" x2="-869.9321" y2="557.2885" gradientTransform="matrix(10.3041 0 0 -14.8168 9063.0957 8345)">
					<stop  offset="0" style="stop-color:#8DCB86"/>
					<stop  offset="1" style="stop-color:#5DCAE8"/>
				</linearGradient>
				<path id="Fill-21" fill="url(#Fill-21_1_)" d="M81.227,73.973c-1.902,1.102-2.473,3.498-1.441,5.436l0,0
					c0.856,1.627,2.78,1.99,2.78,1.99l0,0c0.409,0.125,2.097,0.596,2.757,1.73l0,0c0.657,1.137,0.234,2.834,0.135,3.25l0,0
					c0,0-0.625,1.832,0.338,3.379l0,0c0.866,1.604,2.767,1.967,2.767,1.967l0,0c0.411,0.123,2.099,0.594,2.76,1.729l0,0
					c0.656,1.133,0.23,2.834,0.132,3.252l0,0c0,0-0.632,1.848,0.354,3.4l0,0c1.175,1.857,3.537,2.547,5.437,1.441l0,0
					c1.9-1.102,2.473-3.498,1.441-5.438l0,0c-0.86-1.625-2.78-1.992-2.78-1.992l0,0c-0.409-0.123-2.097-0.59-2.757-1.727l0,0
					c-0.661-1.137-0.23-2.832-0.137-3.252l0,0c0,0,0.623-1.83-0.336-3.377l0,0c-0.868-1.605-2.767-1.965-2.767-1.965l0,0
					c-0.411-0.123-2.099-0.596-2.76-1.732l0,0c-0.658-1.131-0.229-2.83-0.132-3.252l0,0c0,0,0.631-1.85-0.353-3.398l0,0
					c-0.791-1.254-2.122-1.975-3.486-1.975l0,0C82.514,73.44,81.846,73.61,81.227,73.973"/>
			</g>
		</g>
	</g>
</g>
</svg>
