<?xml version="1.0" encoding="utf-8"?>
<!-- Generator: Adobe Illustrator 15.0.0, SVG Export Plug-In . SVG Version: 6.00 Build 0)  -->
<!DOCTYPE svg PUBLIC "-//W3C//DTD SVG 1.1//EN" "http://www.w3.org/Graphics/SVG/1.1/DTD/svg11.dtd">
<svg version="1.1" id="_x33_" xmlns="http://www.w3.org/2000/svg" xmlns:xlink="http://www.w3.org/1999/xlink" x="0px" y="0px"
	 width="200px" height="200px" viewBox="0 0 200 200" enable-background="new 0 0 200 200" xml:space="preserve">
<g id="indicatore-1_4_" transform="translate(0.5 0.5)">
	<path id="Rectangle_5_" fill="#E5E5E5" d="M189.752,49.042v99.497c0,0.232-0.011,0.463-0.033,0.695
		c-0.021,0.229-0.059,0.461-0.103,0.688c-0.048,0.229-0.103,0.456-0.169,0.68c-0.066,0.223-0.146,0.438-0.236,0.652
		c-0.089,0.219-0.186,0.43-0.297,0.635c-0.111,0.201-0.229,0.401-0.357,0.596c-0.132,0.19-0.271,0.383-0.416,0.561
		c-0.146,0.182-0.304,0.354-0.47,0.518c-0.165,0.166-0.337,0.321-0.519,0.469c-0.176,0.146-0.365,0.287-0.562,0.414
		c-0.188,0.132-0.393,0.25-0.595,0.361c-0.206,0.109-0.417,0.209-0.633,0.297c-0.217,0.092-0.436,0.17-0.655,0.234
		s-0.446,0.122-0.679,0.17c-0.229,0.043-0.457,0.08-0.688,0.104c-0.232,0.021-0.464,0.033-0.695,0.033h-0.006
		c-0.232,0-0.463-0.013-0.695-0.033c-0.23-0.021-0.461-0.061-0.688-0.104c-0.229-0.048-0.455-0.104-0.678-0.17
		c-0.222-0.064-0.44-0.146-0.654-0.234c-0.217-0.088-0.428-0.188-0.634-0.297c-0.202-0.111-0.402-0.229-0.594-0.361
		c-0.194-0.127-0.385-0.268-0.561-0.414c-0.184-0.146-0.354-0.303-0.52-0.469c-0.167-0.16-0.321-0.336-0.471-0.518
		c-0.146-0.178-0.285-0.367-0.418-0.561c-0.129-0.191-0.246-0.395-0.354-0.596c-0.108-0.205-0.209-0.416-0.297-0.635
		c-0.095-0.214-0.169-0.434-0.236-0.652c-0.063-0.224-0.12-0.451-0.169-0.68c-0.045-0.229-0.081-0.458-0.104-0.688
		c-0.021-0.232-0.032-0.463-0.032-0.695V49.042c0-0.233,0.011-0.465,0.032-0.697c0.021-0.23,0.06-0.461,0.104-0.688
		c0.049-0.229,0.104-0.454,0.169-0.678c0.067-0.222,0.146-0.441,0.236-0.656c0.088-0.215,0.188-0.424,0.297-0.63
		c0.108-0.204,0.229-0.404,0.354-0.597c0.131-0.194,0.271-0.38,0.418-0.561c0.146-0.179,0.304-0.351,0.471-0.516
		c0.164-0.165,0.336-0.321,0.52-0.468c0.176-0.148,0.363-0.286,0.561-0.417c0.191-0.129,0.392-0.249,0.594-0.358
		c0.206-0.109,0.417-0.208,0.634-0.297c0.214-0.09,0.433-0.168,0.654-0.236c0.224-0.066,0.448-0.124,0.678-0.169
		c0.228-0.044,0.458-0.079,0.688-0.101c0.23-0.024,0.463-0.035,0.695-0.035h0.006c0.231,0,0.463,0.011,0.695,0.035
		c0.229,0.022,0.463,0.057,0.688,0.101c0.229,0.046,0.455,0.103,0.679,0.169c0.224,0.068,0.438,0.146,0.655,0.236
		c0.216,0.089,0.427,0.188,0.633,0.297c0.202,0.11,0.4,0.229,0.595,0.358c0.193,0.13,0.386,0.268,0.562,0.417
		c0.182,0.147,0.354,0.303,0.519,0.468c0.166,0.165,0.321,0.337,0.47,0.516c0.146,0.18,0.284,0.366,0.416,0.561
		c0.131,0.193,0.246,0.393,0.357,0.597c0.111,0.206,0.208,0.415,0.297,0.63c0.092,0.215,0.17,0.435,0.236,0.656
		c0.066,0.224,0.121,0.449,0.169,0.678c0.044,0.228,0.079,0.458,0.103,0.688C189.741,48.576,189.752,48.809,189.752,49.042z"/>
	<path id="Rectangle-Copy_4_" fill="#E5E5E5" d="M155.643,63.254v85.284c0,0.231-0.013,0.463-0.035,0.696
		c-0.021,0.229-0.058,0.461-0.102,0.688c-0.048,0.229-0.104,0.456-0.17,0.678c-0.066,0.225-0.145,0.44-0.234,0.654
		c-0.09,0.217-0.188,0.428-0.299,0.633c-0.109,0.203-0.228,0.403-0.357,0.598c-0.131,0.19-0.27,0.383-0.416,0.561
		c-0.146,0.184-0.303,0.354-0.469,0.52c-0.164,0.166-0.338,0.319-0.518,0.469c-0.178,0.146-0.367,0.285-0.561,0.414
		c-0.191,0.13-0.395,0.25-0.596,0.359c-0.205,0.109-0.416,0.209-0.634,0.299c-0.215,0.09-0.437,0.168-0.653,0.232
		c-0.225,0.064-0.449,0.122-0.68,0.17c-0.229,0.043-0.458,0.08-0.688,0.104c-0.232,0.021-0.465,0.033-0.696,0.033h-0.007
		c-0.231,0-0.463-0.014-0.694-0.033c-0.229-0.021-0.461-0.062-0.688-0.104c-0.229-0.048-0.455-0.104-0.679-0.17
		c-0.222-0.064-0.438-0.146-0.653-0.232c-0.217-0.09-0.428-0.188-0.633-0.299c-0.203-0.109-0.402-0.229-0.595-0.359
		c-0.192-0.129-0.384-0.27-0.563-0.414c-0.18-0.146-0.353-0.303-0.517-0.469c-0.166-0.162-0.321-0.336-0.469-0.52
		c-0.147-0.178-0.286-0.367-0.417-0.561c-0.13-0.191-0.247-0.395-0.357-0.598c-0.111-0.205-0.209-0.416-0.297-0.633
		c-0.092-0.214-0.169-0.434-0.236-0.654c-0.063-0.222-0.121-0.449-0.168-0.678c-0.045-0.229-0.082-0.458-0.104-0.688
		c-0.021-0.233-0.033-0.465-0.033-0.696V63.254c0-0.233,0.014-0.465,0.033-0.697c0.021-0.23,0.061-0.461,0.104-0.688
		c0.047-0.229,0.104-0.454,0.168-0.677c0.067-0.222,0.146-0.441,0.236-0.657c0.088-0.215,0.186-0.424,0.297-0.63
		c0.11-0.204,0.229-0.404,0.357-0.597c0.131-0.194,0.27-0.38,0.417-0.561c0.147-0.179,0.303-0.351,0.469-0.516
		c0.164-0.165,0.337-0.321,0.517-0.468c0.181-0.148,0.367-0.286,0.563-0.416c0.19-0.129,0.392-0.249,0.595-0.358
		c0.205-0.109,0.416-0.208,0.633-0.297c0.215-0.09,0.435-0.168,0.653-0.236c0.224-0.066,0.45-0.124,0.679-0.169
		c0.229-0.044,0.459-0.079,0.688-0.101c0.231-0.024,0.463-0.035,0.694-0.035h0.007c0.231,0,0.464,0.011,0.696,0.035
		c0.229,0.022,0.461,0.057,0.688,0.101c0.229,0.046,0.455,0.103,0.68,0.169c0.223,0.068,0.438,0.146,0.653,0.236
		c0.218,0.089,0.429,0.188,0.634,0.297c0.201,0.11,0.401,0.229,0.596,0.358c0.19,0.13,0.383,0.268,0.561,0.416
		c0.18,0.147,0.354,0.303,0.518,0.468c0.166,0.165,0.321,0.337,0.469,0.516c0.146,0.18,0.285,0.367,0.416,0.561
		c0.133,0.193,0.248,0.393,0.357,0.597c0.111,0.206,0.209,0.415,0.299,0.63c0.09,0.215,0.168,0.435,0.234,0.657
		c0.066,0.224,0.122,0.449,0.17,0.677c0.044,0.228,0.08,0.458,0.102,0.688C155.63,62.79,155.643,63.021,155.643,63.254z"/>
	<path id="Rectangle-Copy-3_4_" fill="#E5E5E5" d="M121.529,77.467v71.071c0,0.231-0.01,0.463-0.032,0.696
		c-0.022,0.229-0.06,0.461-0.103,0.688c-0.049,0.229-0.104,0.456-0.17,0.678c-0.066,0.225-0.146,0.44-0.236,0.654
		c-0.088,0.217-0.187,0.428-0.297,0.633c-0.11,0.203-0.229,0.403-0.357,0.598c-0.131,0.19-0.27,0.383-0.417,0.561
		c-0.146,0.184-0.304,0.354-0.469,0.52c-0.164,0.166-0.337,0.319-0.517,0.469c-0.18,0.146-0.367,0.285-0.563,0.414
		c-0.188,0.13-0.394,0.25-0.597,0.359c-0.205,0.109-0.416,0.209-0.633,0.299c-0.215,0.09-0.434,0.168-0.654,0.232
		c-0.219,0.064-0.448,0.122-0.678,0.17c-0.229,0.043-0.459,0.08-0.688,0.104c-0.232,0.021-0.465,0.033-0.697,0.033h-0.006
		c-0.232,0-0.463-0.014-0.695-0.033c-0.229-0.021-0.461-0.062-0.688-0.104c-0.229-0.048-0.455-0.104-0.68-0.17
		c-0.224-0.066-0.439-0.146-0.653-0.232c-0.22-0.09-0.429-0.188-0.636-0.299c-0.199-0.109-0.399-0.229-0.594-0.359
		c-0.193-0.129-0.384-0.27-0.562-0.414c-0.181-0.146-0.353-0.303-0.517-0.469c-0.166-0.164-0.322-0.336-0.472-0.52
		c-0.146-0.178-0.282-0.367-0.415-0.561c-0.132-0.192-0.247-0.395-0.357-0.598c-0.11-0.205-0.207-0.416-0.295-0.633
		c-0.095-0.214-0.17-0.434-0.236-0.654c-0.066-0.222-0.123-0.449-0.17-0.678c-0.045-0.229-0.08-0.458-0.104-0.688
		c-0.021-0.233-0.032-0.465-0.032-0.696V77.467c0-0.233,0.012-0.465,0.032-0.697c0.021-0.23,0.06-0.461,0.104-0.688
		c0.047-0.229,0.104-0.454,0.17-0.677c0.066-0.222,0.145-0.441,0.236-0.656c0.088-0.215,0.185-0.425,0.295-0.63
		c0.11-0.204,0.229-0.404,0.357-0.597c0.133-0.194,0.271-0.38,0.415-0.561c0.146-0.179,0.306-0.351,0.472-0.516
		c0.164-0.165,0.336-0.321,0.517-0.468c0.178-0.148,0.366-0.286,0.562-0.416c0.191-0.129,0.395-0.249,0.594-0.358
		c0.207-0.11,0.416-0.208,0.636-0.297c0.214-0.09,0.433-0.167,0.653-0.236c0.225-0.066,0.449-0.123,0.68-0.169
		c0.229-0.044,0.457-0.079,0.688-0.101c0.232-0.023,0.463-0.035,0.695-0.035h0.006c0.232,0,0.465,0.011,0.697,0.035
		c0.229,0.022,0.46,0.057,0.688,0.101c0.229,0.046,0.455,0.103,0.678,0.169c0.224,0.068,0.439,0.146,0.654,0.236
		c0.217,0.089,0.428,0.188,0.633,0.297c0.203,0.109,0.402,0.229,0.597,0.358c0.192,0.13,0.384,0.268,0.563,0.416
		c0.18,0.147,0.353,0.303,0.517,0.468c0.165,0.165,0.321,0.337,0.469,0.516c0.147,0.181,0.286,0.367,0.417,0.561
		c0.131,0.193,0.247,0.393,0.357,0.597c0.11,0.206,0.209,0.415,0.297,0.63c0.092,0.215,0.17,0.434,0.236,0.656
		c0.063,0.224,0.121,0.448,0.17,0.677c0.043,0.228,0.08,0.458,0.103,0.688C121.52,77.002,121.529,77.234,121.529,77.467z"/>
	<linearGradient id="Rectangle-Copy-2_1_" gradientUnits="userSpaceOnUse" x1="65.3257" y1="111.0254" x2="100.986" y2="129.1952">
		<stop  offset="0" style="stop-color:#69FF97"/>
		<stop  offset="1" style="stop-color:#69FFDB"/>
	</linearGradient>
	<path id="Rectangle-Copy-2_4_" fill="url(#Rectangle-Copy-2_1_)" d="M90.262,91.68v56.858c0,0.231-0.011,0.463-0.035,0.696
		c-0.022,0.229-0.057,0.461-0.102,0.688c-0.045,0.229-0.103,0.456-0.169,0.678c-0.068,0.225-0.146,0.44-0.236,0.654
		c-0.088,0.217-0.187,0.428-0.297,0.633c-0.109,0.203-0.229,0.403-0.357,0.598c-0.131,0.19-0.268,0.383-0.417,0.561
		c-0.147,0.184-0.302,0.354-0.467,0.52s-0.337,0.319-0.516,0.469c-0.181,0.146-0.367,0.285-0.561,0.414
		c-0.193,0.13-0.393,0.25-0.597,0.359c-0.205,0.109-0.415,0.209-0.63,0.299s-0.434,0.168-0.657,0.232
		c-0.223,0.064-0.448,0.122-0.677,0.17c-0.227,0.043-0.458,0.08-0.688,0.104c-0.232,0.021-0.464,0.033-0.697,0.033h-0.005
		c-0.233,0-0.465-0.014-0.697-0.033c-0.23-0.021-0.461-0.062-0.688-0.104c-0.229-0.048-0.454-0.104-0.678-0.17
		c-0.222-0.064-0.441-0.146-0.656-0.232c-0.215-0.09-0.425-0.188-0.63-0.299c-0.204-0.109-0.404-0.229-0.597-0.359
		c-0.195-0.129-0.38-0.27-0.561-0.414c-0.179-0.146-0.351-0.303-0.516-0.469c-0.165-0.164-0.321-0.336-0.468-0.52
		c-0.148-0.178-0.286-0.367-0.416-0.561c-0.129-0.191-0.249-0.395-0.358-0.598c-0.109-0.205-0.208-0.416-0.296-0.633
		c-0.09-0.214-0.168-0.434-0.236-0.654c-0.066-0.222-0.124-0.449-0.169-0.678s-0.079-0.458-0.102-0.688
		c-0.024-0.233-0.035-0.465-0.035-0.696V91.68c0-0.233,0.011-0.465,0.035-0.697c0.022-0.23,0.057-0.46,0.102-0.688
		c0.045-0.229,0.103-0.454,0.169-0.677c0.068-0.222,0.146-0.441,0.236-0.656c0.088-0.215,0.187-0.425,0.296-0.63
		c0.11-0.204,0.229-0.404,0.358-0.597c0.13-0.194,0.268-0.38,0.416-0.561c0.147-0.179,0.303-0.352,0.468-0.517
		c0.165-0.166,0.337-0.321,0.516-0.468c0.181-0.148,0.366-0.286,0.561-0.417c0.193-0.129,0.393-0.249,0.597-0.358
		c0.206-0.11,0.415-0.208,0.63-0.297c0.215-0.091,0.434-0.168,0.656-0.236c0.224-0.067,0.449-0.124,0.678-0.17
		c0.227-0.044,0.458-0.079,0.688-0.101c0.232-0.023,0.463-0.035,0.697-0.035h0.005c0.233,0,0.465,0.011,0.697,0.035
		c0.23,0.022,0.461,0.057,0.688,0.101c0.229,0.046,0.454,0.103,0.677,0.17c0.223,0.068,0.442,0.145,0.657,0.236
		c0.215,0.089,0.425,0.187,0.63,0.297c0.204,0.109,0.404,0.229,0.597,0.358c0.194,0.13,0.38,0.268,0.561,0.417
		c0.179,0.147,0.351,0.302,0.516,0.468c0.165,0.165,0.32,0.337,0.467,0.517c0.149,0.18,0.286,0.366,0.417,0.561
		c0.129,0.192,0.248,0.393,0.357,0.597c0.11,0.205,0.209,0.415,0.297,0.63c0.09,0.215,0.168,0.435,0.236,0.656
		c0.066,0.224,0.124,0.448,0.169,0.677c0.045,0.228,0.079,0.458,0.102,0.688C90.251,91.215,90.262,91.447,90.262,91.68z"/>
	
		<linearGradient id="Rectangle-Copy-5_1_" gradientUnits="userSpaceOnUse" x1="-720.0103" y1="-701.1299" x2="-717.4413" y2="-721.2977" gradientTransform="matrix(2.384976e-007 20 -5 5.962440e-008 -3487.9395 14511.4541)">
		<stop  offset="0" style="stop-color:#69FF97"/>
		<stop  offset="1" style="stop-color:#69FFDB"/>
	</linearGradient>
	<path id="Rectangle-Copy-5_4_" fill="url(#Rectangle-Copy-5_1_)" d="M56.15,105.895v42.646c0,0.23-0.011,0.463-0.034,0.693
		c-0.022,0.23-0.057,0.461-0.102,0.688c-0.046,0.228-0.103,0.456-0.169,0.679c-0.068,0.224-0.146,0.439-0.236,0.653
		c-0.089,0.218-0.188,0.429-0.297,0.634c-0.109,0.202-0.229,0.402-0.358,0.596c-0.13,0.191-0.268,0.384-0.417,0.562
		c-0.147,0.183-0.302,0.354-0.468,0.519c-0.165,0.166-0.337,0.32-0.516,0.469c-0.181,0.146-0.367,0.287-0.561,0.414
		c-0.193,0.131-0.393,0.25-0.597,0.361c-0.205,0.108-0.415,0.209-0.63,0.297c-0.215,0.092-0.434,0.17-0.656,0.233
		c-0.223,0.063-0.448,0.122-0.677,0.17c-0.228,0.043-0.458,0.08-0.688,0.104c-0.232,0.021-0.463,0.033-0.697,0.033h-0.006
		c-0.233,0-0.465-0.014-0.696-0.033c-0.23-0.021-0.461-0.062-0.688-0.104c-0.229-0.048-0.454-0.104-0.678-0.17
		c-0.222-0.063-0.441-0.146-0.656-0.233c-0.215-0.088-0.425-0.188-0.63-0.297c-0.204-0.111-0.404-0.23-0.597-0.361
		c-0.194-0.127-0.38-0.268-0.561-0.414c-0.179-0.146-0.351-0.303-0.516-0.469c-0.165-0.164-0.321-0.336-0.468-0.519
		c-0.148-0.178-0.286-0.366-0.417-0.562c-0.129-0.19-0.248-0.394-0.358-0.596c-0.109-0.205-0.208-0.416-0.297-0.634
		c-0.09-0.214-0.168-0.433-0.236-0.653c-0.066-0.223-0.124-0.451-0.169-0.679c-0.044-0.228-0.079-0.458-0.101-0.688
		c-0.024-0.23-0.035-0.463-0.035-0.693v-42.646c0-0.231,0.011-0.465,0.035-0.695c0.022-0.23,0.057-0.463,0.101-0.688
		c0.046-0.227,0.103-0.452,0.169-0.677c0.068-0.225,0.146-0.439,0.236-0.654c0.089-0.218,0.188-0.429,0.297-0.634
		c0.11-0.203,0.229-0.399,0.358-0.594c0.131-0.195,0.268-0.386,0.417-0.563c0.147-0.18,0.303-0.352,0.468-0.517
		s0.337-0.32,0.516-0.468c0.18-0.147,0.366-0.285,0.561-0.417c0.193-0.129,0.393-0.249,0.597-0.358
		c0.206-0.11,0.416-0.208,0.63-0.297c0.215-0.09,0.435-0.168,0.656-0.236c0.224-0.066,0.448-0.124,0.678-0.169
		c0.228-0.044,0.458-0.08,0.688-0.102c0.231-0.023,0.463-0.035,0.696-0.035h0.006c0.233,0,0.465,0.011,0.697,0.035
		c0.23,0.022,0.461,0.057,0.688,0.102c0.229,0.045,0.454,0.103,0.677,0.169c0.222,0.068,0.441,0.146,0.656,0.236
		c0.215,0.088,0.425,0.187,0.63,0.297c0.204,0.109,0.404,0.229,0.597,0.358c0.194,0.131,0.38,0.269,0.561,0.417
		c0.179,0.146,0.351,0.303,0.516,0.468c0.166,0.165,0.321,0.337,0.468,0.517c0.149,0.182,0.286,0.367,0.417,0.563
		c0.129,0.188,0.249,0.391,0.358,0.594c0.11,0.205,0.208,0.416,0.297,0.634c0.09,0.215,0.167,0.434,0.236,0.654
		c0.066,0.225,0.124,0.45,0.169,0.677c0.044,0.229,0.079,0.458,0.102,0.688C56.14,105.43,56.15,105.66,56.15,105.895z"/>
	
		<linearGradient id="Rectangle-Copy-4_1_" gradientUnits="userSpaceOnUse" x1="-698.9956" y1="-696.793" x2="-695.5151" y2="-717.2857" gradientTransform="matrix(1.788732e-007 15 -5 5.962440e-008 -3499.4399 10604.4619)">
		<stop  offset="0" style="stop-color:#69FF97"/>
		<stop  offset="1" style="stop-color:#69FFDB"/>
	</linearGradient>
	<path id="Rectangle-Copy-4_4_" fill="url(#Rectangle-Copy-4_1_)" d="M23.461,121.527v28.432c0,0.232-0.011,0.463-0.035,0.697
		c-0.022,0.229-0.057,0.46-0.101,0.688c-0.046,0.229-0.103,0.456-0.17,0.678c-0.068,0.225-0.146,0.441-0.235,0.654
		c-0.089,0.217-0.188,0.428-0.297,0.635c-0.109,0.201-0.229,0.401-0.358,0.599c-0.13,0.188-0.268,0.381-0.416,0.558
		c-0.147,0.184-0.303,0.354-0.468,0.52s-0.337,0.322-0.517,0.47c-0.18,0.146-0.366,0.284-0.561,0.413
		c-0.193,0.131-0.393,0.25-0.597,0.359c-0.205,0.109-0.415,0.209-0.63,0.299c-0.215,0.092-0.435,0.17-0.656,0.232
		c-0.224,0.066-0.449,0.122-0.677,0.172c-0.228,0.045-0.458,0.078-0.688,0.104c-0.232,0.021-0.464,0.033-0.697,0.033h-0.005
		c-0.233,0-0.465-0.012-0.697-0.033c-0.23-0.021-0.461-0.059-0.688-0.104c-0.229-0.05-0.454-0.104-0.678-0.172
		c-0.222-0.063-0.441-0.144-0.657-0.232c-0.215-0.09-0.424-0.188-0.63-0.299c-0.204-0.109-0.404-0.229-0.597-0.359
		c-0.195-0.129-0.38-0.268-0.561-0.413c-0.179-0.147-0.351-0.304-0.517-0.47c-0.165-0.164-0.32-0.336-0.467-0.52
		c-0.148-0.177-0.286-0.363-0.417-0.558c-0.129-0.194-0.248-0.396-0.358-0.599c-0.11-0.207-0.208-0.418-0.297-0.635
		c-0.09-0.213-0.168-0.433-0.236-0.654c-0.067-0.222-0.124-0.446-0.169-0.678c-0.044-0.228-0.079-0.457-0.102-0.688
		c-0.023-0.234-0.034-0.465-0.034-0.697v-28.432c0-0.233,0.011-0.463,0.034-0.697c0.022-0.229,0.057-0.461,0.102-0.688
		c0.046-0.229,0.103-0.457,0.169-0.681c0.068-0.222,0.146-0.438,0.236-0.651c0.088-0.22,0.187-0.431,0.297-0.637
		c0.11-0.199,0.229-0.4,0.358-0.595c0.131-0.19,0.268-0.384,0.417-0.562c0.147-0.182,0.302-0.354,0.467-0.518
		c0.166-0.166,0.337-0.322,0.517-0.471c0.181-0.146,0.366-0.284,0.561-0.415c0.193-0.132,0.393-0.247,0.597-0.357
		c0.206-0.11,0.415-0.209,0.63-0.298c0.215-0.092,0.435-0.169,0.657-0.236c0.224-0.063,0.448-0.121,0.678-0.168
		c0.227-0.045,0.458-0.08,0.688-0.104c0.232-0.021,0.464-0.033,0.697-0.033h0.005c0.233,0,0.465,0.012,0.697,0.033
		c0.23,0.021,0.46,0.059,0.688,0.104c0.229,0.047,0.454,0.104,0.677,0.168c0.222,0.067,0.441,0.146,0.656,0.236
		c0.215,0.089,0.425,0.188,0.63,0.298s0.404,0.228,0.597,0.357c0.194,0.131,0.38,0.271,0.561,0.415
		c0.179,0.147,0.352,0.305,0.517,0.471c0.165,0.164,0.321,0.336,0.468,0.518c0.148,0.178,0.286,0.365,0.416,0.562
		c0.129,0.19,0.249,0.396,0.358,0.595c0.11,0.206,0.208,0.417,0.297,0.637c0.09,0.213,0.167,0.433,0.235,0.651
		c0.067,0.224,0.124,0.449,0.17,0.681c0.044,0.227,0.079,0.457,0.101,0.688C23.45,121.064,23.461,121.294,23.461,121.527z"/>
</g>
</svg>
