<?xml version="1.0" encoding="utf-8"?>
<!-- Generator: Adobe Illustrator 15.0.0, SVG Export Plug-In . SVG Version: 6.00 Build 0)  -->
<!DOCTYPE svg PUBLIC "-//W3C//DTD SVG 1.1//EN" "http://www.w3.org/Graphics/SVG/1.1/DTD/svg11.dtd">
<svg version="1.1" id="accuracy" xmlns="http://www.w3.org/2000/svg" xmlns:xlink="http://www.w3.org/1999/xlink" x="0px" y="0px"
	 width="200px" height="200px" viewBox="0 0 200 200" enable-background="new 0 0 200 200" xml:space="preserve">
<g id="V3">
	<g id="_x31_2-MOUSE-_x2B_-LOGOUT" transform="translate(-329.000000, -1473.000000)">
		<g id="home_icon" transform="translate(329.000000, 1472.000000)">
			<g id="Group-13">
				<g id="Group-3_1_" transform="translate(0.000000, 31.712400)">
					<g id="Clip-2_1_">
					</g>
					<defs>
						<filter id="Adobe_OpacityMaskFilter" filterUnits="userSpaceOnUse" x="37.055" y="56.73" width="129.117" height="73.27">
							<feColorMatrix  type="matrix" values="1 0 0 0 0  0 1 0 0 0  0 0 1 0 0  0 0 0 1 0"/>
						</filter>
					</defs>
					<mask maskUnits="userSpaceOnUse" x="37.055" y="56.73" width="129.117" height="73.27" id="mask-2_1_">
						<g filter="url(#Adobe_OpacityMaskFilter)">
							<path id="path-1_1_" fill="#FFFFFF" d="M158.478,60.581v61.723h-36.343V97.021c0-2.125-1.724-3.848-3.848-3.848l0,0H84.938
								c-2.125,0-3.848,1.723-3.848,3.848l0,0v25.283H44.751V60.581c0-2.125-1.724-3.851-3.851-3.851l0,0
								c-2.124,0-3.845,1.726-3.845,3.851l0,0v65.572c0,2.124,1.721,3.848,3.845,3.848l0,0h44.038c2.124,0,3.846-1.724,3.846-3.848
								l0,0v-25.282h25.655v25.282c0,2.124,1.723,3.848,3.848,3.848l0,0h44.038c2.123,0,3.847-1.724,3.847-3.848l0,0V60.581
								c0-2.125-1.724-3.851-3.847-3.851l0,0C160.198,56.73,158.478,58.457,158.478,60.581"/>
						</g>
					</mask>
					
						<linearGradient id="Fill-1_2_" gradientUnits="userSpaceOnUse" x1="4.9507" y1="156.4438" x2="7.4225" y2="154.564" gradientTransform="matrix(50.333 0 0 -28.562 -222.3415 4529.4517)">
						<stop  offset="0" style="stop-color:#69FF97"/>
						<stop  offset="1" style="stop-color:#00E4FF"/>
					</linearGradient>
					<path id="Fill-1_1_" mask="url(#mask-2_1_)" fill="url(#Fill-1_2_)" d="M158.478,60.581v61.723h-36.343V97.021
						c0-2.125-1.724-3.848-3.848-3.848l0,0H84.938c-2.125,0-3.848,1.723-3.848,3.848l0,0v25.283H44.751V60.581
						c0-2.125-1.724-3.851-3.851-3.851l0,0c-2.124,0-3.845,1.726-3.845,3.851l0,0v65.572c0,2.124,1.721,3.848,3.845,3.848l0,0
						h44.038c2.124,0,3.846-1.724,3.846-3.848l0,0v-25.282h25.655v25.282c0,2.124,1.723,3.848,3.848,3.848l0,0h44.038
						c2.123,0,3.847-1.724,3.847-3.848l0,0V60.581c0-2.125-1.724-3.851-3.847-3.851l0,0
						C160.198,56.73,158.478,58.457,158.478,60.581"/>
				</g>
				<g id="Group-6" transform="translate(0.000000, 0.712400)">
					<g id="Clip-5">
					</g>
					<defs>
						<filter id="Adobe_OpacityMaskFilter_1_" filterUnits="userSpaceOnUse" x="37.055" y="7.823" width="129.118" height="64.302">
							<feColorMatrix  type="matrix" values="1 0 0 0 0  0 1 0 0 0  0 0 1 0 0  0 0 0 1 0"/>
						</filter>
					</defs>
					<mask maskUnits="userSpaceOnUse" x="37.055" y="7.823" width="129.118" height="64.302" id="mask-5_1_">
						<g filter="url(#Adobe_OpacityMaskFilter_1_)">
							<path id="path-4_1_" fill="#FFFFFF" d="M101.61,7.823c-0.942,0-1.886,0.343-2.622,1.031l0,0l-60.712,56.61
								c-0.793,0.739-1.204,1.738-1.221,2.743l0,0v0.141c0.018,0.916,0.36,1.833,1.033,2.556l0,0
								c0.758,0.81,1.784,1.221,2.812,1.221l0,0c0.942,0,1.885-0.343,2.629-1.034l0,0l58.083-54.161l58.09,54.161
								c1.556,1.449,3.99,1.367,5.436-0.19l0,0c1.451-1.552,1.366-3.989-0.191-5.436l0,0l-60.713-56.61
								C103.495,8.166,102.554,7.823,101.61,7.823z"/>
						</g>
					</mask>
					
						<linearGradient id="Fill-4_2_" gradientUnits="userSpaceOnUse" x1="5.4292" y1="186.6899" x2="7.9005" y2="185.0405" gradientTransform="matrix(50.3328 0 0 -25.0664 -222.3204 4712.8569)">
						<stop  offset="0" style="stop-color:#69FF97"/>
						<stop  offset="1" style="stop-color:#00E4FF"/>
					</linearGradient>
					<path id="Fill-4_1_" mask="url(#mask-5_1_)" fill="url(#Fill-4_2_)" d="M101.61,7.823c-0.942,0-1.886,0.343-2.622,1.031l0,0
						l-60.712,56.61c-0.793,0.739-1.204,1.738-1.221,2.743l0,0v0.141c0.018,0.916,0.36,1.833,1.033,2.556l0,0
						c0.758,0.81,1.784,1.221,2.812,1.221l0,0c0.942,0,1.885-0.343,2.629-1.034l0,0l58.083-54.161l58.09,54.161
						c1.556,1.449,3.99,1.367,5.436-0.19l0,0c1.451-1.552,1.366-3.989-0.191-5.436l0,0l-60.713-56.61
						C103.495,8.166,102.554,7.823,101.61,7.823z"/>
				</g>
				
					<linearGradient id="Fill-7_1_" gradientUnits="userSpaceOnUse" x1="29.9209" y1="159.7178" x2="45.0564" y2="137.9954" gradientTransform="matrix(7.168 0 0 -7.676 -193.1614 1259.903)">
					<stop  offset="0" style="stop-color:#69FF97"/>
					<stop  offset="1" style="stop-color:#00E4FF"/>
				</linearGradient>
				<polygon id="Fill-7" fill="url(#Fill-7_1_)" points="56.508,111.983 74.896,111.983 74.896,92.293 56.508,92.293 				"/>
				
					<linearGradient id="Fill-9_1_" gradientUnits="userSpaceOnUse" x1="32.9521" y1="164.2549" x2="48.0856" y2="142.5325" gradientTransform="matrix(7.167 0 0 -7.676 -164.8264 1259.903)">
					<stop  offset="0" style="stop-color:#69FF97"/>
					<stop  offset="1" style="stop-color:#00E4FF"/>
				</linearGradient>
				<polygon id="Fill-9" fill="url(#Fill-9_1_)" points="129.189,111.983 147.574,111.983 147.574,92.293 129.189,92.293 				"/>
				
					<linearGradient id="Fill-11_1_" gradientUnits="userSpaceOnUse" x1="31.4336" y1="161.9844" x2="46.5691" y2="140.262" gradientTransform="matrix(7.168 0 0 -7.676 -178.9933 1259.903)">
					<stop  offset="0" style="stop-color:#69FF97"/>
					<stop  offset="1" style="stop-color:#00E4FF"/>
				</linearGradient>
				<polygon id="Fill-11" fill="url(#Fill-11_1_)" points="92.848,111.983 111.234,111.983 111.234,92.293 92.848,92.293 				"/>
			</g>
		</g>
	</g>
</g>
</svg>
