<?xml version="1.0" encoding="utf-8"?>
<!-- Generator: Adobe Illustrator 15.0.0, SVG Export Plug-In . SVG Version: 6.00 Build 0)  -->
<!DOCTYPE svg PUBLIC "-//W3C//DTD SVG 1.1//EN" "http://www.w3.org/Graphics/SVG/1.1/DTD/svg11.dtd">
<svg version="1.1" id="accuracy" xmlns="http://www.w3.org/2000/svg" xmlns:xlink="http://www.w3.org/1999/xlink" x="0px" y="0px"
	 width="200px" height="200px" viewBox="0 0 200 200" enable-background="new 0 0 200 200" xml:space="preserve">
<g id="hospital_1_">
	<g id="Group-31">
		<g id="Group-3" transform="translate(0 13.85064)">
			<linearGradient id="Clip-2_1_" gradientUnits="userSpaceOnUse" x1="49.5029" y1="86.5449" x2="150.4971" y2="86.5449">
				<stop  offset="0" style="stop-color:#69FF97"/>
				<stop  offset="1" style="stop-color:#00E4FF"/>
			</linearGradient>
			<path id="Clip-2" fill="url(#Clip-2_1_)" d="M49.503,29.115c0-1.677,1.346-3.039,3.007-3.039h94.979
				c1.66,0,3.009,1.361,3.009,3.039v114.861c0,1.679-1.349,3.039-3.009,3.039h-34.447c-1.662,0-3.012-1.36-3.012-3.039v-19.96
				H89.965v19.96c0,1.679-1.347,3.039-3.009,3.039H52.51c-1.662,0-3.007-1.36-3.007-3.039V29.115z M144.479,32.151H55.522v108.788
				h28.424v-19.96c0-1.679,1.348-3.039,3.01-3.039h26.085c1.663,0,3.01,1.36,3.01,3.039v19.96h28.43V32.151H144.479z"/>
			<g>
				<g>
					<defs>
						<path id="SVGID_1_" d="M49.503,29.115c0-1.677,1.346-3.039,3.007-3.039h94.979c1.66,0,3.009,1.361,3.009,3.039v114.861
							c0,1.679-1.349,3.039-3.009,3.039h-34.447c-1.662,0-3.012-1.36-3.012-3.039v-19.96H89.965v19.96
							c0,1.679-1.347,3.039-3.009,3.039H52.51c-1.662,0-3.007-1.36-3.007-3.039V29.115z M144.479,32.151H55.522v108.788h28.424
							v-19.96c0-1.679,1.348-3.039,3.01-3.039h26.085c1.663,0,3.01,1.36,3.01,3.039v19.96h28.43V32.151H144.479z"/>
					</defs>
					<linearGradient id="SVGID_2_" gradientUnits="userSpaceOnUse" x1="49.5029" y1="86.5449" x2="150.4971" y2="86.5449">
						<stop  offset="0" style="stop-color:#69FF97"/>
						<stop  offset="1" style="stop-color:#00E4FF"/>
					</linearGradient>
					<use xlink:href="#SVGID_1_"  overflow="visible" fill="url(#SVGID_2_)"/>
					<clipPath id="SVGID_3_">
						<use xlink:href="#SVGID_1_"  overflow="visible"/>
					</clipPath>
					<g clip-path="url(#SVGID_3_)">
						
							<linearGradient id="Fill-1_1_" gradientUnits="userSpaceOnUse" x1="-842.5449" y1="-428.0508" x2="-839.3828" y2="-424.1716" gradientTransform="matrix(35.5292 0 0 42.5455 29984.707 18224.3906)">
							<stop  offset="0" style="stop-color:#69FF97"/>
							<stop  offset="1" style="stop-color:#00E4FF"/>
						</linearGradient>
						<path id="Fill-1" fill="url(#Fill-1_1_)" d="M49.503,29.115c0-1.677,1.346-3.039,3.007-3.039h94.979
							c1.66,0,3.009,1.361,3.009,3.039v114.861c0,1.679-1.349,3.039-3.009,3.039h-34.447c-1.662,0-3.012-1.36-3.012-3.039v-19.96
							H89.965v19.96c0,1.679-1.347,3.039-3.009,3.039H52.51c-1.662,0-3.007-1.36-3.007-3.039V29.115z M144.479,32.151H55.522
							v108.788h28.424v-19.96c0-1.679,1.348-3.039,3.01-3.039h26.085c1.663,0,3.01,1.36,3.01,3.039v19.96h28.43V32.151H144.479z"/>
					</g>
				</g>
			</g>
		</g>
		
			<linearGradient id="Fill-4_1_" gradientUnits="userSpaceOnUse" x1="-747.2744" y1="-277.3276" x2="-725.0643" y2="-225.8468" gradientTransform="matrix(5.0591 0 0 3.2062 3832.3965 914.2457)">
			<stop  offset="0" style="stop-color:#69FF97"/>
			<stop  offset="1" style="stop-color:#00E4FF"/>
		</linearGradient>
		<path id="Fill-4" fill="url(#Fill-4_1_)" d="M67.449,63.099H81.83v-9.115H67.449V63.099z"/>
		
			<linearGradient id="Fill-6_1_" gradientUnits="userSpaceOnUse" x1="-745.623" y1="-281.0703" x2="-723.4129" y2="-229.5895" gradientTransform="matrix(5.0591 0 0 3.2062 3841.3691 914.2457)">
			<stop  offset="0" style="stop-color:#69FF97"/>
			<stop  offset="1" style="stop-color:#00E4FF"/>
		</linearGradient>
		<path id="Fill-6" fill="url(#Fill-6_1_)" d="M92.947,63.099h14.381v-9.115H92.947V63.099z"/>
		
			<linearGradient id="Fill-8_1_" gradientUnits="userSpaceOnUse" x1="-743.9541" y1="-284.8169" x2="-721.7439" y2="-233.3428" gradientTransform="matrix(5.0584 0 0 3.2062 3849.7244 914.2457)">
			<stop  offset="0" style="stop-color:#69FF97"/>
			<stop  offset="1" style="stop-color:#00E4FF"/>
		</linearGradient>
		<path id="Fill-8" fill="url(#Fill-8_1_)" d="M118.448,63.099h14.377v-9.115h-14.377V63.099z"/>
		
			<linearGradient id="Fill-10_1_" gradientUnits="userSpaceOnUse" x1="-748.8359" y1="-277.4893" x2="-726.6318" y2="-226.0221" gradientTransform="matrix(5.0591 0 0 3.2062 3832.3965 920.2652)">
			<stop  offset="0" style="stop-color:#69FF97"/>
			<stop  offset="1" style="stop-color:#00E4FF"/>
		</linearGradient>
		<path id="Fill-10" fill="url(#Fill-10_1_)" d="M67.449,80.209H81.83v-9.114H67.449V80.209z"/>
		
			<linearGradient id="Fill-12_1_" gradientUnits="userSpaceOnUse" x1="-747.1895" y1="-281.2417" x2="-724.9735" y2="-229.7475" gradientTransform="matrix(5.0591 0 0 3.2062 3841.3691 920.2652)">
			<stop  offset="0" style="stop-color:#69FF97"/>
			<stop  offset="1" style="stop-color:#00E4FF"/>
		</linearGradient>
		<path id="Fill-12" fill="url(#Fill-12_1_)" d="M92.947,80.209h14.381v-9.114H92.947V80.209z"/>
		
			<linearGradient id="Fill-14_1_" gradientUnits="userSpaceOnUse" x1="-745.5244" y1="-284.9971" x2="-723.3" y2="-233.4904" gradientTransform="matrix(5.0584 0 0 3.2062 3849.7244 920.2652)">
			<stop  offset="0" style="stop-color:#69FF97"/>
			<stop  offset="1" style="stop-color:#00E4FF"/>
		</linearGradient>
		<path id="Fill-14" fill="url(#Fill-14_1_)" d="M118.448,80.209h14.377v-9.114h-14.377V80.209z"/>
		
			<linearGradient id="Fill-16_1_" gradientUnits="userSpaceOnUse" x1="-750.3442" y1="-277.6538" x2="-728.1342" y2="-226.1731" gradientTransform="matrix(5.0591 0 0 3.2062 3832.3965 926.0543)">
			<stop  offset="0" style="stop-color:#69FF97"/>
			<stop  offset="1" style="stop-color:#00E4FF"/>
		</linearGradient>
		<path id="Fill-16" fill="url(#Fill-16_1_)" d="M67.449,96.671H81.83v-9.112H67.449V96.671z"/>
		
			<linearGradient id="Fill-18_1_" gradientUnits="userSpaceOnUse" x1="-748.6904" y1="-281.3926" x2="-726.4861" y2="-229.9252" gradientTransform="matrix(5.0591 0 0 3.2062 3841.3691 926.0543)">
			<stop  offset="0" style="stop-color:#69FF97"/>
			<stop  offset="1" style="stop-color:#00E4FF"/>
		</linearGradient>
		<path id="Fill-18" fill="url(#Fill-18_1_)" d="M92.947,96.671h14.381v-9.112H92.947V96.671z"/>
		
			<linearGradient id="Fill-20_1_" gradientUnits="userSpaceOnUse" x1="-747.0259" y1="-285.1475" x2="-724.8127" y2="-233.6667" gradientTransform="matrix(5.0584 0 0 3.2062 3849.7244 926.0543)">
			<stop  offset="0" style="stop-color:#69FF97"/>
			<stop  offset="1" style="stop-color:#00E4FF"/>
		</linearGradient>
		<path id="Fill-20" fill="url(#Fill-20_1_)" d="M118.448,96.671h14.377v-9.112h-14.377V96.671z"/>
		
			<linearGradient id="Fill-22_1_" gradientUnits="userSpaceOnUse" x1="-751.9971" y1="-277.8223" x2="-729.7928" y2="-226.3551" gradientTransform="matrix(5.0591 0 0 3.2062 3832.3965 932.4293)">
			<stop  offset="0" style="stop-color:#69FF97"/>
			<stop  offset="1" style="stop-color:#00E4FF"/>
		</linearGradient>
		<path id="Fill-22" fill="url(#Fill-22_1_)" d="M67.449,114.788H81.83v-9.11H67.449V114.788z"/>
		
			<linearGradient id="Fill-24_1_" gradientUnits="userSpaceOnUse" x1="-750.3447" y1="-281.5635" x2="-728.1404" y2="-230.0961" gradientTransform="matrix(5.0591 0 0 3.2062 3841.3691 932.4293)">
			<stop  offset="0" style="stop-color:#69FF97"/>
			<stop  offset="1" style="stop-color:#00E4FF"/>
		</linearGradient>
		<path id="Fill-24" fill="url(#Fill-24_1_)" d="M92.947,114.788h14.381v-9.11H92.947V114.788z"/>
		
			<linearGradient id="Fill-26_1_" gradientUnits="userSpaceOnUse" x1="-748.6787" y1="-285.3159" x2="-726.4685" y2="-233.8418" gradientTransform="matrix(5.0584 0 0 3.2062 3849.7244 932.4293)">
			<stop  offset="0" style="stop-color:#69FF97"/>
			<stop  offset="1" style="stop-color:#00E4FF"/>
		</linearGradient>
		<path id="Fill-26" fill="url(#Fill-26_1_)" d="M118.448,114.788h14.377v-9.11h-14.377V114.788z"/>
		<g id="Group-30" transform="translate(12.70588 0.3131437)">
			<linearGradient id="Clip-29_1_" gradientUnits="userSpaceOnUse" x1="73.9719" y1="16.0326" x2="102.3976" y2="16.0326">
				<stop  offset="0" style="stop-color:#69FF97"/>
				<stop  offset="1" style="stop-color:#00E4FF"/>
			</linearGradient>
			<path id="Clip-29" fill="url(#Clip-29_1_)" d="M83.838,1.687v9.956h-9.866v8.779h9.866v9.956h8.694v-9.956h9.865v-8.779h-9.865
				V1.687H83.838z"/>
			<g>
				<g>
					<defs>
						<polygon id="SVGID_4_" points="83.838,1.687 83.838,11.642 73.972,11.642 73.972,20.422 83.838,20.422 83.838,30.378 
							92.532,30.378 92.532,20.422 102.398,20.422 102.398,11.642 92.532,11.642 92.532,1.687 						"/>
					</defs>
					<linearGradient id="SVGID_5_" gradientUnits="userSpaceOnUse" x1="73.9719" y1="16.0326" x2="102.3976" y2="16.0326">
						<stop  offset="0" style="stop-color:#69FF97"/>
						<stop  offset="1" style="stop-color:#00E4FF"/>
					</linearGradient>
					<use xlink:href="#SVGID_4_"  overflow="visible" fill="url(#SVGID_5_)"/>
					<clipPath id="SVGID_6_">
						<use xlink:href="#SVGID_4_"  overflow="visible"/>
					</clipPath>
					<g clip-path="url(#SVGID_6_)">
						
							<linearGradient id="Fill-28_1_" gradientUnits="userSpaceOnUse" x1="-824.5882" y1="-389.4176" x2="-813.3505" y2="-373.0614" gradientTransform="matrix(10.0002 0 0 10.0933 8322.5537 3929.385)">
							<stop  offset="0" style="stop-color:#69FF97"/>
							<stop  offset="1" style="stop-color:#00E4FF"/>
						</linearGradient>
						<path id="Fill-28" fill="url(#Fill-28_1_)" d="M83.838,1.687v9.956h-9.866v8.779h9.866v9.956h8.694v-9.956h9.865v-8.779
							h-9.865V1.687H83.838z"/>
					</g>
				</g>
			</g>
		</g>
	</g>
</g>
</svg>
