<?xml version="1.0" encoding="utf-8"?>
<!-- Generator: Adobe Illustrator 15.0.0, SVG Export Plug-In . SVG Version: 6.00 Build 0)  -->
<!DOCTYPE svg PUBLIC "-//W3C//DTD SVG 1.1//EN" "http://www.w3.org/Graphics/SVG/1.1/DTD/svg11.dtd">
<svg version="1.1" xmlns="http://www.w3.org/2000/svg" xmlns:xlink="http://www.w3.org/1999/xlink" x="0px" y="0px" width="200px"
	 height="200px" viewBox="0 0 200 200" enable-background="new 0 0 200 200" xml:space="preserve">
<g id="laptop">
	<path fill="#FFFFFF" d="M194.204,147.578h-9.493V47.889c0-3.896-3.171-7.066-7.064-7.066h-0.377H22.82h-0.001h-0.462
		c-3.896,0-7.066,3.17-7.066,7.066v99.689H5.796c-0.333,0-0.604,0.27-0.604,0.604v3.719c0,1.556,0.511,2.988,1.365,4.158
		c0,0,0.001,0.002,0.001,0.004c1.286,1.754,3.359,2.903,5.7,2.903l166.678-0.002c0.002-0.001,0.005-0.001,0.007-0.002h8.799
		c2.483,0,4.667-1.291,5.928-3.231c0.022-0.059,0.046-0.115,0.067-0.174c-0.001,0.002-0.001,0.004-0.002,0.006
		c-0.021,0.059-0.043,0.115-0.066,0.174c0.719-1.105,1.139-2.42,1.139-3.834v-3.721h0.002
		C194.809,147.848,194.539,147.578,194.204,147.578z M183.781,45.906c0.025,0.106,0.051,0.213,0.07,0.321
		C183.831,46.119,183.807,46.012,183.781,45.906c-0.026-0.107-0.057-0.213-0.088-0.318
		C183.725,45.693,183.755,45.799,183.781,45.906z M16.498,47.889c0-3.23,2.628-5.857,5.857-5.857h155.292
		c3.229,0,5.855,2.627,5.855,5.857v99.689h-4.456v-99.1c0-0.333-0.271-0.604-0.604-0.604H21.559c-0.333,0-0.605,0.271-0.605,0.604
		v99.101h-4.456V47.889z M177.838,49.082v98.496H22.163V49.082H177.838z M193.602,151.898c0,3.229-2.629,5.855-5.859,5.855h-6.348
		c-0.001,0.001-0.002,0.001-0.003,0.002l-169.133,0.002c-3.23,0-5.858-2.626-5.858-5.855v-3.114h9.704v-0.002h64.903
		c0.297,2.328,2.282,4.13,4.691,4.13h28.6c2.41,0,4.395-1.802,4.692-4.13h64.989v-0.521h0.002v0.519h9.619V151.898z
		 M193.891,155.049c-0.006,0.023-0.014,0.047-0.02,0.07c0.006-0.024,0.014-0.048,0.02-0.072c0.01-0.039,0.018-0.078,0.026-0.117
		C193.908,154.97,193.9,155.009,193.891,155.049z"/>
</g>
<g id="Layer_3">
	<polygon fill="#FFFFFF" points="95.733,120.057 101.119,114.67 119.548,96.242 114.16,90.855 95.733,109.282 87.017,100.564 
		81.631,105.951 90.348,114.67 	"/>
	
		<linearGradient id="SVGID_1_" gradientUnits="userSpaceOnUse" x1="-850" y1="-433.1885" x2="-849.4218" y2="-432.2584" gradientTransform="matrix(60.646 0 0 75.403 51630.0742 32727.5625)">
		<stop  offset="0" style="stop-color:#8DCB86"/>
		<stop  offset="1" style="stop-color:#5DCAE8"/>
	</linearGradient>
	<path fill="url(#SVGID_1_)" d="M83.906,129.02h32.188c5.17,0,9.358-4.188,9.358-9.356V81.939h-6.279v-4.842
		c0-6.27-5.101-11.37-11.37-11.37H92.197c-6.269,0-11.371,5.1-11.371,11.37v4.842h-6.278v37.723
		C74.548,124.83,78.737,129.02,83.906,129.02z M84.771,77.097c0-4.095,3.331-7.427,7.426-7.427h15.608
		c4.096,0,7.426,3.332,7.426,7.427v4.842H84.771V77.097z M87.017,100.564l8.716,8.718l18.427-18.427l5.388,5.387l-18.429,18.428
		l-5.386,5.387l-5.386-5.387l-8.716-8.719L87.017,100.564z"/>
</g>
</svg>
