<?xml version="1.0" encoding="utf-8"?>
<!-- Generator: Adobe Illustrator 15.0.0, SVG Export Plug-In . SVG Version: 6.00 Build 0)  -->
<!DOCTYPE svg PUBLIC "-//W3C//DTD SVG 1.1//EN" "http://www.w3.org/Graphics/SVG/1.1/DTD/svg11.dtd">
<svg version="1.1" id="microscopio" xmlns="http://www.w3.org/2000/svg" xmlns:xlink="http://www.w3.org/1999/xlink" x="0px"
	 y="0px" width="200px" height="200px" viewBox="0 0 200 200" enable-background="new 0 0 200 200" xml:space="preserve">
<g id="microscopio_1_">
	<g id="Group-13_1_">
		<g id="Group-3" transform="translate(0 56.4883)">
			<path id="Clip-2" fill="none" d="M26.781,74.538c0-5.026,4.092-9.119,9.12-9.119h34.882c5.027,0,9.118,4.093,9.118,9.119
				c0,5.03-4.091,9.12-9.118,9.12H56.96c2.747,6.059,6.501,11.548,11.202,16.338c1.121,1.14,1.105,2.979-0.039,4.1
				c-0.563,0.555-1.298,0.83-2.03,0.83c-0.751,0-1.502-0.29-2.07-0.868C58.239,98.163,53.74,91.31,50.655,83.687
				c-0.003-0.01-0.003-0.018-0.007-0.028H35.901C30.873,83.658,26.781,79.568,26.781,74.538z M35.901,71.218
				c-1.832,0-3.322,1.493-3.322,3.32c0,1.832,1.49,3.321,3.322,3.321h34.882c1.83,0,3.32-1.489,3.32-3.321
				c0-1.827-1.49-3.32-3.32-3.32H35.901z"/>
			<g>
				<defs>
					<path id="SVGID_1_" d="M26.781,74.538c0-5.026,4.092-9.119,9.12-9.119h34.882c5.027,0,9.118,4.093,9.118,9.119
						c0,5.03-4.091,9.12-9.118,9.12H56.96c2.747,6.059,6.501,11.548,11.202,16.338c1.121,1.14,1.105,2.979-0.039,4.1
						c-0.563,0.555-1.298,0.83-2.03,0.83c-0.751,0-1.502-0.29-2.07-0.868C58.239,98.163,53.74,91.31,50.655,83.687
						c-0.003-0.01-0.003-0.018-0.007-0.028H35.901C30.873,83.658,26.781,79.568,26.781,74.538z M35.901,71.218
						c-1.832,0-3.322,1.493-3.322,3.32c0,1.832,1.49,3.321,3.322,3.321h34.882c1.83,0,3.32-1.489,3.32-3.321
						c0-1.827-1.49-3.32-3.32-3.32H35.901z"/>
				</defs>
				<clipPath id="SVGID_2_">
					<use xlink:href="#SVGID_1_"  overflow="visible"/>
				</clipPath>
				<g clip-path="url(#SVGID_2_)">
					
						<linearGradient id="Fill-1_2_" gradientUnits="userSpaceOnUse" x1="-847.0654" y1="574.123" x2="-842.3307" y2="565.8658" gradientTransform="matrix(27.484 0 0 -20.44 23288.7871 11750.8467)">
						<stop  offset="0" style="stop-color:#8DCB86"/>
						<stop  offset="1" style="stop-color:#5DCAE8"/>
					</linearGradient>
					<path id="Fill-1_1_" fill="url(#Fill-1_2_)" d="M26.781,74.538c0-5.026,4.092-9.119,9.12-9.119h34.882
						c5.027,0,9.118,4.093,9.118,9.119c0,5.03-4.091,9.12-9.118,9.12H56.96c2.747,6.059,6.501,11.548,11.202,16.338
						c1.121,1.14,1.105,2.979-0.039,4.1c-0.563,0.555-1.298,0.83-2.03,0.83c-0.751,0-1.502-0.29-2.07-0.868
						C58.239,98.163,53.74,91.31,50.655,83.687c-0.003-0.01-0.003-0.018-0.007-0.028H35.901
						C30.873,83.658,26.781,79.568,26.781,74.538z M35.901,71.218c-1.832,0-3.322,1.493-3.322,3.32c0,1.832,1.49,3.321,3.322,3.321
						h34.882c1.83,0,3.32-1.489,3.32-3.321c0-1.827-1.49-3.32-3.32-3.32H35.901z"/>
				</g>
			</g>
		</g>
		<g id="Group-6" transform="translate(15 79.4883)">
			<path id="Clip-5" fill="none" d="M40.958,96.905c0-5.028,4.089-9.116,9.119-9.116h87.523c5.028,0,9.12,4.088,9.12,9.116
				s-4.092,9.12-9.12,9.12H50.077C45.048,106.025,40.958,101.934,40.958,96.905z M50.077,93.583c-1.83,0-3.322,1.491-3.322,3.322
				s1.492,3.322,3.322,3.322h87.523c1.83,0,3.321-1.491,3.321-3.322s-1.491-3.322-3.321-3.322H50.077z"/>
			<g>
				<defs>
					<path id="SVGID_3_" d="M40.958,96.905c0-5.028,4.089-9.116,9.119-9.116h87.523c5.028,0,9.12,4.088,9.12,9.116
						s-4.092,9.12-9.12,9.12H50.077C45.048,106.025,40.958,101.934,40.958,96.905z M50.077,93.583c-1.83,0-3.322,1.491-3.322,3.322
						s1.492,3.322,3.322,3.322h87.523c1.83,0,3.321-1.491,3.321-3.322s-1.491-3.322-3.321-3.322H50.077z"/>
				</defs>
				<clipPath id="SVGID_4_">
					<use xlink:href="#SVGID_3_"  overflow="visible"/>
				</clipPath>
				<g clip-path="url(#SVGID_4_)">
					
						<linearGradient id="Fill-4_1_" gradientUnits="userSpaceOnUse" x1="-868.0474" y1="542.5498" x2="-865.6688" y2="524.6592" gradientTransform="matrix(54.721 0 0 -9.436 47506.3086 5102.3242)">
						<stop  offset="0" style="stop-color:#8DCB86"/>
						<stop  offset="1" style="stop-color:#5DCAE8"/>
					</linearGradient>
					<path id="Fill-4" fill="url(#Fill-4_1_)" d="M40.958,96.905c0-5.028,4.089-9.116,9.119-9.116h87.523
						c5.028,0,9.12,4.088,9.12,9.116s-4.092,9.12-9.12,9.12H50.077C45.048,106.025,40.958,101.934,40.958,96.905z M50.077,93.583
						c-1.83,0-3.322,1.491-3.322,3.322s1.492,3.322,3.322,3.322h87.523c1.83,0,3.321-1.491,3.321-3.322s-1.491-3.322-3.321-3.322
						H50.077z"/>
				</g>
			</g>
		</g>
		<g id="Group-9" transform="translate(18 0.4883)">
			<path id="Clip-8" fill="none" d="M73.875,18.851l2.049-4.853l16.863,7.114l-2.048,4.855l3.511,1.482
				c1.476,0.622,2.167,2.322,1.544,3.796l-4.725,11.2c0.134,0.108,0.271,0.205,0.4,0.317c2.648,2.325,4.237,5.543,4.468,9.061
				c0.041,0.634,0.022,1.26-0.024,1.883c32.991,1.716,59.306,29.094,59.306,62.509c0,16.715-6.508,32.435-18.331,44.256
				c-0.566,0.565-1.306,0.851-2.052,0.851c-0.739,0-1.481-0.285-2.048-0.851c-1.132-1.133-1.132-2.966,0-4.1
				c10.727-10.727,16.637-24.988,16.637-40.156c0-30.83-24.692-55.979-55.334-56.759c-0.409,0.676-0.868,1.323-1.402,1.933
				c-2.323,2.647-5.541,4.236-9.062,4.466c-0.293,0.021-0.587,0.027-0.878,0.027c-0.511,0-1.009-0.075-1.509-0.135L74.658,81.34
				c-0.466,1.106-1.542,1.772-2.67,1.772c-0.378,0-0.76-0.076-1.127-0.23L46.972,72.803c-0.708-0.298-1.271-0.865-1.559-1.579
				c-0.288-0.712-0.286-1.51,0.015-2.217l21.137-50.094c0.622-1.475,2.323-2.161,3.797-1.543L73.875,18.851z M51.896,68.589
				l18.885-44.751l18.544,7.825l-3.458,8.193c-1.277-0.308-2.607-0.428-3.961-0.341c-3.517,0.23-6.737,1.82-9.061,4.467
				c-2.323,2.652-3.477,6.051-3.247,9.564c0.23,3.519,1.817,6.737,4.467,9.061c0.529,0.463,1.102,0.861,1.685,1.23l-5.307,12.577
				L51.896,68.589z M75.384,53.17c0.129,1.973,1.019,3.774,2.505,5.079c1.355,1.188,3.058,1.838,4.846,1.838
				c0.17,0,0.343-0.006,0.515-0.02c1.974-0.127,3.774-1.016,5.081-2.502c1.302-1.487,1.949-3.394,1.819-5.362
				c-0.255-3.91-3.519-6.917-7.378-6.917c-0.162,0-0.325,0.006-0.49,0.017c-1.971,0.128-3.772,1.019-5.077,2.505
				C75.901,49.292,75.255,51.195,75.384,53.17z"/>
			<g>
				<defs>
					<path id="SVGID_5_" d="M73.875,18.851l2.049-4.853l16.863,7.114l-2.048,4.855l3.511,1.482c1.476,0.622,2.167,2.322,1.544,3.796
						l-4.725,11.2c0.134,0.108,0.271,0.205,0.4,0.317c2.648,2.325,4.237,5.543,4.468,9.061c0.041,0.634,0.022,1.26-0.024,1.883
						c32.991,1.716,59.306,29.094,59.306,62.509c0,16.715-6.508,32.435-18.331,44.256c-0.566,0.565-1.306,0.851-2.052,0.851
						c-0.739,0-1.481-0.285-2.048-0.851c-1.132-1.133-1.132-2.966,0-4.1c10.727-10.727,16.637-24.988,16.637-40.156
						c0-30.83-24.692-55.979-55.334-56.759c-0.409,0.676-0.868,1.323-1.402,1.933c-2.323,2.647-5.541,4.236-9.062,4.466
						c-0.293,0.021-0.587,0.027-0.878,0.027c-0.511,0-1.009-0.075-1.509-0.135L74.658,81.34c-0.466,1.106-1.542,1.772-2.67,1.772
						c-0.378,0-0.76-0.076-1.127-0.23L46.972,72.803c-0.708-0.298-1.271-0.865-1.559-1.579c-0.288-0.712-0.286-1.51,0.015-2.217
						l21.137-50.094c0.622-1.475,2.323-2.161,3.797-1.543L73.875,18.851z M51.896,68.589l18.885-44.751l18.544,7.825l-3.458,8.193
						c-1.277-0.308-2.607-0.428-3.961-0.341c-3.517,0.23-6.737,1.82-9.061,4.467c-2.323,2.652-3.477,6.051-3.247,9.564
						c0.23,3.519,1.817,6.737,4.467,9.061c0.529,0.463,1.102,0.861,1.685,1.23l-5.307,12.577L51.896,68.589z M75.384,53.17
						c0.129,1.973,1.019,3.774,2.505,5.079c1.355,1.188,3.058,1.838,4.846,1.838c0.17,0,0.343-0.006,0.515-0.02
						c1.974-0.127,3.774-1.016,5.081-2.502c1.302-1.487,1.949-3.394,1.819-5.362c-0.255-3.91-3.519-6.917-7.378-6.917
						c-0.162,0-0.325,0.006-0.49,0.017c-1.971,0.128-3.772,1.019-5.077,2.505C75.901,49.292,75.255,51.195,75.384,53.17z"/>
				</defs>
				<clipPath id="SVGID_6_">
					<use xlink:href="#SVGID_5_"  overflow="visible"/>
				</clipPath>
				<g clip-path="url(#SVGID_6_)">
					<path fill="none" d="M82.772,45.286c-0.162,0-0.325,0.006-0.49,0.017c-1.971,0.128-3.772,1.019-5.077,2.505
						c-1.304,1.484-1.95,3.388-1.821,5.362c0.129,1.973,1.019,3.774,2.505,5.079c1.355,1.188,3.058,1.838,4.846,1.838
						c0.17,0,0.343-0.006,0.515-0.02c1.974-0.127,3.774-1.016,5.081-2.502c1.302-1.487,1.949-3.394,1.819-5.362
						C89.896,48.293,86.632,45.286,82.772,45.286z"/>
					
						<linearGradient id="SVGID_7_" gradientUnits="userSpaceOnUse" x1="-870.4512" y1="637.6416" x2="-868.165" y2="635.4271" gradientTransform="matrix(56.9234 0 0 -76.224 49602.7031 48626.2305)">
						<stop  offset="0" style="stop-color:#8DCB86"/>
						<stop  offset="1" style="stop-color:#5DCAE8"/>
					</linearGradient>
					<path fill="url(#SVGID_7_)" d="M95.913,53.707c0.047-0.623,0.065-1.249,0.024-1.883c-0.23-3.518-1.819-6.735-4.468-9.061
						c-0.129-0.112-0.267-0.209-0.4-0.317l4.725-11.2c0.623-1.474-0.068-3.174-1.544-3.796l-3.511-1.482l2.048-4.855l-16.863-7.114
						l-2.049,4.853l-3.513-1.48c-1.474-0.618-3.176,0.068-3.797,1.543L45.428,69.007c-0.301,0.707-0.303,1.505-0.015,2.217
						c0.288,0.714,0.851,1.281,1.559,1.579L70.86,82.882c0.367,0.154,0.749,0.23,1.127,0.23c1.128,0,2.204-0.666,2.67-1.772
						l6.582-15.592c0.5,0.06,0.999,0.135,1.509,0.135c0.292,0,0.585-0.007,0.878-0.027c3.521-0.229,6.738-1.818,9.062-4.466
						c0.534-0.609,0.993-1.257,1.402-1.933c30.642,0.78,55.334,25.929,55.334,56.759c0,15.168-5.91,29.43-16.637,40.156
						c-1.132,1.134-1.132,2.967,0,4.1c0.566,0.565,1.309,0.851,2.048,0.851c0.746,0,1.485-0.285,2.052-0.851
						c11.823-11.821,18.331-27.541,18.331-44.256C155.219,82.801,128.904,55.423,95.913,53.707z M70.442,76.415l-18.546-7.826
						l18.885-44.751l18.544,7.825l-3.458,8.193c-1.277-0.308-2.607-0.428-3.961-0.341c-3.517,0.23-6.737,1.82-9.061,4.467
						c-2.323,2.652-3.477,6.051-3.247,9.564c0.23,3.519,1.817,6.737,4.467,9.061c0.529,0.463,1.102,0.861,1.685,1.23L70.442,76.415z
						 M88.331,57.565c-1.307,1.486-3.107,2.375-5.081,2.502c-0.172,0.014-0.345,0.02-0.515,0.02c-1.789,0-3.491-0.649-4.846-1.838
						c-1.486-1.305-2.375-3.106-2.505-5.079c-0.129-1.975,0.517-3.878,1.821-5.362c1.305-1.486,3.106-2.377,5.077-2.505
						c0.165-0.011,0.328-0.017,0.49-0.017c3.86,0,7.124,3.007,7.378,6.917C90.28,54.172,89.633,56.078,88.331,57.565z"/>
				</g>
			</g>
		</g>
		<g id="Group-12" transform="translate(17 32.4883)">
			<path id="Clip-11" fill="none" d="M44.117,59.056l16.864,7.114l6.352-15.051l-16.865-7.116L44.117,59.056z"/>
			<g>
				<defs>
					
						<rect id="SVGID_8_" x="46.574" y="46.919" transform="matrix(-0.9214 -0.3887 0.3887 -0.9214 85.6562 127.5031)" width="18.303" height="16.336"/>
				</defs>
				<clipPath id="SVGID_9_">
					<use xlink:href="#SVGID_8_"  overflow="visible"/>
				</clipPath>
				<g clip-path="url(#SVGID_9_)">
					
						<linearGradient id="Fill-10_1_" gradientUnits="userSpaceOnUse" x1="-847.4131" y1="590.1787" x2="-836.5781" y2="575.46" gradientTransform="matrix(12.012 0 0 -11.469 10203.3203 6782.9521)">
						<stop  offset="0" style="stop-color:#8DCB86"/>
						<stop  offset="1" style="stop-color:#5DCAE8"/>
					</linearGradient>
					<path id="Fill-10" fill="url(#Fill-10_1_)" d="M44.117,59.056l16.864,7.114l6.352-15.051l-16.865-7.116L44.117,59.056z"/>
				</g>
			</g>
		</g>
	</g>
</g>
</svg>
