<?xml version="1.0" encoding="utf-8"?>
<!-- Generator: Adobe Illustrator 15.0.0, SVG Export Plug-In . SVG Version: 6.00 Build 0)  -->
<!DOCTYPE svg PUBLIC "-//W3C//DTD SVG 1.1//EN" "http://www.w3.org/Graphics/SVG/1.1/DTD/svg11.dtd">
<svg version="1.1" id="programma" xmlns="http://www.w3.org/2000/svg" xmlns:xlink="http://www.w3.org/1999/xlink" x="0px" y="0px"
	 width="200px" height="200px" viewBox="0 0 200 200" enable-background="new 0 0 200 200" xml:space="preserve">
<g id="programma_icon">
	<g id="Group-45">
		<g id="Group-7" transform="translate(32 43.1631)">
			<path id="Fill-1" fill="#FFFFFF" d="M102.289,64.654H41.527c-1.485,0-2.688-1.203-2.688-2.687s1.203-2.687,2.688-2.687h60.762
				c1.484,0,2.688,1.203,2.688,2.687S103.773,64.654,102.289,64.654"/>
			<path id="Fill-3" fill="#FFFFFF" d="M102.289,87.528H41.527c-1.485,0-2.688-1.203-2.688-2.688c0-1.481,1.203-2.685,2.688-2.685
				h60.762c1.484,0,2.688,1.203,2.688,2.685C104.977,86.325,103.773,87.528,102.289,87.528"/>
			<path id="Fill-5" fill="#FFFFFF" d="M102.289,113.737H41.527c-1.485,0-2.688-1.203-2.688-2.689c0-1.481,1.203-2.685,2.688-2.685
				h60.762c1.484,0,2.688,1.203,2.688,2.685C104.977,112.534,103.773,113.737,102.289,113.737"/>
		</g>
		<g id="Group-10" transform="translate(20 40.1631)">
			<path id="Clip-9" fill="none" d="M25.9,64.229c0,3.599,2.917,6.513,6.512,6.513l0,0c3.599,0,6.513-2.914,6.513-6.513l0,0
				c0-3.598-2.915-6.512-6.513-6.512l0,0C28.817,57.717,25.9,60.63,25.9,64.229"/>
			<g>
				<defs>
					<path id="SVGID_1_" d="M25.9,64.229c0,3.599,2.917,6.513,6.512,6.513l0,0c3.599,0,6.513-2.914,6.513-6.513l0,0
						c0-3.598-2.915-6.512-6.513-6.512l0,0C28.817,57.717,25.9,60.63,25.9,64.229"/>
				</defs>
				<clipPath id="SVGID_2_">
					<use xlink:href="#SVGID_1_"  overflow="visible"/>
				</clipPath>
				<g clip-path="url(#SVGID_2_)">
					
						<linearGradient id="Fill-8_1_" gradientUnits="userSpaceOnUse" x1="-824.4111" y1="559.7236" x2="-822.3516" y2="559.7236" gradientTransform="matrix(6.324 0 0 -6.324 5239.4746 3603.9209)">
						<stop  offset="0" style="stop-color:#8DCB86"/>
						<stop  offset="1" style="stop-color:#5DCAE8"/>
					</linearGradient>
					<path id="Fill-8" fill="url(#Fill-8_1_)" d="M25.9,64.229c0,3.599,2.917,6.513,6.512,6.513l0,0
						c3.599,0,6.513-2.914,6.513-6.513l0,0c0-3.598-2.915-6.512-6.513-6.512l0,0C28.817,57.717,25.9,60.63,25.9,64.229"/>
				</g>
			</g>
		</g>
		<g id="Group-13" transform="translate(20 52.1631)">
			<path id="Clip-12" fill="none" d="M25.9,75.841c0,3.597,2.917,6.518,6.512,6.518l0,0c3.599,0,6.513-2.921,6.513-6.518l0,0
				c0-3.597-2.915-6.513-6.513-6.513l0,0C28.817,69.328,25.9,72.244,25.9,75.841"/>
			<g>
				<defs>
					<path id="SVGID_3_" d="M25.9,75.841c0,3.597,2.917,6.518,6.512,6.518l0,0c3.599,0,6.513-2.921,6.513-6.518l0,0
						c0-3.597-2.915-6.513-6.513-6.513l0,0C28.817,69.328,25.9,72.244,25.9,75.841"/>
				</defs>
				<clipPath id="SVGID_4_">
					<use xlink:href="#SVGID_3_"  overflow="visible"/>
				</clipPath>
				<g clip-path="url(#SVGID_4_)">
					
						<linearGradient id="Fill-11_1_" gradientUnits="userSpaceOnUse" x1="-824.4111" y1="545.8096" x2="-822.3516" y2="545.8096" gradientTransform="matrix(6.324 0 0 -6.325 5239.4746 3528.0857)">
						<stop  offset="0" style="stop-color:#8DCB86"/>
						<stop  offset="1" style="stop-color:#5DCAE8"/>
					</linearGradient>
					<path id="Fill-11" fill="url(#Fill-11_1_)" d="M25.9,75.841c0,3.597,2.917,6.518,6.512,6.518l0,0
						c3.599,0,6.513-2.921,6.513-6.518l0,0c0-3.597-2.915-6.513-6.513-6.513l0,0C28.817,69.328,25.9,72.244,25.9,75.841"/>
				</g>
			</g>
		</g>
		<g id="Group-16" transform="translate(20 64.1631)">
			<path id="Clip-15" fill="none" d="M25.9,89.453c0,3.595,2.917,6.515,6.512,6.515l0,0c3.599,0,6.513-2.92,6.513-6.515l0,0
				c0-3.599-2.915-6.511-6.513-6.511l0,0C28.817,82.942,25.9,85.854,25.9,89.453"/>
			<g>
				<defs>
					<path id="SVGID_5_" d="M25.9,89.453c0,3.595,2.917,6.515,6.512,6.515l0,0c3.599,0,6.513-2.92,6.513-6.515l0,0
						c0-3.599-2.915-6.511-6.513-6.511l0,0C28.817,82.942,25.9,85.854,25.9,89.453"/>
				</defs>
				<clipPath id="SVGID_6_">
					<use xlink:href="#SVGID_5_"  overflow="visible"/>
				</clipPath>
				<g clip-path="url(#SVGID_6_)">
					
						<linearGradient id="Fill-14_1_" gradientUnits="userSpaceOnUse" x1="-824.4111" y1="531.7188" x2="-822.3516" y2="531.7188" gradientTransform="matrix(6.324 0 0 -6.324 5239.4746 3452.0435)">
						<stop  offset="0" style="stop-color:#8DCB86"/>
						<stop  offset="1" style="stop-color:#5DCAE8"/>
					</linearGradient>
					<path id="Fill-14" fill="url(#Fill-14_1_)" d="M25.9,89.453c0,3.595,2.917,6.515,6.512,6.515l0,0
						c3.599,0,6.513-2.92,6.513-6.515l0,0c0-3.599-2.915-6.511-6.513-6.511l0,0C28.817,82.942,25.9,85.854,25.9,89.453"/>
				</g>
			</g>
		</g>
		<g id="Group-19" transform="translate(13 0.1631)">
			<path id="Clip-18" fill="none" d="M17.69,36.833c0-11.917,9.695-21.613,21.613-21.613h83.643
				c11.916,0,21.611,9.695,21.611,21.613V162.81c0,11.919-9.695,21.614-21.611,21.614H39.304c-11.918,0-21.613-9.695-21.613-21.614
				V36.833z M24.064,36.833V162.81c0,8.402,6.836,15.241,15.24,15.241h83.643c8.403,0,15.238-6.839,15.238-15.241V36.833
				c0-8.401-6.835-15.24-15.238-15.24H39.304C30.9,21.593,24.064,28.432,24.064,36.833z"/>
			<g>
				<defs>
					<path id="SVGID_7_" d="M17.69,36.833c0-11.917,9.695-21.613,21.613-21.613h83.643c11.916,0,21.611,9.695,21.611,21.613V162.81
						c0,11.919-9.695,21.614-21.611,21.614H39.304c-11.918,0-21.613-9.695-21.613-21.614V36.833z M24.064,36.833V162.81
						c0,8.402,6.836,15.241,15.24,15.241h83.643c8.403,0,15.238-6.839,15.238-15.241V36.833c0-8.401-6.835-15.24-15.238-15.24
						H39.304C30.9,21.593,24.064,28.432,24.064,36.833z"/>
				</defs>
				<clipPath id="SVGID_8_">
					<use xlink:href="#SVGID_7_"  overflow="visible"/>
				</clipPath>
				<g clip-path="url(#SVGID_8_)">
					
						<linearGradient id="Fill-17_1_" gradientUnits="userSpaceOnUse" x1="-866.1479" y1="638.3066" x2="-864.668" y2="635.8992" gradientTransform="matrix(61.594 0 0 -82.148 53390.2578 52447.6367)">
						<stop  offset="0" style="stop-color:#8DCB86"/>
						<stop  offset="1" style="stop-color:#5DCAE8"/>
					</linearGradient>
					<path id="Fill-17" fill="url(#Fill-17_1_)" d="M17.69,36.833c0-11.917,9.695-21.613,21.613-21.613h83.643
						c11.916,0,21.611,9.695,21.611,21.613V162.81c0,11.919-9.695,21.614-21.611,21.614H39.304
						c-11.918,0-21.613-9.695-21.613-21.614V36.833z M24.064,36.833V162.81c0,8.402,6.836,15.241,15.24,15.241h83.643
						c8.403,0,15.238-6.839,15.238-15.241V36.833c0-8.401-6.835-15.24-15.238-15.24H39.304C30.9,21.593,24.064,28.432,24.064,36.833
						z"/>
				</g>
			</g>
		</g>
		<g id="Group-22" transform="translate(0 28.1631)">
			<path id="Clip-21" fill="none" d="M14.967,45.401c-0.43,0.373-10.53,9.294-11.159,24.762l0,0
				c-0.344,2.305-2.75,21.079,9.407,27.256l0,0c0.222,0.112,0.453,0.196,0.688,0.249l0,0v55.697c0,1.705,1.384,3.088,3.089,3.088
				l0,0c1.706,0,3.089-1.383,3.089-3.088l0,0V47.735c0-1.209-0.706-2.306-1.806-2.809l0,0c-0.412-0.188-0.849-0.28-1.285-0.28l0,0
				C16.263,44.645,15.542,44.904,14.967,45.401 M9.938,70.96c0.02-0.127,0.035-0.259,0.039-0.39l0,0
				c0.203-5.687,1.991-10.354,3.925-13.788l0,0V90.42C7.803,84.643,9.912,71.11,9.938,70.96"/>
			<g>
				<defs>
					<path id="SVGID_9_" d="M14.967,45.401c-0.43,0.373-10.53,9.294-11.159,24.762l0,0c-0.344,2.305-2.75,21.079,9.407,27.256l0,0
						c0.222,0.112,0.453,0.196,0.688,0.249l0,0v55.697c0,1.705,1.384,3.088,3.089,3.088l0,0c1.706,0,3.089-1.383,3.089-3.088l0,0
						V47.735c0-1.209-0.706-2.306-1.806-2.809l0,0c-0.412-0.188-0.849-0.28-1.285-0.28l0,0
						C16.263,44.645,15.542,44.904,14.967,45.401 M9.938,70.96c0.02-0.127,0.035-0.259,0.039-0.39l0,0
						c0.203-5.687,1.991-10.354,3.925-13.788l0,0V90.42C7.803,84.643,9.912,71.11,9.938,70.96"/>
				</defs>
				<clipPath id="SVGID_10_">
					<use xlink:href="#SVGID_9_"  overflow="visible"/>
				</clipPath>
				<g clip-path="url(#SVGID_10_)">
					
						<linearGradient id="Fill-20_1_" gradientUnits="userSpaceOnUse" x1="-822.0928" y1="608.8857" x2="-810.8486" y2="605.2437" gradientTransform="matrix(8.1045 0 0 -54.283 6641.833 33070.6719)">
						<stop  offset="0" style="stop-color:#8DCB86"/>
						<stop  offset="1" style="stop-color:#5DCAE8"/>
					</linearGradient>
					<path id="Fill-20" fill="url(#Fill-20_1_)" d="M14.967,45.401c-0.43,0.373-10.53,9.294-11.159,24.762l0,0
						c-0.344,2.305-2.75,21.079,9.407,27.256l0,0c0.222,0.112,0.453,0.196,0.688,0.249l0,0v55.697c0,1.705,1.384,3.088,3.089,3.088
						l0,0c1.706,0,3.089-1.383,3.089-3.088l0,0V47.735c0-1.209-0.706-2.306-1.806-2.809l0,0c-0.412-0.188-0.849-0.28-1.285-0.28l0,0
						C16.263,44.645,15.542,44.904,14.967,45.401 M9.938,70.96c0.02-0.127,0.035-0.259,0.039-0.39l0,0
						c0.203-5.687,1.991-10.354,3.925-13.788l0,0V90.42C7.803,84.643,9.912,71.11,9.938,70.96"/>
				</g>
			</g>
		</g>
		<g id="Group-25" transform="translate(79 31.1631)">
			<path id="Clip-24" fill="none" d="M111.433,49.888v26.871c0,4.966-4.044,9.012-9.012,9.012l0,0c-4.968,0-9.011-4.046-9.011-9.012
				l0,0V49.888c0-1.705-1.384-3.09-3.09-3.09l0,0c-1.706,0-3.09,1.385-3.09,3.09l0,0v26.871c0,7.314,5.201,13.438,12.102,14.873l0,0
				v58.734c0,1.705,1.383,3.088,3.089,3.088l0,0c1.705,0,3.09-1.383,3.09-3.088l0,0V91.632c6.899-1.435,12.102-7.559,12.102-14.873
				l0,0V49.888c0-1.705-1.385-3.09-3.09-3.09l0,0C112.816,46.798,111.433,48.183,111.433,49.888"/>
			<g>
				<defs>
					<path id="SVGID_11_" d="M111.433,49.888v26.871c0,4.966-4.044,9.012-9.012,9.012l0,0c-4.968,0-9.011-4.046-9.011-9.012l0,0
						V49.888c0-1.705-1.384-3.09-3.09-3.09l0,0c-1.706,0-3.09,1.385-3.09,3.09l0,0v26.871c0,7.314,5.201,13.438,12.102,14.873l0,0
						v58.734c0,1.705,1.383,3.088,3.089,3.088l0,0c1.705,0,3.09-1.383,3.09-3.088l0,0V91.632
						c6.899-1.435,12.102-7.559,12.102-14.873l0,0V49.888c0-1.705-1.385-3.09-3.09-3.09l0,0
						C112.816,46.798,111.433,48.183,111.433,49.888"/>
				</defs>
				<clipPath id="SVGID_12_">
					<use xlink:href="#SVGID_11_"  overflow="visible"/>
				</clipPath>
				<g clip-path="url(#SVGID_12_)">
					
						<linearGradient id="Fill-23_1_" gradientUnits="userSpaceOnUse" x1="-913.6162" y1="606.9873" x2="-907.4367" y2="603.1685" gradientTransform="matrix(14.75 0 0 -51.781 13515.6016 31381.5273)">
						<stop  offset="0" style="stop-color:#8DCB86"/>
						<stop  offset="1" style="stop-color:#5DCAE8"/>
					</linearGradient>
					<path id="Fill-23" fill="url(#Fill-23_1_)" d="M111.433,49.888v26.871c0,4.966-4.044,9.012-9.012,9.012l0,0
						c-4.968,0-9.011-4.046-9.011-9.012l0,0V49.888c0-1.705-1.384-3.09-3.09-3.09l0,0c-1.706,0-3.09,1.385-3.09,3.09l0,0v26.871
						c0,7.314,5.201,13.438,12.102,14.873l0,0v58.734c0,1.705,1.383,3.088,3.089,3.088l0,0c1.705,0,3.09-1.383,3.09-3.088l0,0
						V91.632c6.899-1.435,12.102-7.559,12.102-14.873l0,0V49.888c0-1.705-1.385-3.09-3.09-3.09l0,0
						C112.816,46.798,111.433,48.183,111.433,49.888"/>
				</g>
			</g>
		</g>
		<g id="Group-28" transform="translate(84 31.1631)">
			<path id="Clip-27" fill="none" d="M94.332,49.888v24.081c0,1.703,1.383,3.088,3.089,3.088l0,0c1.705,0,3.09-1.385,3.09-3.088l0,0
				V49.888c0-1.705-1.385-3.09-3.09-3.09l0,0C95.715,46.798,94.332,48.183,94.332,49.888"/>
			<g>
				<defs>
					<path id="SVGID_13_" d="M94.332,49.888v24.081c0,1.703,1.383,3.088,3.089,3.088l0,0c1.705,0,3.09-1.385,3.09-3.088l0,0V49.888
						c0-1.705-1.385-3.09-3.09-3.09l0,0C95.715,46.798,94.332,48.183,94.332,49.888"/>
				</defs>
				<clipPath id="SVGID_14_">
					<use xlink:href="#SVGID_13_"  overflow="visible"/>
				</clipPath>
				<g clip-path="url(#SVGID_14_)">
					
						<linearGradient id="Fill-26_1_" gradientUnits="userSpaceOnUse" x1="-821.8906" y1="600.0918" x2="-791.511" y2="586.632" gradientTransform="matrix(3 0 0 -14.69 2509.9766 8762.0615)">
						<stop  offset="0" style="stop-color:#8DCB86"/>
						<stop  offset="1" style="stop-color:#5DCAE8"/>
					</linearGradient>
					<path id="Fill-26" fill="url(#Fill-26_1_)" d="M94.332,49.888v24.081c0,1.703,1.383,3.088,3.089,3.088l0,0
						c1.705,0,3.09-1.385,3.09-3.088l0,0V49.888c0-1.705-1.385-3.09-3.09-3.09l0,0C95.715,46.798,94.332,48.183,94.332,49.888"/>
				</g>
			</g>
		</g>
		<g id="Group-31" transform="translate(25 17.1631)">
			<path id="Clip-30" fill="none" d="M32.506,33.524c-2.021,1.176-2.632,3.729-1.537,5.796l0,0c0.921,1.729,2.965,2.121,2.965,2.121
				l0,0c0.44,0.129,2.236,0.633,2.94,1.841l0,0c0.704,1.211,0.247,3.02,0.141,3.462l0,0c0,0-0.67,1.974,0.377,3.63l0,0
				c1.252,1.976,3.771,2.712,5.794,1.536l0,0c2.026-1.177,2.635-3.728,1.537-5.795l0,0c-0.916-1.732-2.961-2.122-2.961-2.122l0,0
				c-0.439-0.132-2.237-0.632-2.94-1.843l0,0c-0.702-1.209-0.247-3.02-0.144-3.467l0,0c0,0,0.674-1.969-0.375-3.623l0,0
				c-0.844-1.332-2.261-2.101-3.715-2.101l0,0C33.882,32.96,33.17,33.139,32.506,33.524"/>
			<g>
				<defs>
					<path id="SVGID_15_" d="M32.506,33.524c-2.021,1.176-2.632,3.729-1.537,5.796l0,0c0.921,1.729,2.965,2.121,2.965,2.121l0,0
						c0.44,0.129,2.236,0.633,2.94,1.841l0,0c0.704,1.211,0.247,3.02,0.141,3.462l0,0c0,0-0.67,1.974,0.377,3.63l0,0
						c1.252,1.976,3.771,2.712,5.794,1.536l0,0c2.026-1.177,2.635-3.728,1.537-5.795l0,0c-0.916-1.732-2.961-2.122-2.961-2.122l0,0
						c-0.439-0.132-2.237-0.632-2.94-1.843l0,0c-0.702-1.209-0.247-3.02-0.144-3.467l0,0c0,0,0.674-1.969-0.375-3.623l0,0
						c-0.844-1.332-2.261-2.101-3.715-2.101l0,0C33.882,32.96,33.17,33.139,32.506,33.524"/>
				</defs>
				<clipPath id="SVGID_16_">
					<use xlink:href="#SVGID_15_"  overflow="visible"/>
				</clipPath>
				<g clip-path="url(#SVGID_16_)">
					
						<linearGradient id="Fill-29_1_" gradientUnits="userSpaceOnUse" x1="-835.3799" y1="598.6455" x2="-833.3203" y2="598.6455" gradientTransform="matrix(7.2012 0 0 -9.4746 6046.1875 5714.6509)">
						<stop  offset="0" style="stop-color:#8DCB86"/>
						<stop  offset="1" style="stop-color:#5DCAE8"/>
					</linearGradient>
					<path id="Fill-29" fill="url(#Fill-29_1_)" d="M32.506,33.524c-2.021,1.176-2.632,3.729-1.537,5.796l0,0
						c0.921,1.729,2.965,2.121,2.965,2.121l0,0c0.44,0.129,2.236,0.633,2.94,1.841l0,0c0.704,1.211,0.247,3.02,0.141,3.462l0,0
						c0,0-0.67,1.974,0.377,3.63l0,0c1.252,1.976,3.771,2.712,5.794,1.536l0,0c2.026-1.177,2.635-3.728,1.537-5.795l0,0
						c-0.916-1.732-2.961-2.122-2.961-2.122l0,0c-0.439-0.132-2.237-0.632-2.94-1.843l0,0c-0.702-1.209-0.247-3.02-0.144-3.467l0,0
						c0,0,0.674-1.969-0.375-3.623l0,0c-0.844-1.332-2.261-2.101-3.715-2.101l0,0C33.882,32.96,33.17,33.139,32.506,33.524"/>
				</g>
			</g>
		</g>
		<g id="Group-34" transform="translate(22 23.1631)">
			<path id="Clip-33" fill="none" d="M28.219,39.375c-1.151,1.271-1.417,3.188-0.665,4.725l0,0c0.761,1.562,2.491,2.521,4.217,2.356
				l0,0c1.772-0.169,3.304-1.504,3.724-3.233l0,0c0.438-1.802-0.415-3.762-2.025-4.682l0,0C32.831,38.177,32.11,38,31.391,38l0,0
				C30.211,38,29.033,38.478,28.219,39.375"/>
			<g>
				<defs>
					<path id="SVGID_17_" d="M28.219,39.375c-1.151,1.271-1.417,3.188-0.665,4.725l0,0c0.761,1.562,2.491,2.521,4.217,2.356l0,0
						c1.772-0.169,3.304-1.504,3.724-3.233l0,0c0.438-1.802-0.415-3.762-2.025-4.682l0,0C32.831,38.177,32.11,38,31.391,38l0,0
						C30.211,38,29.033,38.478,28.219,39.375"/>
				</defs>
				<clipPath id="SVGID_18_">
					<use xlink:href="#SVGID_17_"  overflow="visible"/>
				</clipPath>
				<g clip-path="url(#SVGID_18_)">
					
						<linearGradient id="Fill-32_1_" gradientUnits="userSpaceOnUse" x1="-796.7285" y1="559.7949" x2="-794.6685" y2="559.7949" gradientTransform="matrix(4.1162 0 0 -4.1149 3306.6389 2345.7368)">
						<stop  offset="0" style="stop-color:#8DCB86"/>
						<stop  offset="1" style="stop-color:#5DCAE8"/>
					</linearGradient>
					<path id="Fill-32" fill="url(#Fill-32_1_)" d="M28.219,39.375c-1.151,1.271-1.417,3.188-0.665,4.725l0,0
						c0.761,1.562,2.491,2.521,4.217,2.356l0,0c1.772-0.169,3.304-1.504,3.724-3.233l0,0c0.438-1.802-0.415-3.762-2.025-4.682l0,0
						C32.831,38.177,32.11,38,31.391,38l0,0C30.211,38,29.033,38.478,28.219,39.375"/>
				</g>
			</g>
		</g>
		<g id="Group-37" transform="translate(28 12.1631)">
			<path id="Clip-36" fill="none" d="M35.793,27.52c-2.026,1.179-2.633,3.727-1.537,5.799l0,0c0.918,1.729,2.964,2.121,2.964,2.121
				l0,0c0.438,0.13,2.237,0.628,2.94,1.842l0,0c0.704,1.21,0.246,3.017,0.144,3.465l0,0c0,0-0.666,1.952,0.358,3.6l0,0
				c0.925,1.707,2.952,2.095,2.952,2.095l0,0c0.435,0.128,2.233,0.632,2.935,1.84l0,0c0.705,1.212,0.247,3.02,0.145,3.462l0,0
				c0,0-0.672,1.974,0.374,3.63l0,0c1.255,1.976,3.771,2.712,5.797,1.537l0,0c2.026-1.178,2.633-3.729,1.538-5.796l0,0
				c-0.921-1.732-2.964-2.122-2.964-2.122l0,0c-0.439-0.132-2.237-0.632-2.941-1.843l0,0c-0.7-1.209-0.247-3.02-0.143-3.467l0,0
				c0,0,0.668-1.948-0.36-3.596l0,0c-0.922-1.707-2.95-2.095-2.95-2.095l0,0c-0.437-0.131-2.232-0.632-2.936-1.842l0,0
				c-0.705-1.21-0.248-3.021-0.142-3.465l0,0c0,0,0.673-1.971-0.377-3.627l0,0c-0.844-1.333-2.263-2.101-3.718-2.101l0,0
				C37.167,26.956,36.454,27.138,35.793,27.52"/>
			<g>
				<defs>
					<path id="SVGID_19_" d="M35.793,27.52c-2.026,1.179-2.633,3.727-1.537,5.799l0,0c0.918,1.729,2.964,2.121,2.964,2.121l0,0
						c0.438,0.13,2.237,0.628,2.94,1.842l0,0c0.704,1.21,0.246,3.017,0.144,3.465l0,0c0,0-0.666,1.952,0.358,3.6l0,0
						c0.925,1.707,2.952,2.095,2.952,2.095l0,0c0.435,0.128,2.233,0.632,2.935,1.84l0,0c0.705,1.212,0.247,3.02,0.145,3.462l0,0
						c0,0-0.672,1.974,0.374,3.63l0,0c1.255,1.976,3.771,2.712,5.797,1.537l0,0c2.026-1.178,2.633-3.729,1.538-5.796l0,0
						c-0.921-1.732-2.964-2.122-2.964-2.122l0,0c-0.439-0.132-2.237-0.632-2.941-1.843l0,0c-0.7-1.209-0.247-3.02-0.143-3.467l0,0
						c0,0,0.668-1.948-0.36-3.596l0,0c-0.922-1.707-2.95-2.095-2.95-2.095l0,0c-0.437-0.131-2.232-0.632-2.936-1.842l0,0
						c-0.705-1.21-0.248-3.021-0.142-3.465l0,0c0,0,0.673-1.971-0.377-3.627l0,0c-0.844-1.333-2.263-2.101-3.718-2.101l0,0
						C37.167,26.956,36.454,27.138,35.793,27.52"/>
				</defs>
				<clipPath id="SVGID_20_">
					<use xlink:href="#SVGID_19_"  overflow="visible"/>
				</clipPath>
				<g clip-path="url(#SVGID_20_)">
					
						<linearGradient id="Fill-35_1_" gradientUnits="userSpaceOnUse" x1="-852.7065" y1="612.7393" x2="-850.6465" y2="612.7393" gradientTransform="matrix(10.304 0 0 -14.8166 8819.9746 9120.9268)">
						<stop  offset="0" style="stop-color:#8DCB86"/>
						<stop  offset="1" style="stop-color:#5DCAE8"/>
					</linearGradient>
					<path id="Fill-35" fill="url(#Fill-35_1_)" d="M35.793,27.52c-2.026,1.179-2.633,3.727-1.537,5.799l0,0
						c0.918,1.729,2.964,2.121,2.964,2.121l0,0c0.438,0.13,2.237,0.628,2.94,1.842l0,0c0.704,1.21,0.246,3.017,0.144,3.465l0,0
						c0,0-0.666,1.952,0.358,3.6l0,0c0.925,1.707,2.952,2.095,2.952,2.095l0,0c0.435,0.128,2.233,0.632,2.935,1.84l0,0
						c0.705,1.212,0.247,3.02,0.145,3.462l0,0c0,0-0.672,1.974,0.374,3.63l0,0c1.255,1.976,3.771,2.712,5.797,1.537l0,0
						c2.026-1.178,2.633-3.729,1.538-5.796l0,0c-0.921-1.732-2.964-2.122-2.964-2.122l0,0c-0.439-0.132-2.237-0.632-2.941-1.843l0,0
						c-0.7-1.209-0.247-3.02-0.143-3.467l0,0c0,0,0.668-1.948-0.36-3.596l0,0c-0.922-1.707-2.95-2.095-2.95-2.095l0,0
						c-0.437-0.131-2.232-0.632-2.936-1.842l0,0c-0.705-1.21-0.248-3.021-0.142-3.465l0,0c0,0,0.673-1.971-0.377-3.627l0,0
						c-0.844-1.333-2.263-2.101-3.718-2.101l0,0C37.167,26.956,36.454,27.138,35.793,27.52"/>
				</g>
			</g>
		</g>
		<g id="Group-44" transform="translate(43 17.1631)">
			<path id="Fill-38" fill="#FFFFFF" d="M62.478,32.845v3.643h-7.766v4.148h6.001v3.483h-6.001v7.656h-4.579v-18.93H62.478z"/>
			<path id="Fill-40" fill="#FFFFFF" d="M72.68,38.468c0-1.465-0.634-2.196-1.901-2.196c-0.714,0-1.234,0.251-1.566,0.75
				c-0.33,0.501-0.514,1.277-0.548,2.33H64.19c0.109-2.302,0.806-4.033,2.091-5.195c1.285-1.16,2.909-1.74,4.873-1.74
				c2.052,0,3.601,0.517,4.646,1.553c1.042,1.034,1.563,2.382,1.563,4.043c0,1.839-0.701,3.638-2.113,5.395
				c-1.41,1.759-3.099,3.246-5.062,4.458h7.471v3.696H64.164v-3.427C69.843,44.083,72.68,40.859,72.68,38.468"/>
			<path id="Fill-42" fill="#FFFFFF" d="M89.896,32.697c0.946,0.457,1.666,1.079,2.156,1.874c0.489,0.796,0.737,1.692,0.737,2.692
				c0,1.23-0.318,2.223-0.952,2.973c-0.633,0.748-1.422,1.224-2.368,1.419v0.134c2.445,0.785,3.668,2.311,3.668,4.579
				c0,1.087-0.252,2.057-0.751,2.904c-0.498,0.849-1.227,1.507-2.182,1.981c-0.953,0.474-2.103,0.711-3.439,0.711
				c-2.179,0-3.905-0.537-5.185-1.609c-1.274-1.069-1.967-2.702-2.071-4.9h4.47c0.038,0.843,0.27,1.501,0.696,1.981
				c0.43,0.484,1.055,0.726,1.874,0.726c0.66,0,1.184-0.198,1.569-0.589c0.38-0.394,0.574-0.902,0.574-1.528
				c0-1.551-1.126-2.327-3.377-2.327h-0.854v-3.722h0.829c2.018,0.037,3.024-0.688,3.024-2.171c0-0.641-0.172-1.136-0.521-1.482
				c-0.346-0.348-0.814-0.524-1.406-0.524c-0.644,0-1.15,0.218-1.524,0.656c-0.374,0.438-0.59,1.021-0.644,1.755h-4.472
				c0.088-2,0.715-3.535,1.873-4.608c1.162-1.069,2.788-1.604,4.876-1.604C87.817,32.016,88.952,32.242,89.896,32.697"/>
		</g>
	</g>
</g>
</svg>
