<?xml version="1.0" encoding="utf-8"?>
<!-- Generator: Adobe Illustrator 15.0.0, SVG Export Plug-In . SVG Version: 6.00 Build 0)  -->
<!DOCTYPE svg PUBLIC "-//W3C//DTD SVG 1.1//EN" "http://www.w3.org/Graphics/SVG/1.1/DTD/svg11.dtd">
<svg version="1.1" id="provetta" xmlns="http://www.w3.org/2000/svg" xmlns:xlink="http://www.w3.org/1999/xlink" x="0px" y="0px"
	 width="200px" height="200px" viewBox="0 0 200 200" enable-background="new 0 0 200 200" xml:space="preserve">
<g id="provetta_1_">
	<g id="Group-10_1_">
		<g id="Group-3_1_" transform="translate(7 42.2583)">
			<path id="Clip-2_1_" fill="none" d="M79.827,114.833c0,7.274,5.898,13.171,13.172,13.171l0,0c7.276,0,13.176-5.896,13.176-13.171
				l0,0V72.378c0,0-21.843-2.106-26.348-5.143l0,0V114.833z"/>
			<g>
				<defs>
					<path id="SVGID_1_" d="M79.827,114.833c0,7.274,5.898,13.171,13.172,13.171l0,0c7.276,0,13.176-5.896,13.176-13.171l0,0V72.378
						c0,0-21.843-2.106-26.348-5.143l0,0V114.833z"/>
				</defs>
				<clipPath id="SVGID_2_">
					<use xlink:href="#SVGID_1_"  overflow="visible"/>
				</clipPath>
				<g clip-path="url(#SVGID_2_)">
					
						<linearGradient id="Fill-1_1_" gradientUnits="userSpaceOnUse" x1="-835.3574" y1="591.6362" x2="-829.2621" y2="586.6815" gradientTransform="matrix(11.761 0 0 -27.128 9865.0752 16046.6152)">
						<stop  offset="0" style="stop-color:#8DCB86"/>
						<stop  offset="1" style="stop-color:#5DCAE8"/>
					</linearGradient>
					<path id="Fill-1_2_" fill="url(#Fill-1_1_)" d="M79.827,114.833c0,7.274,5.898,13.171,13.172,13.171l0,0
						c7.276,0,13.176-5.896,13.176-13.171l0,0V72.378c0,0-21.843-2.106-26.348-5.143l0,0V114.833z"/>
				</g>
			</g>
		</g>
		<g id="Group-6_1_" transform="translate(0 0.2583)">
			<path id="Clip-5_1_" fill="none" d="M77.123,15.45c-3.329,0.084-6.004,2.811-6.004,6.16l0,0v3.132h57.761V21.61
				c0-3.349-2.676-6.076-6.003-6.16l0,0H77.123z"/>
			<g>
				<defs>
					<path id="SVGID_3_" d="M77.123,15.45c-3.329,0.084-6.004,2.811-6.004,6.16l0,0v3.132h57.761V21.61
						c0-3.349-2.676-6.076-6.003-6.16l0,0H77.123z"/>
				</defs>
				<clipPath id="SVGID_4_">
					<use xlink:href="#SVGID_3_"  overflow="visible"/>
				</clipPath>
				<g clip-path="url(#SVGID_4_)">
					
						<linearGradient id="Fill-4_2_" gradientUnits="userSpaceOnUse" x1="-842.9019" y1="590.3101" x2="-840.1215" y2="557.9042" gradientTransform="matrix(25.785 0 0 -4.148 21829.3555 2461.8799)">
						<stop  offset="0" style="stop-color:#8DCB86"/>
						<stop  offset="1" style="stop-color:#5DCAE8"/>
					</linearGradient>
					<path id="Fill-4_1_" fill="url(#Fill-4_2_)" d="M77.123,15.45c-3.329,0.084-6.004,2.811-6.004,6.16l0,0v3.132h57.761V21.61
						c0-3.349-2.676-6.076-6.003-6.16l0,0H77.123z"/>
				</g>
			</g>
		</g>
		<g id="Group-9_2_" transform="translate(0 7.2583)">
			<path id="Clip-8_1_" fill="none" d="M71.119,26.764v-3.129h57.761v3.129c0,2.642-1.666,4.873-4,5.75
				c0.025,0.177,0.055,0.354,0.055,0.538v119.051c0,13.747-11.185,24.93-24.936,24.93c-13.748,0-24.933-11.183-24.933-24.93V33.053
				c0-0.184,0.027-0.361,0.054-0.538C72.786,31.64,71.119,29.406,71.119,26.764z M81.787,33.053v119.051
				c0,10.041,8.172,18.21,18.212,18.21c10.043,0,18.215-8.169,18.215-18.21V85.582H97.889c-1.855,0-3.358-1.504-3.358-3.36
				c0-1.854,1.503-3.362,3.358-3.362h20.325V68.238H97.889c-1.855,0-3.358-1.505-3.358-3.362c0-1.855,1.503-3.358,3.358-3.358
				h20.325V50.893H97.889c-1.855,0-3.358-1.507-3.358-3.362c0-1.853,1.503-3.36,3.358-3.36h20.325V33.053
				c0-0.045,0.009-0.083,0.014-0.125H81.775C81.775,32.969,81.787,33.008,81.787,33.053z"/>
			<g>
				<defs>
					<path id="SVGID_5_" d="M71.119,26.764v-3.129h57.761v3.129c0,2.642-1.666,4.873-4,5.75c0.025,0.177,0.055,0.354,0.055,0.538
						v119.051c0,13.747-11.185,24.93-24.936,24.93c-13.748,0-24.933-11.183-24.933-24.93V33.053c0-0.184,0.027-0.361,0.054-0.538
						C72.786,31.64,71.119,29.406,71.119,26.764z M81.787,33.053v119.051c0,10.041,8.172,18.21,18.212,18.21
						c10.043,0,18.215-8.169,18.215-18.21V85.582H97.889c-1.855,0-3.358-1.504-3.358-3.36c0-1.854,1.503-3.362,3.358-3.362h20.325
						V68.238H97.889c-1.855,0-3.358-1.505-3.358-3.362c0-1.855,1.503-3.358,3.358-3.358h20.325V50.893H97.889
						c-1.855,0-3.358-1.507-3.358-3.362c0-1.853,1.503-3.36,3.358-3.36h20.325V33.053c0-0.045,0.009-0.083,0.014-0.125H81.775
						C81.775,32.969,81.787,33.008,81.787,33.053z"/>
				</defs>
				<clipPath id="SVGID_6_">
					<use xlink:href="#SVGID_5_"  overflow="visible"/>
				</clipPath>
				<g clip-path="url(#SVGID_6_)">
					
						<linearGradient id="Fill-7_1_" gradientUnits="userSpaceOnUse" x1="-844.0596" y1="630.5532" x2="-841.2795" y2="628.5905" gradientTransform="matrix(25.785 0 0 -68.479 21829.3555 43201.8281)">
						<stop  offset="0" style="stop-color:#8DCB86"/>
						<stop  offset="1" style="stop-color:#5DCAE8"/>
					</linearGradient>
					<path id="Fill-7" fill="url(#Fill-7_1_)" d="M71.119,26.764v-3.129h57.761v3.129c0,2.642-1.666,4.873-4,5.75
						c0.025,0.177,0.055,0.354,0.055,0.538v119.051c0,13.747-11.185,24.93-24.936,24.93c-13.748,0-24.933-11.183-24.933-24.93
						V33.053c0-0.184,0.027-0.361,0.054-0.538C72.786,31.64,71.119,29.406,71.119,26.764z M81.787,33.053v119.051
						c0,10.041,8.172,18.21,18.212,18.21c10.043,0,18.215-8.169,18.215-18.21V85.582H97.889c-1.855,0-3.358-1.504-3.358-3.36
						c0-1.854,1.503-3.362,3.358-3.362h20.325V68.238H97.889c-1.855,0-3.358-1.505-3.358-3.362c0-1.855,1.503-3.358,3.358-3.358
						h20.325V50.893H97.889c-1.855,0-3.358-1.507-3.358-3.362c0-1.853,1.503-3.36,3.358-3.36h20.325V33.053
						c0-0.045,0.009-0.083,0.014-0.125H81.775C81.775,32.969,81.787,33.008,81.787,33.053z"/>
				</g>
			</g>
		</g>
	</g>
</g>
</svg>
