<?xml version="1.0" encoding="utf-8"?>
<svg width="22px" height="24px" viewBox="0 0 22 24" version="1.1" xmlns:xlink="http://www.w3.org/1999/xlink" xmlns="http://www.w3.org/2000/svg">
  <desc>Created with Lunacy</desc>
  <defs>
    <linearGradient x1="0" y1="0.499999821" x2="0.9999993" y2="0.499999821" id="gradient_1">
      <stop offset="0" stop-color="#69FF97" />
      <stop offset="1" stop-color="#00E4FF" />
    </linearGradient>
    <path d="M8.79574 0.416727L4.49174 6.38073L1.78574 2.63127C1.44374 2.15782 0.814741 2.07818 0.381741 2.448L0.381741 2.448C-0.0522592 2.82109 -0.127259 3.50727 0.213741 3.98073L0.213741 3.98073L3.70574 8.81891C3.89674 9.08182 4.18574 9.23564 4.49174 9.23564L4.49174 9.23564C4.79774 9.23564 5.08774 9.08182 5.27774 8.81891L5.27774 8.81891L10.3677 1.76509C10.7087 1.29273 10.6347 0.606545 10.1997 0.233455L10.1997 0.233455C10.0167 0.0763636 9.79874 0 9.58274 0L9.58274 0C9.28674 0 8.99274 0.142909 8.79574 0.416727" transform="translate(0.3762592 0.9469092)" id="path_1" />
    <path d="M0 11.6367C0 5.22 4.785 0 10.667 0C16.549 0 21.334 5.22 21.334 11.6367C21.334 18.0524 16.549 23.2724 10.667 23.2724C4.785 23.2724 0 18.0524 0 11.6367ZM10.667 2.18182C5.888 2.18182 2 6.42218 2 11.6367C2 16.8491 5.888 21.0905 10.667 21.0905C15.447 21.0905 19.334 16.8491 19.334 11.6367C19.334 6.42218 15.447 2.18182 10.667 2.18182Z" transform="translate(0 0.7276364)" id="path_2" />
    <clipPath id="mask_1">
      <use xlink:href="#path_1" />
    </clipPath>
    <clipPath id="mask_2">
      <use xlink:href="#path_2" />
    </clipPath>
  </defs>
  <g id="CHECK_ICON-Copy-2">
    <g id="Group-7" transform="translate(0 -1.090909)">
      <g id="Group-3" transform="translate(5 6.908728)">
        <path d="M8.79574 0.416727L4.49174 6.38073L1.78574 2.63127C1.44374 2.15782 0.814741 2.07818 0.381741 2.448L0.381741 2.448C-0.0522592 2.82109 -0.127259 3.50727 0.213741 3.98073L0.213741 3.98073L3.70574 8.81891C3.89674 9.08182 4.18574 9.23564 4.49174 9.23564L4.49174 9.23564C4.79774 9.23564 5.08774 9.08182 5.27774 8.81891L5.27774 8.81891L10.3677 1.76509C10.7087 1.29273 10.6347 0.606545 10.1997 0.233455L10.1997 0.233455C10.0167 0.0763636 9.79874 0 9.58274 0L9.58274 0C9.28674 0 8.99274 0.142909 8.79574 0.416727" transform="translate(0.3762592 0.9469092)" id="Clip-2" fill="none" stroke="none" />
        <g clip-path="url(#mask_1)">
          <path d="M8.79574 0.416727L4.49174 6.38073L1.78574 2.63127C1.44374 2.15782 0.814741 2.07818 0.381741 2.448L0.381741 2.448C-0.0522592 2.82109 -0.127259 3.50727 0.213741 3.98073L0.213741 3.98073L3.70574 8.81891C3.89674 9.08182 4.18574 9.23564 4.49174 9.23564L4.49174 9.23564C4.79774 9.23564 5.08774 9.08182 5.27774 8.81891L5.27774 8.81891L10.3677 1.76509C10.7087 1.29273 10.6347 0.606545 10.1997 0.233455L10.1997 0.233455C10.0167 0.0763636 9.79874 0 9.58274 0L9.58274 0C9.28674 0 8.99274 0.142909 8.79574 0.416727" transform="translate(0.3762592 0.9469092)" id="Fill-1" fill="url(#gradient_1)" stroke="none" />
        </g>
      </g>
      <g id="Group-6" transform="translate(0 0.3632728)">
        <path d="M0 11.6367C0 5.22 4.785 0 10.667 0C16.549 0 21.334 5.22 21.334 11.6367C21.334 18.0524 16.549 23.2724 10.667 23.2724C4.785 23.2724 0 18.0524 0 11.6367ZM10.667 2.18182C5.888 2.18182 2 6.42218 2 11.6367C2 16.8491 5.888 21.0905 10.667 21.0905C15.447 21.0905 19.334 16.8491 19.334 11.6367C19.334 6.42218 15.447 2.18182 10.667 2.18182Z" transform="translate(0 0.7276364)" id="Clip-5" fill="none" fill-rule="evenodd" stroke="none" />
        <g clip-path="url(#mask_2)">
          <path d="M0 11.6367C0 5.22 4.785 0 10.667 0C16.549 0 21.334 5.22 21.334 11.6367C21.334 18.0524 16.549 23.2724 10.667 23.2724C4.785 23.2724 0 18.0524 0 11.6367ZM10.667 2.18182C5.888 2.18182 2 6.42218 2 11.6367C2 16.8491 5.888 21.0905 10.667 21.0905C15.447 21.0905 19.334 16.8491 19.334 11.6367C19.334 6.42218 15.447 2.18182 10.667 2.18182Z" transform="translate(0 0.7276364)" id="Fill-4" fill="url(#gradient_1)" fill-rule="evenodd" stroke="none" />
        </g>
      </g>
    </g>
  </g>
</svg>