<?xml version="1.0" encoding="utf-8"?>
<svg width="107px" height="107px" viewBox="0 0 107 107" version="1.1" xmlns:xlink="http://www.w3.org/1999/xlink" xmlns="http://www.w3.org/2000/svg">
  <desc>Created with Lunacy</desc>
  <defs>
    <linearGradient x1="0.2027647" y1="0.0903670639" x2="0.7972659" y2="0.9096315" id="gradient_1">
      <stop offset="0" stop-color="#69FF97" />
      <stop offset="1" stop-color="#00E4FF" />
    </linearGradient>
    <linearGradient x1="0.197445378" y1="0.130207881" x2="0.775878966" y2="0.837183" id="gradient_2">
      <stop offset="0" stop-color="#69FF97" />
      <stop offset="1" stop-color="#00E4FF" />
    </linearGradient>
    <path d="M17.6239 6.2006L17.6239 0L24.1955 0L24.1955 6.2006C25.9216 6.58514 27.5311 7.27069 28.9808 8.19211L33.3729 3.8012L38.0181 8.44766L33.6272 12.8398C34.5499 14.2883 35.233 15.8989 35.6187 17.6251L41.8181 17.6251L41.8181 24.1955L35.6187 24.1955C35.233 25.9216 34.5499 27.5335 33.6272 28.9808L38.0181 33.3729L33.3729 38.0194L28.9808 33.6285C27.5311 34.5499 25.9216 35.2342 24.1955 35.62L24.1955 41.8206L17.6239 41.8206L17.6239 35.62C15.8989 35.2342 14.2858 34.5499 12.8386 33.6285L8.44766 38.0194L3.8012 33.3729L8.19211 28.9808C7.27069 27.5335 6.58637 25.9216 6.19937 24.1955L0 24.1955L0 17.6251L6.19937 17.6251C6.58637 15.8989 7.27069 14.2883 8.19211 12.8398L3.8012 8.44766L8.44766 3.8012L12.8386 8.19211C14.2858 7.26946 15.8989 6.58514 17.6239 6.2006ZM20.9091 11.1505C15.5291 11.1505 11.1517 15.5291 11.1517 20.9103C11.1517 26.2914 15.5291 30.6688 20.9091 30.6688C26.2902 30.6688 30.6688 26.2914 30.6688 20.9103C30.6688 15.5291 26.2902 11.1505 20.9091 11.1505Z" transform="translate(0.6523714 0.8464857)" id="path_1" />
    <path d="M43.0317 0.935294C40.522 2.44548 39.4159 5.38106 40.0632 8.09965L10.3019 25.3801C9.2132 24.4972 7.84548 23.9435 6.33888 23.9435C2.83836 23.9435 0 26.798 0 30.3172C0 33.2216 1.94308 35.6434 4.58304 36.4141L4.58304 68.991C3.0628 69.4712 1.70624 70.4912 0.8556 71.9965C-0.92876 75.1503 0.16864 79.1645 3.30708 80.9603C5.54404 82.2385 8.20136 82.0216 10.1978 80.6623L39.9168 97.9191C39.7656 99.2983 40.0198 100.732 40.7824 102.016C42.6362 105.128 46.6525 106.142 49.7476 104.277C52.1098 102.855 53.2444 100.172 52.8352 97.5961L66.7938 90.6836L65.0975 87.2218L51.1426 94.1342C50.3552 93.2912 49.3706 92.7064 48.3079 92.3771L48.3079 53.732L81.7619 34.7268C82.1364 35.0835 82.5443 35.4127 83.0118 35.6808C83.4371 35.924 83.8773 36.1036 84.325 36.242L84.325 52.5685L88.1615 52.5685L88.1615 36.2345C89.6979 35.7582 91.0681 34.7331 91.9237 33.2167C93.708 30.0604 92.6119 26.0473 89.4747 24.2528C87.0244 22.8524 84.0683 23.2377 82.0334 24.9661L52.7608 7.96871C53.103 6.39242 52.8872 4.69019 51.9982 3.19746C50.7743 1.14106 48.6068 0.00124706 46.3847 0C45.2414 0 44.0832 0.301788 43.0317 0.935294ZM49.7476 12.2149C49.2875 12.4918 48.8014 12.6876 48.3079 12.8385L48.3079 49.3012L79.8808 31.3673C79.6564 30.3397 79.675 29.2647 79.9639 28.2197L50.8846 11.3333C50.5436 11.66 50.1704 11.9605 49.7476 12.2149ZM11.2927 34.2492C12.147 33.163 12.6765 31.8087 12.6765 30.3172C12.6765 29.7212 12.5686 29.155 12.4149 28.6063L42.0162 11.4193C42.7341 12.074 43.5686 12.5541 44.4714 12.8335L44.4714 51.4811L27.0246 61.3927L11.2927 34.2492ZM8.4196 68.9624C8.87964 69.1008 9.33348 69.2816 9.76996 69.5323C10.2362 69.7991 10.6429 70.1284 11.0186 70.4838L23.684 63.2907L8.4196 36.9528L8.4196 68.9624ZM28.954 64.7261L44.4714 55.9119L44.4714 91.4992L28.954 64.7261ZM12.8985 73.8471C13.1663 75.0779 13.0832 76.3786 12.6096 77.6082L41.4644 94.3624C41.509 94.3088 41.5549 94.2589 41.602 94.2066L25.6159 66.6229L12.8985 73.8471Z" transform="translate(0 0.7881412)" id="path_2" />
    <clipPath id="mask_1">
      <use xlink:href="#path_1" />
    </clipPath>
    <clipPath id="mask_2">
      <use xlink:href="#path_2" />
    </clipPath>
  </defs>
  <g id="algoritmo">
    <g id="Group-7">
      <g id="Group-3" transform="translate(64 57.5)">
        <path d="M17.6239 6.2006L17.6239 0L24.1955 0L24.1955 6.2006C25.9216 6.58514 27.5311 7.27069 28.9808 8.19211L33.3729 3.8012L38.0181 8.44766L33.6272 12.8398C34.5499 14.2883 35.233 15.8989 35.6187 17.6251L41.8181 17.6251L41.8181 24.1955L35.6187 24.1955C35.233 25.9216 34.5499 27.5335 33.6272 28.9808L38.0181 33.3729L33.3729 38.0194L28.9808 33.6285C27.5311 34.5499 25.9216 35.2342 24.1955 35.62L24.1955 41.8206L17.6239 41.8206L17.6239 35.62C15.8989 35.2342 14.2858 34.5499 12.8386 33.6285L8.44766 38.0194L3.8012 33.3729L8.19211 28.9808C7.27069 27.5335 6.58637 25.9216 6.19937 24.1955L0 24.1955L0 17.6251L6.19937 17.6251C6.58637 15.8989 7.27069 14.2883 8.19211 12.8398L3.8012 8.44766L8.44766 3.8012L12.8386 8.19211C14.2858 7.26946 15.8989 6.58514 17.6239 6.2006ZM20.9091 11.1505C15.5291 11.1505 11.1517 15.5291 11.1517 20.9103C11.1517 26.2914 15.5291 30.6688 20.9091 30.6688C26.2902 30.6688 30.6688 26.2914 30.6688 20.9103C30.6688 15.5291 26.2902 11.1505 20.9091 11.1505Z" transform="translate(0.6523714 0.8464857)" id="Clip-2" fill="none" fill-rule="evenodd" stroke="none" />
        <g clip-path="url(#mask_1)">
          <path d="M17.6239 6.2006L17.6239 0L24.1955 0L24.1955 6.2006C25.9216 6.58514 27.5311 7.27069 28.9808 8.19211L33.3729 3.8012L38.0181 8.44766L33.6272 12.8398C34.5499 14.2883 35.233 15.8989 35.6187 17.6251L41.8181 17.6251L41.8181 24.1955L35.6187 24.1955C35.233 25.9216 34.5499 27.5335 33.6272 28.9808L38.0181 33.3729L33.3729 38.0194L28.9808 33.6285C27.5311 34.5499 25.9216 35.2342 24.1955 35.62L24.1955 41.8206L17.6239 41.8206L17.6239 35.62C15.8989 35.2342 14.2858 34.5499 12.8386 33.6285L8.44766 38.0194L3.8012 33.3729L8.19211 28.9808C7.27069 27.5335 6.58637 25.9216 6.19937 24.1955L0 24.1955L0 17.6251L6.19937 17.6251C6.58637 15.8989 7.27069 14.2883 8.19211 12.8398L3.8012 8.44766L8.44766 3.8012L12.8386 8.19211C14.2858 7.26946 15.8989 6.58514 17.6239 6.2006ZM20.9091 11.1505C15.5291 11.1505 11.1517 15.5291 11.1517 20.9103C11.1517 26.2914 15.5291 30.6688 20.9091 30.6688C26.2902 30.6688 30.6688 26.2914 30.6688 20.9103C30.6688 15.5291 26.2902 11.1505 20.9091 11.1505Z" transform="translate(0.6523714 0.8464857)" id="Fill-1" fill="url(#gradient_1)" fill-rule="evenodd" stroke="none" />
        </g>
      </g>
      <g id="Group-6" transform="translate(0 0.5)">
        <path d="M43.0317 0.935294C40.522 2.44548 39.4159 5.38106 40.0632 8.09965L10.3019 25.3801C9.2132 24.4972 7.84548 23.9435 6.33888 23.9435C2.83836 23.9435 0 26.798 0 30.3172C0 33.2216 1.94308 35.6434 4.58304 36.4141L4.58304 68.991C3.0628 69.4712 1.70624 70.4912 0.8556 71.9965C-0.92876 75.1503 0.16864 79.1645 3.30708 80.9603C5.54404 82.2385 8.20136 82.0216 10.1978 80.6623L39.9168 97.9191C39.7656 99.2983 40.0198 100.732 40.7824 102.016C42.6362 105.128 46.6525 106.142 49.7476 104.277C52.1098 102.855 53.2444 100.172 52.8352 97.5961L66.7938 90.6836L65.0975 87.2218L51.1426 94.1342C50.3552 93.2912 49.3706 92.7064 48.3079 92.3771L48.3079 53.732L81.7619 34.7268C82.1364 35.0835 82.5443 35.4127 83.0118 35.6808C83.4371 35.924 83.8773 36.1036 84.325 36.242L84.325 52.5685L88.1615 52.5685L88.1615 36.2345C89.6979 35.7582 91.0681 34.7331 91.9237 33.2167C93.708 30.0604 92.6119 26.0473 89.4747 24.2528C87.0244 22.8524 84.0683 23.2377 82.0334 24.9661L52.7608 7.96871C53.103 6.39242 52.8872 4.69019 51.9982 3.19746C50.7743 1.14106 48.6068 0.00124706 46.3847 0C45.2414 0 44.0832 0.301788 43.0317 0.935294ZM49.7476 12.2149C49.2875 12.4918 48.8014 12.6876 48.3079 12.8385L48.3079 49.3012L79.8808 31.3673C79.6564 30.3397 79.675 29.2647 79.9639 28.2197L50.8846 11.3333C50.5436 11.66 50.1704 11.9605 49.7476 12.2149ZM11.2927 34.2492C12.147 33.163 12.6765 31.8087 12.6765 30.3172C12.6765 29.7212 12.5686 29.155 12.4149 28.6063L42.0162 11.4193C42.7341 12.074 43.5686 12.5541 44.4714 12.8335L44.4714 51.4811L27.0246 61.3927L11.2927 34.2492ZM8.4196 68.9624C8.87964 69.1008 9.33348 69.2816 9.76996 69.5323C10.2362 69.7991 10.6429 70.1284 11.0186 70.4838L23.684 63.2907L8.4196 36.9528L8.4196 68.9624ZM28.954 64.7261L44.4714 55.9119L44.4714 91.4992L28.954 64.7261ZM12.8985 73.8471C13.1663 75.0779 13.0832 76.3786 12.6096 77.6082L41.4644 94.3624C41.509 94.3088 41.5549 94.2589 41.602 94.2066L25.6159 66.6229L12.8985 73.8471Z" transform="translate(0 0.7881412)" id="Clip-5" fill="none" fill-rule="evenodd" stroke="none" />
        <g clip-path="url(#mask_2)">
          <path d="M43.0317 0.935294C40.522 2.44548 39.4159 5.38106 40.0632 8.09965L10.3019 25.3801C9.2132 24.4972 7.84548 23.9435 6.33888 23.9435C2.83836 23.9435 0 26.798 0 30.3172C0 33.2216 1.94308 35.6434 4.58304 36.4141L4.58304 68.991C3.0628 69.4712 1.70624 70.4912 0.8556 71.9965C-0.92876 75.1503 0.16864 79.1645 3.30708 80.9603C5.54404 82.2385 8.20136 82.0216 10.1978 80.6623L39.9168 97.9191C39.7656 99.2983 40.0198 100.732 40.7824 102.016C42.6362 105.128 46.6525 106.142 49.7476 104.277C52.1098 102.855 53.2444 100.172 52.8352 97.5961L66.7938 90.6836L65.0975 87.2218L51.1426 94.1342C50.3552 93.2912 49.3706 92.7064 48.3079 92.3771L48.3079 53.732L81.7619 34.7268C82.1364 35.0835 82.5443 35.4127 83.0118 35.6808C83.4371 35.924 83.8773 36.1036 84.325 36.242L84.325 52.5685L88.1615 52.5685L88.1615 36.2345C89.6979 35.7582 91.0681 34.7331 91.9237 33.2167C93.708 30.0604 92.6119 26.0473 89.4747 24.2528C87.0244 22.8524 84.0683 23.2377 82.0334 24.9661L52.7608 7.96871C53.103 6.39242 52.8872 4.69019 51.9982 3.19746C50.7743 1.14106 48.6068 0.00124706 46.3847 0C45.2414 0 44.0832 0.301788 43.0317 0.935294ZM49.7476 12.2149C49.2875 12.4918 48.8014 12.6876 48.3079 12.8385L48.3079 49.3012L79.8808 31.3673C79.6564 30.3397 79.675 29.2647 79.9639 28.2197L50.8846 11.3333C50.5436 11.66 50.1704 11.9605 49.7476 12.2149ZM11.2927 34.2492C12.147 33.163 12.6765 31.8087 12.6765 30.3172C12.6765 29.7212 12.5686 29.155 12.4149 28.6063L42.0162 11.4193C42.7341 12.074 43.5686 12.5541 44.4714 12.8335L44.4714 51.4811L27.0246 61.3927L11.2927 34.2492ZM8.4196 68.9624C8.87964 69.1008 9.33348 69.2816 9.76996 69.5323C10.2362 69.7991 10.6429 70.1284 11.0186 70.4838L23.684 63.2907L8.4196 36.9528L8.4196 68.9624ZM28.954 64.7261L44.4714 55.9119L44.4714 91.4992L28.954 64.7261ZM12.8985 73.8471C13.1663 75.0779 13.0832 76.3786 12.6096 77.6082L41.4644 94.3624C41.509 94.3088 41.5549 94.2589 41.602 94.2066L25.6159 66.6229L12.8985 73.8471Z" transform="translate(0 0.7881412)" id="Fill-4" fill="url(#gradient_2)" fill-rule="evenodd" stroke="none" />
        </g>
      </g>
    </g>
  </g>
</svg>