<?xml version="1.0" encoding="utf-8"?>
<svg width="108px" height="96px" viewBox="0 0 108 96" version="1.1" xmlns:xlink="http://www.w3.org/1999/xlink" xmlns="http://www.w3.org/2000/svg">
  <desc>Created with Lunacy</desc>
  <defs>
    <linearGradient x1="0" y1="0.499999225" x2="0.9999959" y2="0.499999225" id="gradient_1">
      <stop offset="0" stop-color="#69FF97" />
      <stop offset="1" stop-color="#00E4FF" />
    </linearGradient>
    <path d="M53.936 0C49.741 0 46.328 3.412 46.328 7.609C46.328 9.677 47.16 11.554 48.504 12.926L41.173 20.258L21.005 20.258L13.342 12.594C14.507 11.258 15.218 9.517 15.218 7.609C15.218 3.412 11.804 0 7.609 0C3.413 0 0 3.412 0 7.609C0 11.804 3.413 15.218 7.609 15.218C8.807 15.218 9.935 14.932 10.943 14.438L18.596 22.091L8.584 39.431C8.315 39.896 8.315 40.467 8.584 40.932L19.22 59.356C19.489 59.819 19.984 60.105 20.519 60.105L29.051 60.105C29.879 60.105 30.551 59.433 30.551 58.605C30.551 57.777 29.879 57.106 29.051 57.106L21.386 57.106L11.615 40.181L21.386 23.257L40.928 23.257L50.698 40.181L41.036 56.918C40.989 56.939 40.94 56.956 40.894 56.982C40.177 57.396 39.931 58.313 40.346 59.031L40.384 59.096C40.445 59.274 40.539 59.438 40.664 59.583L50.259 76.2L44.82 81.639C41.866 79.671 37.831 79.989 35.228 82.593C33.79 84.03 32.999 85.941 32.999 87.973C32.999 90.006 33.79 91.916 35.228 93.352C36.711 94.835 38.66 95.578 40.607 95.577C42.556 95.577 44.504 94.835 45.987 93.352C47.425 91.916 48.216 90.006 48.216 87.973C48.216 86.449 47.771 84.996 46.943 83.757L52.496 78.205L73.217 78.205L78.77 83.757C77.942 84.996 77.497 86.449 77.497 87.973C77.497 90.006 78.288 91.916 79.726 93.352C81.209 94.835 83.157 95.577 85.106 95.577C87.053 95.577 89.002 94.835 90.485 93.352C91.922 91.916 92.714 90.006 92.714 87.973C92.714 85.941 91.922 84.03 90.485 82.593C87.881 79.989 83.847 79.671 80.893 81.639L75.533 76.279L85.336 59.302L92.576 59.302C93.275 62.781 96.353 65.41 100.035 65.41C104.231 65.41 107.644 61.997 107.644 57.801C107.644 53.606 104.231 50.194 100.035 50.194C96.353 50.194 93.275 52.822 92.576 56.302L84.782 56.302L74.855 39.106C74.587 38.642 74.092 38.356 73.556 38.356L65.025 38.356C64.197 38.356 63.526 39.028 63.526 39.856C63.526 40.684 64.197 41.356 65.025 41.356L72.689 41.356L81.903 57.314C81.85 57.467 81.814 57.629 81.814 57.801C81.814 58.173 81.955 58.509 82.178 58.771L72.976 74.709C72.701 74.767 72.436 74.875 72.221 75.089C72.187 75.123 72.175 75.168 72.145 75.205L53.568 75.205C53.538 75.168 53.526 75.123 53.492 75.089C53.314 74.912 53.102 74.807 52.878 74.737L43.545 58.572L53.729 40.932C53.998 40.467 53.998 39.896 53.729 39.431L43.668 22.005L51.034 14.639C51.929 15.011 52.908 15.218 53.936 15.218C58.132 15.218 61.545 11.804 61.545 7.609C61.545 3.412 58.132 0 53.936 0ZM3 7.609C3 5.068 5.067 3 7.609 3C10.15 3 12.217 5.068 12.217 7.609C12.217 10.15 10.15 12.217 7.609 12.217C5.067 12.217 3 10.15 3 7.609ZM53.936 3C51.395 3 49.328 5.068 49.328 7.609C49.328 10.15 51.395 12.217 53.936 12.217C56.478 12.217 58.545 10.15 58.545 7.609C58.545 5.068 56.478 3 53.936 3ZM100.035 53.193C97.494 53.193 95.427 55.261 95.427 57.801C95.427 60.343 97.494 62.41 100.035 62.41C102.577 62.41 104.644 60.343 104.644 57.801C104.644 55.261 102.577 53.193 100.035 53.193ZM35.999 87.973C35.999 89.204 36.479 90.362 37.348 91.231C38.247 92.13 39.427 92.579 40.607 92.579C41.788 92.579 42.968 92.13 43.866 91.231C44.736 90.362 45.216 89.204 45.216 87.973C45.216 86.742 44.736 85.585 43.866 84.714C42.968 83.815 41.787 83.366 40.607 83.366C39.428 83.366 38.247 83.815 37.348 84.714C36.479 85.585 35.999 86.742 35.999 87.973ZM81.847 91.231C80.977 90.362 80.497 89.204 80.497 87.973C80.497 86.742 80.977 85.585 81.847 84.714C82.745 83.815 83.926 83.366 85.106 83.366C86.285 83.366 87.466 83.815 88.365 84.714C89.234 85.585 89.714 86.742 89.714 87.973C89.714 89.204 89.234 90.362 88.365 91.231C87.466 92.129 86.286 92.578 85.105 92.578C83.925 92.578 82.745 92.129 81.847 91.231Z" transform="translate(0 0.0001)" id="path_1" />
    <clipPath id="mask_1">
      <use xlink:href="#path_1" />
    </clipPath>
  </defs>
  <g id="molecole_esagono">
    <g id="Group-3">
      <path d="M53.936 0C49.741 0 46.328 3.412 46.328 7.609C46.328 9.677 47.16 11.554 48.504 12.926L41.173 20.258L21.005 20.258L13.342 12.594C14.507 11.258 15.218 9.517 15.218 7.609C15.218 3.412 11.804 0 7.609 0C3.413 0 0 3.412 0 7.609C0 11.804 3.413 15.218 7.609 15.218C8.807 15.218 9.935 14.932 10.943 14.438L18.596 22.091L8.584 39.431C8.315 39.896 8.315 40.467 8.584 40.932L19.22 59.356C19.489 59.819 19.984 60.105 20.519 60.105L29.051 60.105C29.879 60.105 30.551 59.433 30.551 58.605C30.551 57.777 29.879 57.106 29.051 57.106L21.386 57.106L11.615 40.181L21.386 23.257L40.928 23.257L50.698 40.181L41.036 56.918C40.989 56.939 40.94 56.956 40.894 56.982C40.177 57.396 39.931 58.313 40.346 59.031L40.384 59.096C40.445 59.274 40.539 59.438 40.664 59.583L50.259 76.2L44.82 81.639C41.866 79.671 37.831 79.989 35.228 82.593C33.79 84.03 32.999 85.941 32.999 87.973C32.999 90.006 33.79 91.916 35.228 93.352C36.711 94.835 38.66 95.578 40.607 95.577C42.556 95.577 44.504 94.835 45.987 93.352C47.425 91.916 48.216 90.006 48.216 87.973C48.216 86.449 47.771 84.996 46.943 83.757L52.496 78.205L73.217 78.205L78.77 83.757C77.942 84.996 77.497 86.449 77.497 87.973C77.497 90.006 78.288 91.916 79.726 93.352C81.209 94.835 83.157 95.577 85.106 95.577C87.053 95.577 89.002 94.835 90.485 93.352C91.922 91.916 92.714 90.006 92.714 87.973C92.714 85.941 91.922 84.03 90.485 82.593C87.881 79.989 83.847 79.671 80.893 81.639L75.533 76.279L85.336 59.302L92.576 59.302C93.275 62.781 96.353 65.41 100.035 65.41C104.231 65.41 107.644 61.997 107.644 57.801C107.644 53.606 104.231 50.194 100.035 50.194C96.353 50.194 93.275 52.822 92.576 56.302L84.782 56.302L74.855 39.106C74.587 38.642 74.092 38.356 73.556 38.356L65.025 38.356C64.197 38.356 63.526 39.028 63.526 39.856C63.526 40.684 64.197 41.356 65.025 41.356L72.689 41.356L81.903 57.314C81.85 57.467 81.814 57.629 81.814 57.801C81.814 58.173 81.955 58.509 82.178 58.771L72.976 74.709C72.701 74.767 72.436 74.875 72.221 75.089C72.187 75.123 72.175 75.168 72.145 75.205L53.568 75.205C53.538 75.168 53.526 75.123 53.492 75.089C53.314 74.912 53.102 74.807 52.878 74.737L43.545 58.572L53.729 40.932C53.998 40.467 53.998 39.896 53.729 39.431L43.668 22.005L51.034 14.639C51.929 15.011 52.908 15.218 53.936 15.218C58.132 15.218 61.545 11.804 61.545 7.609C61.545 3.412 58.132 0 53.936 0ZM3 7.609C3 5.068 5.067 3 7.609 3C10.15 3 12.217 5.068 12.217 7.609C12.217 10.15 10.15 12.217 7.609 12.217C5.067 12.217 3 10.15 3 7.609ZM53.936 3C51.395 3 49.328 5.068 49.328 7.609C49.328 10.15 51.395 12.217 53.936 12.217C56.478 12.217 58.545 10.15 58.545 7.609C58.545 5.068 56.478 3 53.936 3ZM100.035 53.193C97.494 53.193 95.427 55.261 95.427 57.801C95.427 60.343 97.494 62.41 100.035 62.41C102.577 62.41 104.644 60.343 104.644 57.801C104.644 55.261 102.577 53.193 100.035 53.193ZM35.999 87.973C35.999 89.204 36.479 90.362 37.348 91.231C38.247 92.13 39.427 92.579 40.607 92.579C41.788 92.579 42.968 92.13 43.866 91.231C44.736 90.362 45.216 89.204 45.216 87.973C45.216 86.742 44.736 85.585 43.866 84.714C42.968 83.815 41.787 83.366 40.607 83.366C39.428 83.366 38.247 83.815 37.348 84.714C36.479 85.585 35.999 86.742 35.999 87.973ZM81.847 91.231C80.977 90.362 80.497 89.204 80.497 87.973C80.497 86.742 80.977 85.585 81.847 84.714C82.745 83.815 83.926 83.366 85.106 83.366C86.285 83.366 87.466 83.815 88.365 84.714C89.234 85.585 89.714 86.742 89.714 87.973C89.714 89.204 89.234 90.362 88.365 91.231C87.466 92.129 86.286 92.578 85.105 92.578C83.925 92.578 82.745 92.129 81.847 91.231Z" transform="translate(0 0.0001)" id="Clip-2" fill="none" fill-rule="evenodd" stroke="none" />
      <g clip-path="url(#mask_1)">
        <path d="M53.936 0C49.741 0 46.328 3.412 46.328 7.609C46.328 9.677 47.16 11.554 48.504 12.926L41.173 20.258L21.005 20.258L13.342 12.594C14.507 11.258 15.218 9.517 15.218 7.609C15.218 3.412 11.804 0 7.609 0C3.413 0 0 3.412 0 7.609C0 11.804 3.413 15.218 7.609 15.218C8.807 15.218 9.935 14.932 10.943 14.438L18.596 22.091L8.584 39.431C8.315 39.896 8.315 40.467 8.584 40.932L19.22 59.356C19.489 59.819 19.984 60.105 20.519 60.105L29.051 60.105C29.879 60.105 30.551 59.433 30.551 58.605C30.551 57.777 29.879 57.106 29.051 57.106L21.386 57.106L11.615 40.181L21.386 23.257L40.928 23.257L50.698 40.181L41.036 56.918C40.989 56.939 40.94 56.956 40.894 56.982C40.177 57.396 39.931 58.313 40.346 59.031L40.384 59.096C40.445 59.274 40.539 59.438 40.664 59.583L50.259 76.2L44.82 81.639C41.866 79.671 37.831 79.989 35.228 82.593C33.79 84.03 32.999 85.941 32.999 87.973C32.999 90.006 33.79 91.916 35.228 93.352C36.711 94.835 38.66 95.578 40.607 95.577C42.556 95.577 44.504 94.835 45.987 93.352C47.425 91.916 48.216 90.006 48.216 87.973C48.216 86.449 47.771 84.996 46.943 83.757L52.496 78.205L73.217 78.205L78.77 83.757C77.942 84.996 77.497 86.449 77.497 87.973C77.497 90.006 78.288 91.916 79.726 93.352C81.209 94.835 83.157 95.577 85.106 95.577C87.053 95.577 89.002 94.835 90.485 93.352C91.922 91.916 92.714 90.006 92.714 87.973C92.714 85.941 91.922 84.03 90.485 82.593C87.881 79.989 83.847 79.671 80.893 81.639L75.533 76.279L85.336 59.302L92.576 59.302C93.275 62.781 96.353 65.41 100.035 65.41C104.231 65.41 107.644 61.997 107.644 57.801C107.644 53.606 104.231 50.194 100.035 50.194C96.353 50.194 93.275 52.822 92.576 56.302L84.782 56.302L74.855 39.106C74.587 38.642 74.092 38.356 73.556 38.356L65.025 38.356C64.197 38.356 63.526 39.028 63.526 39.856C63.526 40.684 64.197 41.356 65.025 41.356L72.689 41.356L81.903 57.314C81.85 57.467 81.814 57.629 81.814 57.801C81.814 58.173 81.955 58.509 82.178 58.771L72.976 74.709C72.701 74.767 72.436 74.875 72.221 75.089C72.187 75.123 72.175 75.168 72.145 75.205L53.568 75.205C53.538 75.168 53.526 75.123 53.492 75.089C53.314 74.912 53.102 74.807 52.878 74.737L43.545 58.572L53.729 40.932C53.998 40.467 53.998 39.896 53.729 39.431L43.668 22.005L51.034 14.639C51.929 15.011 52.908 15.218 53.936 15.218C58.132 15.218 61.545 11.804 61.545 7.609C61.545 3.412 58.132 0 53.936 0ZM3 7.609C3 5.068 5.067 3 7.609 3C10.15 3 12.217 5.068 12.217 7.609C12.217 10.15 10.15 12.217 7.609 12.217C5.067 12.217 3 10.15 3 7.609ZM53.936 3C51.395 3 49.328 5.068 49.328 7.609C49.328 10.15 51.395 12.217 53.936 12.217C56.478 12.217 58.545 10.15 58.545 7.609C58.545 5.068 56.478 3 53.936 3ZM100.035 53.193C97.494 53.193 95.427 55.261 95.427 57.801C95.427 60.343 97.494 62.41 100.035 62.41C102.577 62.41 104.644 60.343 104.644 57.801C104.644 55.261 102.577 53.193 100.035 53.193ZM35.999 87.973C35.999 89.204 36.479 90.362 37.348 91.231C38.247 92.13 39.427 92.579 40.607 92.579C41.788 92.579 42.968 92.13 43.866 91.231C44.736 90.362 45.216 89.204 45.216 87.973C45.216 86.742 44.736 85.585 43.866 84.714C42.968 83.815 41.787 83.366 40.607 83.366C39.428 83.366 38.247 83.815 37.348 84.714C36.479 85.585 35.999 86.742 35.999 87.973ZM81.847 91.231C80.977 90.362 80.497 89.204 80.497 87.973C80.497 86.742 80.977 85.585 81.847 84.714C82.745 83.815 83.926 83.366 85.106 83.366C86.285 83.366 87.466 83.815 88.365 84.714C89.234 85.585 89.714 86.742 89.714 87.973C89.714 89.204 89.234 90.362 88.365 91.231C87.466 92.129 86.286 92.578 85.105 92.578C83.925 92.578 82.745 92.129 81.847 91.231Z" transform="translate(0 0.0001)" id="Fill-1" fill="url(#gradient_1)" fill-rule="evenodd" stroke="none" />
      </g>
    </g>
  </g>
</svg>