<?xml version="1.0" encoding="utf-8"?>
<svg width="94px" height="84px" viewBox="0 0 94 84" version="1.1" xmlns:xlink="http://www.w3.org/1999/xlink" xmlns="http://www.w3.org/2000/svg">
  <desc>Created with Lunacy</desc>
  <defs>
    <linearGradient x1="4.36432638E-05" y1="0.499952137" x2="1.00007653" y2="0.499952137" id="gradient_1">
      <stop offset="0" stop-color="#69FF97" />
      <stop offset="1" stop-color="#00E4FF" />
    </linearGradient>
    <linearGradient x1="4.36432638E-05" y1="0.4999302" x2="1.00007653" y2="0.4999302" id="gradient_2">
      <stop offset="0" stop-color="#69FF97" />
      <stop offset="1" stop-color="#00E4FF" />
    </linearGradient>
    <linearGradient x1="4.36432638E-05" y1="0.4998608" x2="1.00007653" y2="0.4998608" id="gradient_3">
      <stop offset="0" stop-color="#69FF97" />
      <stop offset="1" stop-color="#00E4FF" />
    </linearGradient>
    <linearGradient x1="0.181229219" y1="-0.018533729" x2="0.899643362" y2="1.15008879" id="gradient_4">
      <stop offset="0" stop-color="#69FF97" />
      <stop offset="1" stop-color="#00E4FF" />
    </linearGradient>
    <linearGradient x1="-1.45234334" y1="-0.234360218" x2="4.00756836" y2="1.53414929" id="gradient_5">
      <stop offset="0" stop-color="#69FF97" />
      <stop offset="1" stop-color="#00E4FF" />
    </linearGradient>
    <linearGradient x1="-1.56214952" y1="-0.897442" x2="1.43785048" y2="0.9565199" id="gradient_6">
      <stop offset="0" stop-color="#69FF97" />
      <stop offset="1" stop-color="#00E4FF" />
    </linearGradient>
    <linearGradient x1="-8.09637451" y1="-3.30860925" x2="6.653626" y2="3.22644877" id="gradient_7">
      <stop offset="0" stop-color="#69FF97" />
      <stop offset="1" stop-color="#00E4FF" />
    </linearGradient>
    <linearGradient x1="3.70036432E-05" y1="0.499988556" x2="1.00005794" y2="0.499988556" id="gradient_8">
      <stop offset="0" stop-color="#69FF97" />
      <stop offset="1" stop-color="#00E4FF" />
    </linearGradient>
    <linearGradient x1="3.02950448E-05" y1="0.499952316" x2="0.9999504" y2="0.499952316" id="gradient_9">
      <stop offset="0" stop-color="#69FF97" />
      <stop offset="1" stop-color="#00E4FF" />
    </linearGradient>
    <linearGradient x1="-2.33397059E-05" y1="0.5000096" x2="0.9999939" y2="0.5000096" id="gradient_10">
      <stop offset="0" stop-color="#69FF97" />
      <stop offset="1" stop-color="#00E4FF" />
    </linearGradient>
    <path d="M0 3.162C0 4.909 1.416 6.324 3.162 6.324L3.162 6.324C4.909 6.324 6.324 4.909 6.324 3.162L6.324 3.162C6.324 1.415 4.909 0 3.162 0L3.162 0C1.416 0 0 1.415 0 3.162" transform="translate(0.64 0.889)" id="path_1" />
    <path d="M0 3.162C0 4.908 1.416 6.325 3.162 6.325L3.162 6.325C4.909 6.325 6.324 4.908 6.324 3.162L6.324 3.162C6.324 1.416 4.909 0 3.162 0L3.162 0C1.416 0 0 1.416 0 3.162" transform="translate(0.64 0.353)" id="path_2" />
    <path d="M0 3.161C0 4.907 1.416 6.324 3.162 6.324L3.162 6.324C4.909 6.324 6.324 4.907 6.324 3.161L6.324 3.161C6.324 1.414 4.909 0 3.162 0L3.162 0C1.416 0 0 1.414 0 3.161" transform="translate(0.64 0.788)" id="path_3" />
    <path d="M0 10.493C0 4.707 4.707 0 10.493 0L51.101 0C56.887 0 61.594 4.707 61.594 10.493L61.594 71.655C61.594 77.441 56.887 82.148 51.101 82.148L10.493 82.148C4.707 82.148 0 77.441 0 71.655L0 10.493ZM3.094 10.493L3.094 71.655C3.094 75.734 6.413 79.054 10.493 79.054L51.101 79.054C55.181 79.054 58.5 75.734 58.5 71.655L58.5 10.493C58.5 6.414 55.181 3.094 51.101 3.094L10.493 3.094C6.413 3.094 3.094 6.414 3.094 10.493Z" transform="translate(0.256 0.837)" id="path_4" />
    <path d="M5.62153 0.367C5.41253 0.548 0.509527 4.879 0.203527 12.389L0.203527 12.389C0.0365265 13.508 -1.13147 22.623 4.77053 25.622L4.77053 25.622C4.87853 25.676 4.99053 25.717 5.10453 25.743L5.10453 25.743L5.10453 52.784C5.10453 53.612 5.77653 54.283 6.60453 54.283L6.60453 54.283C7.43253 54.283 8.10453 53.612 8.10453 52.784L8.10453 52.784L8.10453 1.5C8.10453 0.913 7.76153 0.38 7.22753 0.136L7.22753 0.136C7.02753 0.045 6.81553 0 6.60353 0L6.60353 0C6.25053 0 5.90053 0.126 5.62153 0.367M3.17953 12.776C3.18953 12.714 3.19653 12.65 3.19853 12.587L3.19853 12.587C3.29753 9.826 4.16553 7.56 5.10453 5.893L5.10453 5.893L5.10453 22.223C2.14353 19.419 3.16753 12.849 3.17953 12.776" transform="translate(0.0004734536 0.717)" id="path_5" />
    <path d="M11.75 1.5L11.75 14.545C11.75 16.957 9.787 18.92 7.375 18.92L7.375 18.92C4.963 18.92 3 16.957 3 14.545L3 14.545L3 1.5C3 0.672 2.328 0 1.5 0L1.5 0C0.672 0 0 0.672 0 1.5L0 1.5L0 14.545C0 18.097 2.525 21.07 5.875 21.766L5.875 21.766L5.875 50.282C5.875 51.11 6.547 51.781 7.375 51.781L7.375 51.781C8.203 51.781 8.875 51.11 8.875 50.282L8.875 50.282L8.875 21.766C12.224 21.07 14.75 18.097 14.75 14.545L14.75 14.545L14.75 1.5C14.75 0.672 14.078 0 13.25 0L13.25 0C12.422 0 11.75 0.672 11.75 1.5" transform="translate(0.061 0.219)" id="path_6" />
    <path d="M0 1.5L0 13.191C0 14.019 0.672 14.69 1.5 14.69L1.5 14.69C2.328 14.69 3 14.019 3 13.191L3 13.191L3 1.5C3 0.672 2.328 0 1.5 0L1.5 0C0.672 0 0 0.672 0 1.5" transform="translate(0.936 0.219)" id="path_7" />
    <path d="M1.00706 0.274C0.026057 0.845 -0.270943 2.084 0.261057 3.088L0.261057 3.088C0.708057 3.928 1.70106 4.118 1.70106 4.118L1.70106 4.118C1.91406 4.181 2.78606 4.425 3.12806 5.012L3.12806 5.012C3.47006 5.6 3.24806 6.478 3.19706 6.693L3.19706 6.693C3.19706 6.693 2.87106 7.651 3.38006 8.455L3.38006 8.455C3.98806 9.414 5.21106 9.772 6.19306 9.201L6.19306 9.201C7.17706 8.629 7.47206 7.391 6.93906 6.387L6.93906 6.387C6.49406 5.546 5.50106 5.357 5.50106 5.357L5.50106 5.357C5.28806 5.293 4.41506 5.05 4.07406 4.462L4.07406 4.462C3.73306 3.875 3.95406 2.996 4.00406 2.779L4.00406 2.779C4.00406 2.779 4.33106 1.823 3.82206 1.02L3.82206 1.02C3.41206 0.373 2.72406 0 2.01806 0L2.01806 0C1.67506 0 1.32906 0.087 1.00706 0.274" transform="translate(0.267943 0.703)" id="path_8" />
    <path d="M0.528613 0.668C-0.0303867 1.285 -0.159387 2.216 0.205613 2.962L0.205613 2.962C0.574613 3.72 1.41461 4.186 2.25261 4.106L2.25261 4.106C3.11361 4.024 3.85661 3.376 4.06061 2.536L4.06061 2.536C4.27361 1.661 3.85961 0.71 3.07761 0.263L3.07761 0.263C2.76761 0.086 2.41761 0 2.06861 0L2.06861 0C1.49561 0 0.923613 0.232 0.528613 0.668" transform="translate(0.2083867 0.063)" id="path_9" />
    <path d="M1.0075 0.274C0.024496 0.846 -0.270504 2.083 0.261496 3.089L0.261496 3.089C0.707496 3.928 1.7005 4.119 1.7005 4.119L1.7005 4.119C1.9135 4.182 2.7865 4.424 3.1275 5.013L3.1275 5.013C3.4695 5.601 3.2475 6.478 3.1975 6.695L3.1975 6.695C3.1975 6.695 2.8745 7.643 3.3715 8.443L3.3715 8.443C3.8205 9.272 4.8045 9.46 4.8045 9.46L4.8045 9.46C5.0155 9.523 5.8885 9.767 6.2295 10.354L6.2295 10.354C6.5715 10.942 6.3495 11.82 6.2995 12.035L6.2995 12.035C6.2995 12.035 5.9735 12.993 6.4815 13.797L6.4815 13.797C7.0905 14.756 8.3125 15.114 9.2955 14.543L9.2955 14.543C10.2795 13.971 10.5745 12.733 10.0425 11.729L10.0425 11.729C9.5955 10.888 8.6035 10.699 8.6035 10.699L8.6035 10.699C8.3905 10.635 7.5175 10.392 7.1755 9.804L7.1755 9.804C6.8355 9.217 7.0555 8.338 7.1065 8.121L7.1065 8.121C7.1065 8.121 7.4305 7.175 6.9315 6.375L6.9315 6.375C6.4835 5.546 5.4995 5.358 5.4995 5.358L5.4995 5.358C5.2875 5.294 4.4155 5.051 4.0735 4.463L4.0735 4.463C3.7315 3.876 3.9535 2.997 4.0045 2.781L4.0045 2.781C4.0045 2.781 4.3315 1.824 3.8215 1.02L3.8215 1.02C3.4115 0.373 2.7225 0 2.0165 0L2.0165 0C1.6745 0 1.3285 0.088 1.0075 0.274" transform="translate(0.319504 0.361)" id="path_10" />
    <clipPath id="mask_1">
      <use xlink:href="#path_1" />
    </clipPath>
    <clipPath id="mask_2">
      <use xlink:href="#path_2" />
    </clipPath>
    <clipPath id="mask_3">
      <use xlink:href="#path_3" />
    </clipPath>
    <clipPath id="mask_4">
      <use xlink:href="#path_4" />
    </clipPath>
    <clipPath id="mask_5">
      <use xlink:href="#path_5" />
    </clipPath>
    <clipPath id="mask_6">
      <use xlink:href="#path_6" />
    </clipPath>
    <clipPath id="mask_7">
      <use xlink:href="#path_7" />
    </clipPath>
    <clipPath id="mask_8">
      <use xlink:href="#path_8" />
    </clipPath>
    <clipPath id="mask_9">
      <use xlink:href="#path_9" />
    </clipPath>
    <clipPath id="mask_10">
      <use xlink:href="#path_10" />
    </clipPath>
  </defs>
  <g id="programma_icon">
    <g id="Group-45">
      <g id="Group-7" transform="translate(32 43.1631)">
        <path d="M30.805 2.609L1.305 2.609C0.584 2.609 0 2.025 0 1.304C0 0.584 0.584 0 1.305 0L30.805 0C31.526 0 32.11 0.584 32.11 1.304C32.11 2.025 31.526 2.609 30.805 2.609" transform="translate(0.7481 0.1052)" id="Fill-1" fill="#FFFFFF" stroke="none" />
        <path d="M30.805 2.609L1.305 2.609C0.584 2.609 0 2.025 0 1.304C0 0.584 0.584 0 1.305 0L30.805 0C31.526 0 32.11 0.584 32.11 1.304C32.11 2.025 31.526 2.609 30.805 2.609" transform="translate(0.7481 11.2107)" id="Fill-3" fill="#FFFFFF" stroke="none" />
        <path d="M30.805 2.609L1.305 2.609C0.584 2.609 0 2.025 0 1.304C0 0.584 0.584 0 1.305 0L30.805 0C31.526 0 32.11 0.584 32.11 1.304C32.11 2.025 31.526 2.609 30.805 2.609" transform="translate(0.7481 23.9343)" id="Fill-5" fill="#FFFFFF" stroke="none" />
      </g>
      <g id="Group-10" transform="translate(20 40.1631)">
        <path d="M0 3.162C0 4.909 1.416 6.324 3.162 6.324L3.162 6.324C4.909 6.324 6.324 4.909 6.324 3.162L6.324 3.162C6.324 1.415 4.909 0 3.162 0L3.162 0C1.416 0 0 1.415 0 3.162" transform="translate(0.64 0.889)" id="Clip-9" fill="none" stroke="none" />
        <g clip-path="url(#mask_1)">
          <path d="M0 3.162C0 4.909 1.416 6.324 3.162 6.324L3.162 6.324C4.909 6.324 6.324 4.909 6.324 3.162L6.324 3.162C6.324 1.415 4.909 0 3.162 0L3.162 0C1.416 0 0 1.415 0 3.162" transform="translate(0.64 0.889)" id="Fill-8" fill="url(#gradient_1)" stroke="none" />
        </g>
      </g>
      <g id="Group-13" transform="translate(20 52.1631)">
        <path d="M0 3.162C0 4.908 1.416 6.325 3.162 6.325L3.162 6.325C4.909 6.325 6.324 4.908 6.324 3.162L6.324 3.162C6.324 1.416 4.909 0 3.162 0L3.162 0C1.416 0 0 1.416 0 3.162" transform="translate(0.64 0.353)" id="Clip-12" fill="none" stroke="none" />
        <g clip-path="url(#mask_2)">
          <path d="M0 3.162C0 4.908 1.416 6.325 3.162 6.325L3.162 6.325C4.909 6.325 6.324 4.908 6.324 3.162L6.324 3.162C6.324 1.416 4.909 0 3.162 0L3.162 0C1.416 0 0 1.416 0 3.162" transform="translate(0.64 0.353)" id="Fill-11" fill="url(#gradient_2)" stroke="none" />
        </g>
      </g>
      <g id="Group-16" transform="translate(20 64.1631)">
        <path d="M0 3.161C0 4.907 1.416 6.324 3.162 6.324L3.162 6.324C4.909 6.324 6.324 4.907 6.324 3.161L6.324 3.161C6.324 1.414 4.909 0 3.162 0L3.162 0C1.416 0 0 1.414 0 3.161" transform="translate(0.64 0.788)" id="Clip-15" fill="none" stroke="none" />
        <g clip-path="url(#mask_3)">
          <path d="M0 3.161C0 4.907 1.416 6.324 3.162 6.324L3.162 6.324C4.909 6.324 6.324 4.907 6.324 3.161L6.324 3.161C6.324 1.414 4.909 0 3.162 0L3.162 0C1.416 0 0 1.414 0 3.161" transform="translate(0.64 0.788)" id="Fill-14" fill="url(#gradient_3)" stroke="none" />
        </g>
      </g>
      <g id="Group-19" transform="translate(13 0.1631)">
        <path d="M0 10.493C0 4.707 4.707 0 10.493 0L51.101 0C56.887 0 61.594 4.707 61.594 10.493L61.594 71.655C61.594 77.441 56.887 82.148 51.101 82.148L10.493 82.148C4.707 82.148 0 77.441 0 71.655L0 10.493ZM3.094 10.493L3.094 71.655C3.094 75.734 6.413 79.054 10.493 79.054L51.101 79.054C55.181 79.054 58.5 75.734 58.5 71.655L58.5 10.493C58.5 6.414 55.181 3.094 51.101 3.094L10.493 3.094C6.413 3.094 3.094 6.414 3.094 10.493Z" transform="translate(0.256 0.837)" id="Clip-18" fill="none" fill-rule="evenodd" stroke="none" />
        <g clip-path="url(#mask_4)">
          <path d="M0 10.493C0 4.707 4.707 0 10.493 0L51.101 0C56.887 0 61.594 4.707 61.594 10.493L61.594 71.655C61.594 77.441 56.887 82.148 51.101 82.148L10.493 82.148C4.707 82.148 0 77.441 0 71.655L0 10.493ZM3.094 10.493L3.094 71.655C3.094 75.734 6.413 79.054 10.493 79.054L51.101 79.054C55.181 79.054 58.5 75.734 58.5 71.655L58.5 10.493C58.5 6.414 55.181 3.094 51.101 3.094L10.493 3.094C6.413 3.094 3.094 6.414 3.094 10.493Z" transform="translate(0.256 0.837)" id="Fill-17" fill="url(#gradient_4)" fill-rule="evenodd" stroke="none" />
        </g>
      </g>
      <g id="Group-22" transform="translate(0 28.1631)">
        <path d="M5.62153 0.367C5.41253 0.548 0.509527 4.879 0.203527 12.389L0.203527 12.389C0.0365265 13.508 -1.13147 22.623 4.77053 25.622L4.77053 25.622C4.87853 25.676 4.99053 25.717 5.10453 25.743L5.10453 25.743L5.10453 52.784C5.10453 53.612 5.77653 54.283 6.60453 54.283L6.60453 54.283C7.43253 54.283 8.10453 53.612 8.10453 52.784L8.10453 52.784L8.10453 1.5C8.10453 0.913 7.76153 0.38 7.22753 0.136L7.22753 0.136C7.02753 0.045 6.81553 0 6.60353 0L6.60353 0C6.25053 0 5.90053 0.126 5.62153 0.367M3.17953 12.776C3.18953 12.714 3.19653 12.65 3.19853 12.587L3.19853 12.587C3.29753 9.826 4.16553 7.56 5.10453 5.893L5.10453 5.893L5.10453 22.223C2.14353 19.419 3.16753 12.849 3.17953 12.776" transform="translate(0.0004734536 0.717)" id="Clip-21" fill="none" stroke="none" />
        <g clip-path="url(#mask_5)">
          <path d="M5.62153 0.367C5.41253 0.548 0.509527 4.879 0.203527 12.389L0.203527 12.389C0.0365265 13.508 -1.13147 22.623 4.77053 25.622L4.77053 25.622C4.87853 25.676 4.99053 25.717 5.10453 25.743L5.10453 25.743L5.10453 52.784C5.10453 53.612 5.77653 54.283 6.60453 54.283L6.60453 54.283C7.43253 54.283 8.10453 53.612 8.10453 52.784L8.10453 52.784L8.10453 1.5C8.10453 0.913 7.76153 0.38 7.22753 0.136L7.22753 0.136C7.02753 0.045 6.81553 0 6.60353 0L6.60353 0C6.25053 0 5.90053 0.126 5.62153 0.367M3.17953 12.776C3.18953 12.714 3.19653 12.65 3.19853 12.587L3.19853 12.587C3.29753 9.826 4.16553 7.56 5.10453 5.893L5.10453 5.893L5.10453 22.223C2.14353 19.419 3.16753 12.849 3.17953 12.776" transform="translate(0.0004734536 0.717)" id="Fill-20" fill="url(#gradient_5)" stroke="none" />
        </g>
      </g>
      <g id="Group-25" transform="translate(79 31.1631)">
        <path d="M11.75 1.5L11.75 14.545C11.75 16.957 9.787 18.92 7.375 18.92L7.375 18.92C4.963 18.92 3 16.957 3 14.545L3 14.545L3 1.5C3 0.672 2.328 0 1.5 0L1.5 0C0.672 0 0 0.672 0 1.5L0 1.5L0 14.545C0 18.097 2.525 21.07 5.875 21.766L5.875 21.766L5.875 50.282C5.875 51.11 6.547 51.781 7.375 51.781L7.375 51.781C8.203 51.781 8.875 51.11 8.875 50.282L8.875 50.282L8.875 21.766C12.224 21.07 14.75 18.097 14.75 14.545L14.75 14.545L14.75 1.5C14.75 0.672 14.078 0 13.25 0L13.25 0C12.422 0 11.75 0.672 11.75 1.5" transform="translate(0.061 0.219)" id="Clip-24" fill="none" stroke="none" />
        <g clip-path="url(#mask_6)">
          <path d="M11.75 1.5L11.75 14.545C11.75 16.957 9.787 18.92 7.375 18.92L7.375 18.92C4.963 18.92 3 16.957 3 14.545L3 14.545L3 1.5C3 0.672 2.328 0 1.5 0L1.5 0C0.672 0 0 0.672 0 1.5L0 1.5L0 14.545C0 18.097 2.525 21.07 5.875 21.766L5.875 21.766L5.875 50.282C5.875 51.11 6.547 51.781 7.375 51.781L7.375 51.781C8.203 51.781 8.875 51.11 8.875 50.282L8.875 50.282L8.875 21.766C12.224 21.07 14.75 18.097 14.75 14.545L14.75 14.545L14.75 1.5C14.75 0.672 14.078 0 13.25 0L13.25 0C12.422 0 11.75 0.672 11.75 1.5" transform="translate(0.061 0.219)" id="Fill-23" fill="url(#gradient_6)" stroke="none" />
        </g>
      </g>
      <g id="Group-28" transform="translate(84 31.1631)">
        <path d="M0 1.5L0 13.191C0 14.019 0.672 14.69 1.5 14.69L1.5 14.69C2.328 14.69 3 14.019 3 13.191L3 13.191L3 1.5C3 0.672 2.328 0 1.5 0L1.5 0C0.672 0 0 0.672 0 1.5" transform="translate(0.936 0.219)" id="Clip-27" fill="none" stroke="none" />
        <g clip-path="url(#mask_7)">
          <path d="M0 1.5L0 13.191C0 14.019 0.672 14.69 1.5 14.69L1.5 14.69C2.328 14.69 3 14.019 3 13.191L3 13.191L3 1.5C3 0.672 2.328 0 1.5 0L1.5 0C0.672 0 0 0.672 0 1.5" transform="translate(0.936 0.219)" id="Fill-26" fill="url(#gradient_7)" stroke="none" />
        </g>
      </g>
      <g id="Group-31" transform="translate(25 17.1631)">
        <path d="M1.00706 0.274C0.026057 0.845 -0.270943 2.084 0.261057 3.088L0.261057 3.088C0.708057 3.928 1.70106 4.118 1.70106 4.118L1.70106 4.118C1.91406 4.181 2.78606 4.425 3.12806 5.012L3.12806 5.012C3.47006 5.6 3.24806 6.478 3.19706 6.693L3.19706 6.693C3.19706 6.693 2.87106 7.651 3.38006 8.455L3.38006 8.455C3.98806 9.414 5.21106 9.772 6.19306 9.201L6.19306 9.201C7.17706 8.629 7.47206 7.391 6.93906 6.387L6.93906 6.387C6.49406 5.546 5.50106 5.357 5.50106 5.357L5.50106 5.357C5.28806 5.293 4.41506 5.05 4.07406 4.462L4.07406 4.462C3.73306 3.875 3.95406 2.996 4.00406 2.779L4.00406 2.779C4.00406 2.779 4.33106 1.823 3.82206 1.02L3.82206 1.02C3.41206 0.373 2.72406 0 2.01806 0L2.01806 0C1.67506 0 1.32906 0.087 1.00706 0.274" transform="translate(0.267943 0.703)" id="Clip-30" fill="none" stroke="none" />
        <g clip-path="url(#mask_8)">
          <path d="M1.00706 0.274C0.026057 0.845 -0.270943 2.084 0.261057 3.088L0.261057 3.088C0.708057 3.928 1.70106 4.118 1.70106 4.118L1.70106 4.118C1.91406 4.181 2.78606 4.425 3.12806 5.012L3.12806 5.012C3.47006 5.6 3.24806 6.478 3.19706 6.693L3.19706 6.693C3.19706 6.693 2.87106 7.651 3.38006 8.455L3.38006 8.455C3.98806 9.414 5.21106 9.772 6.19306 9.201L6.19306 9.201C7.17706 8.629 7.47206 7.391 6.93906 6.387L6.93906 6.387C6.49406 5.546 5.50106 5.357 5.50106 5.357L5.50106 5.357C5.28806 5.293 4.41506 5.05 4.07406 4.462L4.07406 4.462C3.73306 3.875 3.95406 2.996 4.00406 2.779L4.00406 2.779C4.00406 2.779 4.33106 1.823 3.82206 1.02L3.82206 1.02C3.41206 0.373 2.72406 0 2.01806 0L2.01806 0C1.67506 0 1.32906 0.087 1.00706 0.274" transform="translate(0.267943 0.703)" id="Fill-29" fill="url(#gradient_8)" stroke="none" />
        </g>
      </g>
      <g id="Group-34" transform="translate(22 23.1631)">
        <path d="M0.528613 0.668C-0.0303867 1.285 -0.159387 2.216 0.205613 2.962L0.205613 2.962C0.574613 3.72 1.41461 4.186 2.25261 4.106L2.25261 4.106C3.11361 4.024 3.85661 3.376 4.06061 2.536L4.06061 2.536C4.27361 1.661 3.85961 0.71 3.07761 0.263L3.07761 0.263C2.76761 0.086 2.41761 0 2.06861 0L2.06861 0C1.49561 0 0.923613 0.232 0.528613 0.668" transform="translate(0.2083867 0.063)" id="Clip-33" fill="none" stroke="none" />
        <g clip-path="url(#mask_9)">
          <path d="M0.528613 0.668C-0.0303867 1.285 -0.159387 2.216 0.205613 2.962L0.205613 2.962C0.574613 3.72 1.41461 4.186 2.25261 4.106L2.25261 4.106C3.11361 4.024 3.85661 3.376 4.06061 2.536L4.06061 2.536C4.27361 1.661 3.85961 0.71 3.07761 0.263L3.07761 0.263C2.76761 0.086 2.41761 0 2.06861 0L2.06861 0C1.49561 0 0.923613 0.232 0.528613 0.668" transform="translate(0.2083867 0.063)" id="Fill-32" fill="url(#gradient_9)" stroke="none" />
        </g>
      </g>
      <g id="Group-37" transform="translate(28 12.1631)">
        <path d="M1.0075 0.274C0.024496 0.846 -0.270504 2.083 0.261496 3.089L0.261496 3.089C0.707496 3.928 1.7005 4.119 1.7005 4.119L1.7005 4.119C1.9135 4.182 2.7865 4.424 3.1275 5.013L3.1275 5.013C3.4695 5.601 3.2475 6.478 3.1975 6.695L3.1975 6.695C3.1975 6.695 2.8745 7.643 3.3715 8.443L3.3715 8.443C3.8205 9.272 4.8045 9.46 4.8045 9.46L4.8045 9.46C5.0155 9.523 5.8885 9.767 6.2295 10.354L6.2295 10.354C6.5715 10.942 6.3495 11.82 6.2995 12.035L6.2995 12.035C6.2995 12.035 5.9735 12.993 6.4815 13.797L6.4815 13.797C7.0905 14.756 8.3125 15.114 9.2955 14.543L9.2955 14.543C10.2795 13.971 10.5745 12.733 10.0425 11.729L10.0425 11.729C9.5955 10.888 8.6035 10.699 8.6035 10.699L8.6035 10.699C8.3905 10.635 7.5175 10.392 7.1755 9.804L7.1755 9.804C6.8355 9.217 7.0555 8.338 7.1065 8.121L7.1065 8.121C7.1065 8.121 7.4305 7.175 6.9315 6.375L6.9315 6.375C6.4835 5.546 5.4995 5.358 5.4995 5.358L5.4995 5.358C5.2875 5.294 4.4155 5.051 4.0735 4.463L4.0735 4.463C3.7315 3.876 3.9535 2.997 4.0045 2.781L4.0045 2.781C4.0045 2.781 4.3315 1.824 3.8215 1.02L3.8215 1.02C3.4115 0.373 2.7225 0 2.0165 0L2.0165 0C1.6745 0 1.3285 0.088 1.0075 0.274" transform="translate(0.319504 0.361)" id="Clip-36" fill="none" stroke="none" />
        <g clip-path="url(#mask_10)">
          <path d="M1.0075 0.274C0.024496 0.846 -0.270504 2.083 0.261496 3.089L0.261496 3.089C0.707496 3.928 1.7005 4.119 1.7005 4.119L1.7005 4.119C1.9135 4.182 2.7865 4.424 3.1275 5.013L3.1275 5.013C3.4695 5.601 3.2475 6.478 3.1975 6.695L3.1975 6.695C3.1975 6.695 2.8745 7.643 3.3715 8.443L3.3715 8.443C3.8205 9.272 4.8045 9.46 4.8045 9.46L4.8045 9.46C5.0155 9.523 5.8885 9.767 6.2295 10.354L6.2295 10.354C6.5715 10.942 6.3495 11.82 6.2995 12.035L6.2995 12.035C6.2995 12.035 5.9735 12.993 6.4815 13.797L6.4815 13.797C7.0905 14.756 8.3125 15.114 9.2955 14.543L9.2955 14.543C10.2795 13.971 10.5745 12.733 10.0425 11.729L10.0425 11.729C9.5955 10.888 8.6035 10.699 8.6035 10.699L8.6035 10.699C8.3905 10.635 7.5175 10.392 7.1755 9.804L7.1755 9.804C6.8355 9.217 7.0555 8.338 7.1065 8.121L7.1065 8.121C7.1065 8.121 7.4305 7.175 6.9315 6.375L6.9315 6.375C6.4835 5.546 5.4995 5.358 5.4995 5.358L5.4995 5.358C5.2875 5.294 4.4155 5.051 4.0735 4.463L4.0735 4.463C3.7315 3.876 3.9535 2.997 4.0045 2.781L4.0045 2.781C4.0045 2.781 4.3315 1.824 3.8215 1.02L3.8215 1.02C3.4115 0.373 2.7225 0 2.0165 0L2.0165 0C1.6745 0 1.3285 0.088 1.0075 0.274" transform="translate(0.319504 0.361)" id="Fill-35" fill="url(#gradient_10)" stroke="none" />
        </g>
      </g>
      <g id="Group-44" transform="translate(43 17.1631)">
        <path d="M5.993 0L5.993 1.769L2.223 1.769L2.223 3.783L5.136 3.783L5.136 5.474L2.223 5.474L2.223 9.191L0 9.191L0 0L5.993 0Z" transform="translate(0.5718 0.6468)" id="Fill-38" fill="#FFFFFF" stroke="none" />
        <path d="M4.134 2.938C4.134 2.227 3.826 1.872 3.211 1.872C2.864 1.872 2.611 1.994 2.45 2.236C2.29 2.479 2.201 2.856 2.184 3.367L0.013 3.367C0.065 2.249 0.403 1.409 1.027 0.845C1.651 0.282 2.44 0 3.393 0C4.389 0 5.142 0.251 5.649 0.754C6.155 1.256 6.408 1.911 6.408 2.717C6.408 3.61 6.067 4.483 5.382 5.336C4.697 6.19 3.878 6.912 2.925 7.5L6.552 7.5L6.552 9.295L0 9.295L0 7.631C2.756 5.664 4.134 4.099 4.134 2.938" transform="translate(7.384 0.4393)" id="Fill-40" fill="#FFFFFF" stroke="none" />
        <path d="M5.044 0.331C5.503 0.553 5.852 0.855 6.09 1.241C6.328 1.627 6.448 2.062 6.448 2.548C6.448 3.145 6.294 3.627 5.986 3.991C5.679 4.354 5.295 4.585 4.836 4.68L4.836 4.745C6.023 5.126 6.617 5.867 6.617 6.968C6.617 7.496 6.495 7.967 6.253 8.378C6.01 8.79 5.657 9.11 5.193 9.34C4.73 9.57 4.173 9.685 3.523 9.685C2.465 9.685 1.627 9.425 1.007 8.904C0.388 8.385 0.052 7.592 0 6.525L2.171 6.525C2.189 6.934 2.301 7.254 2.509 7.487C2.717 7.722 3.021 7.839 3.419 7.839C3.739 7.839 3.993 7.743 4.18 7.553C4.365 7.362 4.459 7.115 4.459 6.811C4.459 6.058 3.913 5.681 2.82 5.681L2.405 5.681L2.405 3.874L2.808 3.874C3.787 3.892 4.276 3.54 4.276 2.82C4.276 2.509 4.192 2.268 4.023 2.1C3.855 1.931 3.627 1.846 3.341 1.846C3.028 1.846 2.782 1.952 2.6 2.164C2.418 2.377 2.314 2.66 2.288 3.016L0.117 3.016C0.16 2.045 0.463 1.3 1.026 0.779C1.59 0.26 2.379 0 3.393 0C4.034 0 4.584 0.11 5.044 0.331" transform="translate(14.8333 0.2445)" id="Fill-42" fill="#FFFFFF" stroke="none" />
      </g>
    </g>
  </g>
</svg>