<?xml version="1.0" encoding="utf-8"?>
<!-- Generator: Adobe Illustrator 15.0.0, SVG Export Plug-In . SVG Version: 6.00 Build 0)  -->
<!DOCTYPE svg PUBLIC "-//W3C//DTD SVG 1.1//EN" "http://www.w3.org/Graphics/SVG/1.1/DTD/svg11.dtd">
<svg version="1.1" xmlns="http://www.w3.org/2000/svg" xmlns:xlink="http://www.w3.org/1999/xlink" x="0px" y="0px"
	 width="84.083px" height="39px" viewBox="-2.167 -1.667 84.083 39" enable-background="new -2.167 -1.667 84.083 39"
	 xml:space="preserve">
<g id="no">
	<g id="Address-Tab-Copy-3_2_">
		<g id="BT-FULL_3_">
			<g id="Rectangle_3_">
				<g>
					<defs>
						<path id="SVGID_1_" d="M61.999-0.166h0.002c0.294,0,0.589,0.007,0.884,0.021c0.293,0.015,0.588,0.036,0.881,0.065
							c0.293,0.028,0.585,0.064,0.877,0.107c0.291,0.044,0.581,0.094,0.869,0.151c0.289,0.058,0.577,0.122,0.863,0.193
							c0.285,0.071,0.568,0.15,0.851,0.235c0.282,0.086,0.562,0.179,0.839,0.277c0.277,0.1,0.553,0.205,0.824,0.318
							c0.272,0.112,0.541,0.231,0.809,0.357c0.266,0.126,0.529,0.259,0.789,0.397s0.516,0.284,0.768,0.436
							C71.507,2.546,71.756,2.703,72,2.867c0.246,0.164,0.486,0.333,0.723,0.509s0.469,0.356,0.697,0.543
							c0.227,0.188,0.45,0.38,0.668,0.577c0.219,0.198,0.432,0.401,0.641,0.609c0.208,0.208,0.411,0.422,0.609,0.64
							c0.197,0.219,0.39,0.441,0.576,0.669c0.188,0.228,0.368,0.46,0.544,0.696c0.175,0.237,0.345,0.478,0.509,0.723
							s0.321,0.494,0.473,0.746c0.151,0.253,0.297,0.509,0.436,0.769s0.271,0.523,0.396,0.789c0.127,0.267,0.246,0.536,0.358,0.809
							c0.112,0.271,0.219,0.547,0.317,0.824c0.1,0.277,0.192,0.557,0.277,0.839c0.086,0.281,0.164,0.565,0.236,0.851
							c0.071,0.286,0.136,0.573,0.193,0.862c0.057,0.289,0.107,0.579,0.15,0.87c0.044,0.292,0.08,0.584,0.108,0.877
							c0.029,0.293,0.051,0.587,0.065,0.881C79.992,17.244,80,17.538,80,17.833v0.002c0,0.294-0.008,0.589-0.021,0.884
							c-0.015,0.293-0.036,0.588-0.065,0.881c-0.028,0.293-0.064,0.585-0.108,0.877c-0.043,0.291-0.094,0.581-0.15,0.869
							c-0.058,0.289-0.122,0.577-0.193,0.863c-0.072,0.285-0.15,0.568-0.236,0.851c-0.085,0.282-0.178,0.562-0.277,0.839
							c-0.099,0.277-0.205,0.553-0.317,0.824c-0.112,0.272-0.231,0.541-0.358,0.809c-0.125,0.266-0.258,0.529-0.396,0.789
							s-0.284,0.516-0.436,0.768c-0.151,0.253-0.309,0.502-0.473,0.746c-0.164,0.246-0.334,0.486-0.509,0.723
							c-0.176,0.236-0.356,0.469-0.544,0.697c-0.187,0.227-0.379,0.45-0.576,0.668c-0.198,0.219-0.401,0.432-0.609,0.641
							c-0.209,0.208-0.422,0.411-0.641,0.609c-0.218,0.197-0.441,0.39-0.668,0.576c-0.229,0.188-0.461,0.368-0.697,0.544
							c-0.236,0.175-0.477,0.345-0.723,0.509c-0.244,0.164-0.493,0.321-0.746,0.473c-0.252,0.151-0.508,0.297-0.768,0.436
							s-0.523,0.271-0.789,0.396c-0.268,0.127-0.536,0.246-0.809,0.358c-0.271,0.112-0.547,0.219-0.824,0.317
							c-0.277,0.1-0.557,0.192-0.839,0.277c-0.282,0.086-0.565,0.164-0.851,0.236c-0.286,0.071-0.574,0.136-0.863,0.193
							c-0.288,0.057-0.578,0.107-0.869,0.15c-0.292,0.044-0.584,0.08-0.877,0.108c-0.293,0.029-0.588,0.051-0.881,0.065
							c-0.295,0.014-0.59,0.021-0.884,0.021h-0.002c-0.294,0-0.589-0.008-0.884-0.021c-0.293-0.015-0.588-0.036-0.881-0.065
							c-0.293-0.028-0.585-0.064-0.877-0.108c-0.291-0.043-0.581-0.094-0.869-0.15c-0.289-0.058-0.577-0.122-0.863-0.193
							c-0.285-0.072-0.568-0.15-0.851-0.236c-0.282-0.085-0.562-0.178-0.839-0.277c-0.277-0.099-0.553-0.205-0.824-0.317
							c-0.272-0.112-0.541-0.231-0.809-0.358c-0.266-0.125-0.529-0.258-0.789-0.396s-0.516-0.284-0.768-0.436
							c-0.253-0.151-0.502-0.309-0.746-0.473c-0.246-0.164-0.486-0.334-0.723-0.509c-0.236-0.176-0.469-0.356-0.697-0.544
							c-0.227-0.187-0.45-0.379-0.668-0.576c-0.219-0.198-0.432-0.401-0.641-0.609c-0.208-0.209-0.411-0.422-0.609-0.641
							c-0.197-0.218-0.39-0.441-0.576-0.668c-0.188-0.229-0.368-0.461-0.544-0.697c-0.175-0.236-0.345-0.477-0.509-0.723
							c-0.164-0.244-0.32-0.493-0.473-0.746c-0.151-0.252-0.297-0.508-0.436-0.768s-0.271-0.523-0.396-0.789
							c-0.127-0.268-0.246-0.536-0.358-0.809c-0.112-0.271-0.219-0.547-0.317-0.824c-0.1-0.277-0.192-0.557-0.277-0.839
							c-0.086-0.282-0.164-0.565-0.236-0.851c-0.071-0.286-0.136-0.574-0.193-0.863c-0.057-0.288-0.107-0.578-0.15-0.869
							c-0.044-0.292-0.08-0.584-0.108-0.877c-0.029-0.293-0.051-0.588-0.065-0.881C44.008,18.424,44,18.129,44,17.835v-0.002
							c0-0.295,0.008-0.589,0.021-0.884c0.015-0.294,0.036-0.588,0.065-0.881c0.028-0.293,0.064-0.585,0.108-0.877
							c0.043-0.291,0.094-0.581,0.15-0.87c0.058-0.289,0.122-0.576,0.193-0.862c0.072-0.285,0.15-0.569,0.236-0.851
							c0.085-0.282,0.178-0.562,0.277-0.839c0.099-0.277,0.205-0.553,0.317-0.824c0.112-0.272,0.231-0.542,0.358-0.809
							c0.125-0.266,0.258-0.529,0.396-0.789s0.284-0.516,0.436-0.769c0.152-0.252,0.309-0.501,0.473-0.746s0.334-0.485,0.509-0.723
							c0.176-0.236,0.356-0.469,0.544-0.696c0.187-0.228,0.379-0.45,0.576-0.669c0.198-0.218,0.401-0.432,0.609-0.64
							c0.209-0.208,0.422-0.411,0.641-0.609c0.218-0.197,0.441-0.39,0.668-0.577c0.229-0.187,0.461-0.367,0.697-0.543
							S51.754,3.031,52,2.867c0.244-0.164,0.493-0.321,0.746-0.473c0.252-0.151,0.508-0.297,0.768-0.436s0.523-0.271,0.789-0.397
							c0.268-0.126,0.536-0.245,0.809-0.357c0.271-0.113,0.547-0.219,0.824-0.318c0.277-0.099,0.557-0.191,0.839-0.277
							c0.282-0.085,0.565-0.164,0.851-0.235c0.286-0.071,0.574-0.136,0.863-0.193c0.288-0.058,0.578-0.107,0.869-0.151
							c0.292-0.043,0.584-0.079,0.877-0.107c0.293-0.029,0.588-0.051,0.881-0.065C61.41-0.159,61.705-0.166,61.999-0.166z"/>
					</defs>
					<clipPath id="SVGID_2_">
						<use xlink:href="#SVGID_1_"  overflow="visible"/>
					</clipPath>
					<g clip-path="url(#SVGID_2_)">
						<g>
							<path id="path_1_3_" stroke="#000000" stroke-width="2" d="M61.999-0.166h0.002c0.294,0,0.589,0.007,0.884,0.021
								c0.293,0.015,0.588,0.036,0.881,0.065c0.293,0.028,0.585,0.064,0.877,0.107c0.291,0.044,0.581,0.094,0.869,0.151
								c0.289,0.058,0.577,0.122,0.863,0.193c0.285,0.071,0.568,0.15,0.851,0.235c0.282,0.086,0.562,0.179,0.839,0.277
								c0.277,0.1,0.553,0.205,0.824,0.318c0.272,0.112,0.541,0.231,0.809,0.357c0.266,0.126,0.529,0.259,0.789,0.397
								s0.516,0.284,0.768,0.436C71.507,2.546,71.756,2.703,72,2.867c0.246,0.164,0.486,0.333,0.723,0.509s0.469,0.356,0.697,0.543
								c0.227,0.188,0.45,0.38,0.668,0.577c0.219,0.198,0.432,0.401,0.641,0.609c0.208,0.208,0.411,0.422,0.609,0.64
								c0.197,0.219,0.39,0.441,0.576,0.669c0.188,0.228,0.368,0.46,0.544,0.696c0.175,0.237,0.345,0.478,0.509,0.723
								s0.321,0.494,0.473,0.746c0.151,0.253,0.297,0.509,0.436,0.769s0.271,0.523,0.396,0.789c0.127,0.267,0.246,0.536,0.358,0.809
								c0.112,0.271,0.219,0.547,0.317,0.824c0.1,0.277,0.192,0.557,0.277,0.839c0.086,0.281,0.164,0.565,0.236,0.851
								c0.071,0.286,0.136,0.573,0.193,0.862c0.057,0.289,0.107,0.579,0.15,0.87c0.044,0.292,0.08,0.584,0.108,0.877
								c0.029,0.293,0.051,0.587,0.065,0.881C79.992,17.244,80,17.538,80,17.833v0.002c0,0.294-0.008,0.589-0.021,0.884
								c-0.015,0.293-0.036,0.588-0.065,0.881c-0.028,0.293-0.064,0.585-0.108,0.877c-0.043,0.291-0.094,0.581-0.15,0.869
								c-0.058,0.289-0.122,0.577-0.193,0.863c-0.072,0.285-0.15,0.568-0.236,0.851c-0.085,0.282-0.178,0.562-0.277,0.839
								c-0.099,0.277-0.205,0.553-0.317,0.824c-0.112,0.272-0.231,0.541-0.358,0.809c-0.125,0.266-0.258,0.529-0.396,0.789
								s-0.284,0.516-0.436,0.768c-0.151,0.253-0.309,0.502-0.473,0.746c-0.164,0.246-0.334,0.486-0.509,0.723
								c-0.176,0.236-0.356,0.469-0.544,0.697c-0.187,0.227-0.379,0.45-0.576,0.668c-0.198,0.219-0.401,0.432-0.609,0.641
								c-0.209,0.208-0.422,0.411-0.641,0.609c-0.218,0.197-0.441,0.39-0.668,0.576c-0.229,0.188-0.461,0.368-0.697,0.544
								c-0.236,0.175-0.477,0.345-0.723,0.509c-0.244,0.164-0.493,0.321-0.746,0.473c-0.252,0.151-0.508,0.297-0.768,0.436
								s-0.523,0.271-0.789,0.396c-0.268,0.127-0.536,0.246-0.809,0.358c-0.271,0.112-0.547,0.219-0.824,0.317
								c-0.277,0.1-0.557,0.192-0.839,0.277c-0.282,0.086-0.565,0.164-0.851,0.236c-0.286,0.071-0.574,0.136-0.863,0.193
								c-0.288,0.057-0.578,0.107-0.869,0.15c-0.292,0.044-0.584,0.08-0.877,0.108c-0.293,0.029-0.588,0.051-0.881,0.065
								c-0.295,0.014-0.59,0.021-0.884,0.021h-0.002c-0.294,0-0.589-0.008-0.884-0.021c-0.293-0.015-0.588-0.036-0.881-0.065
								c-0.293-0.028-0.585-0.064-0.877-0.108c-0.291-0.043-0.581-0.094-0.869-0.15c-0.289-0.058-0.577-0.122-0.863-0.193
								c-0.285-0.072-0.568-0.15-0.851-0.236c-0.282-0.085-0.562-0.178-0.839-0.277c-0.277-0.099-0.553-0.205-0.824-0.317
								c-0.272-0.112-0.541-0.231-0.809-0.358c-0.266-0.125-0.529-0.258-0.789-0.396s-0.516-0.284-0.768-0.436
								c-0.253-0.151-0.502-0.309-0.746-0.473c-0.246-0.164-0.486-0.334-0.723-0.509c-0.236-0.176-0.469-0.356-0.697-0.544
								c-0.227-0.187-0.45-0.379-0.668-0.576c-0.219-0.198-0.432-0.401-0.641-0.609c-0.208-0.209-0.411-0.422-0.609-0.641
								c-0.197-0.218-0.39-0.441-0.576-0.668c-0.188-0.229-0.368-0.461-0.544-0.697c-0.175-0.236-0.345-0.477-0.509-0.723
								c-0.164-0.244-0.32-0.493-0.473-0.746c-0.151-0.252-0.297-0.508-0.436-0.768s-0.271-0.523-0.396-0.789
								c-0.127-0.268-0.246-0.536-0.358-0.809c-0.112-0.271-0.219-0.547-0.317-0.824c-0.1-0.277-0.192-0.557-0.277-0.839
								c-0.086-0.282-0.164-0.565-0.236-0.851c-0.071-0.286-0.136-0.574-0.193-0.863c-0.057-0.288-0.107-0.578-0.15-0.869
								c-0.044-0.292-0.08-0.584-0.108-0.877c-0.029-0.293-0.051-0.588-0.065-0.881C44.008,18.424,44,18.129,44,17.835v-0.002
								c0-0.295,0.008-0.589,0.021-0.884c0.015-0.294,0.036-0.588,0.065-0.881c0.028-0.293,0.064-0.585,0.108-0.877
								c0.043-0.291,0.094-0.581,0.15-0.87c0.058-0.289,0.122-0.576,0.193-0.862c0.072-0.285,0.15-0.569,0.236-0.851
								c0.085-0.282,0.178-0.562,0.277-0.839c0.099-0.277,0.205-0.553,0.317-0.824c0.112-0.272,0.231-0.542,0.358-0.809
								c0.125-0.266,0.258-0.529,0.396-0.789s0.284-0.516,0.436-0.769c0.152-0.252,0.309-0.501,0.473-0.746s0.334-0.485,0.509-0.723
								c0.176-0.236,0.356-0.469,0.544-0.696c0.187-0.228,0.379-0.45,0.576-0.669c0.198-0.218,0.401-0.432,0.609-0.64
								c0.209-0.208,0.422-0.411,0.641-0.609c0.218-0.197,0.441-0.39,0.668-0.577c0.229-0.187,0.461-0.367,0.697-0.543
								S51.754,3.031,52,2.867c0.244-0.164,0.493-0.321,0.746-0.473c0.252-0.151,0.508-0.297,0.768-0.436s0.523-0.271,0.789-0.397
								c0.268-0.126,0.536-0.245,0.809-0.357c0.271-0.113,0.547-0.219,0.824-0.318c0.277-0.099,0.557-0.191,0.839-0.277
								c0.282-0.085,0.565-0.164,0.851-0.235c0.286-0.071,0.574-0.136,0.863-0.193c0.288-0.058,0.578-0.107,0.869-0.151
								c0.292-0.043,0.584-0.079,0.877-0.107c0.293-0.029,0.588-0.051,0.881-0.065C61.41-0.159,61.705-0.166,61.999-0.166z"/>
						</g>
					</g>
				</g>
			</g>
		</g>
	</g>
</g>
<g id="Layer_1">
	<desc>Created with Lunacy</desc>
	<g id="Address-Tab-Copy-3">
		<g id="BT-FULL">
			<g id="Rectangle">
				<g>
					<defs>
						<path id="SVGID_3_" d="M17.999-0.166h0.002c0.294,0,0.589,0.007,0.884,0.021c0.293,0.015,0.588,0.036,0.881,0.065
							c0.293,0.028,0.585,0.064,0.877,0.107c0.291,0.044,0.581,0.094,0.869,0.151c0.289,0.058,0.577,0.122,0.863,0.193
							c0.285,0.071,0.568,0.15,0.851,0.235c0.282,0.086,0.562,0.179,0.839,0.277c0.277,0.1,0.553,0.205,0.824,0.318
							c0.272,0.112,0.541,0.231,0.809,0.357c0.266,0.126,0.529,0.259,0.789,0.397s0.516,0.284,0.768,0.436
							C27.507,2.546,27.756,2.703,28,2.867c0.246,0.164,0.486,0.333,0.723,0.509s0.469,0.356,0.697,0.543
							c0.227,0.188,0.45,0.38,0.668,0.577c0.219,0.198,0.432,0.401,0.641,0.609c0.208,0.208,0.411,0.422,0.609,0.64
							c0.197,0.219,0.39,0.441,0.576,0.669c0.188,0.228,0.368,0.46,0.544,0.696c0.175,0.237,0.345,0.478,0.509,0.723
							s0.321,0.494,0.473,0.746c0.151,0.253,0.297,0.509,0.436,0.769s0.271,0.523,0.396,0.789c0.127,0.267,0.246,0.536,0.358,0.809
							c0.112,0.271,0.219,0.547,0.317,0.824c0.1,0.277,0.192,0.557,0.277,0.839c0.086,0.281,0.164,0.565,0.236,0.851
							c0.071,0.286,0.136,0.573,0.193,0.862c0.057,0.289,0.107,0.579,0.15,0.87c0.044,0.292,0.08,0.584,0.108,0.877
							c0.029,0.293,0.051,0.587,0.065,0.881C35.992,17.244,36,17.538,36,17.833v0.002c0,0.294-0.008,0.589-0.021,0.884
							c-0.015,0.293-0.036,0.588-0.065,0.881c-0.028,0.293-0.064,0.585-0.108,0.877c-0.043,0.291-0.094,0.581-0.15,0.869
							c-0.058,0.289-0.122,0.577-0.193,0.863c-0.072,0.285-0.15,0.568-0.236,0.851c-0.085,0.282-0.178,0.562-0.277,0.839
							c-0.099,0.277-0.205,0.553-0.317,0.824c-0.112,0.272-0.231,0.541-0.358,0.809c-0.125,0.266-0.258,0.529-0.396,0.789
							s-0.284,0.516-0.436,0.768c-0.151,0.253-0.309,0.502-0.473,0.746c-0.164,0.246-0.334,0.486-0.509,0.723
							c-0.176,0.236-0.356,0.469-0.544,0.697c-0.187,0.227-0.379,0.45-0.576,0.668c-0.198,0.219-0.401,0.432-0.609,0.641
							c-0.209,0.208-0.422,0.411-0.641,0.609c-0.218,0.197-0.441,0.39-0.668,0.576c-0.229,0.188-0.461,0.368-0.697,0.544
							c-0.236,0.175-0.477,0.345-0.723,0.509c-0.244,0.164-0.493,0.321-0.746,0.473c-0.252,0.151-0.508,0.297-0.768,0.436
							s-0.523,0.271-0.789,0.396c-0.268,0.127-0.536,0.246-0.809,0.358c-0.271,0.112-0.547,0.219-0.824,0.317
							c-0.277,0.1-0.557,0.192-0.839,0.277c-0.282,0.086-0.565,0.164-0.851,0.236c-0.286,0.071-0.574,0.136-0.863,0.193
							c-0.288,0.057-0.578,0.107-0.869,0.15c-0.292,0.044-0.584,0.08-0.877,0.108c-0.293,0.029-0.588,0.051-0.881,0.065
							c-0.295,0.014-0.589,0.021-0.884,0.021h-0.002c-0.294,0-0.589-0.008-0.883-0.021c-0.294-0.015-0.588-0.036-0.881-0.065
							c-0.293-0.028-0.585-0.064-0.877-0.108c-0.292-0.043-0.582-0.094-0.87-0.15c-0.289-0.058-0.577-0.122-0.862-0.193
							c-0.286-0.072-0.569-0.15-0.851-0.236c-0.282-0.085-0.562-0.178-0.839-0.277c-0.277-0.099-0.552-0.205-0.824-0.317
							c-0.272-0.112-0.542-0.231-0.808-0.358c-0.266-0.125-0.529-0.258-0.789-0.396s-0.516-0.284-0.769-0.436
							C8.493,33.122,8.244,32.965,8,32.801c-0.245-0.164-0.486-0.334-0.723-0.509c-0.236-0.176-0.469-0.356-0.696-0.544
							c-0.228-0.187-0.451-0.379-0.669-0.576c-0.218-0.198-0.432-0.401-0.64-0.609c-0.208-0.209-0.412-0.422-0.609-0.641
							c-0.198-0.218-0.39-0.441-0.577-0.668c-0.187-0.229-0.368-0.461-0.543-0.697c-0.175-0.236-0.345-0.477-0.509-0.723
							c-0.164-0.244-0.321-0.493-0.473-0.746c-0.151-0.252-0.296-0.508-0.435-0.768c-0.139-0.26-0.271-0.523-0.397-0.789
							c-0.126-0.268-0.245-0.536-0.358-0.809c-0.113-0.271-0.219-0.547-0.318-0.824S0.86,23.342,0.775,23.06
							s-0.164-0.565-0.235-0.851c-0.072-0.286-0.136-0.574-0.194-0.863c-0.057-0.288-0.107-0.578-0.151-0.869
							c-0.043-0.292-0.079-0.584-0.108-0.877c-0.029-0.293-0.051-0.588-0.065-0.881C0.007,18.424,0,18.129,0,17.835v-0.002
							c0-0.295,0.007-0.589,0.021-0.884c0.015-0.294,0.036-0.588,0.065-0.881c0.029-0.293,0.064-0.585,0.108-0.877
							c0.043-0.291,0.094-0.581,0.151-0.87c0.058-0.289,0.122-0.576,0.194-0.862c0.071-0.285,0.15-0.569,0.235-0.851
							c0.085-0.282,0.178-0.562,0.277-0.839s0.205-0.553,0.318-0.824c0.113-0.272,0.232-0.542,0.358-0.809
							c0.126-0.266,0.258-0.529,0.397-0.789c0.139-0.26,0.284-0.516,0.435-0.769C2.712,8.327,2.87,8.078,3.033,7.833
							C3.197,7.588,3.367,7.348,3.542,7.11c0.176-0.236,0.357-0.469,0.543-0.696c0.187-0.228,0.379-0.45,0.577-0.669
							c0.198-0.218,0.401-0.432,0.609-0.64c0.208-0.208,0.421-0.411,0.64-0.609c0.218-0.197,0.441-0.39,0.669-0.577
							c0.228-0.187,0.46-0.367,0.696-0.543C7.514,3.2,7.754,3.031,8,2.867c0.245-0.164,0.494-0.321,0.746-0.473
							c0.253-0.151,0.509-0.297,0.769-0.436s0.523-0.271,0.789-0.397c0.267-0.126,0.536-0.245,0.808-0.357
							c0.272-0.113,0.547-0.219,0.824-0.318c0.277-0.099,0.557-0.191,0.839-0.277c0.282-0.085,0.565-0.164,0.851-0.235
							s0.573-0.136,0.862-0.193c0.289-0.058,0.579-0.107,0.87-0.151c0.292-0.043,0.584-0.079,0.877-0.107
							c0.293-0.029,0.587-0.051,0.881-0.065C17.41-0.159,17.705-0.166,17.999-0.166z"/>
					</defs>
					<clipPath id="SVGID_4_">
						<use xlink:href="#SVGID_3_"  overflow="visible"/>
					</clipPath>
					<g clip-path="url(#SVGID_4_)">
						<g>
							<path id="path_1" fill="none" stroke="#000000" stroke-width="2" d="M17.999-0.166h0.002c0.294,0,0.589,0.007,0.884,0.021
								c0.293,0.015,0.588,0.036,0.881,0.065c0.293,0.028,0.585,0.064,0.877,0.107c0.291,0.044,0.581,0.094,0.869,0.151
								c0.289,0.058,0.577,0.122,0.863,0.193c0.285,0.071,0.568,0.15,0.851,0.235c0.282,0.086,0.562,0.179,0.839,0.277
								c0.277,0.1,0.553,0.205,0.824,0.318c0.272,0.112,0.541,0.231,0.809,0.357c0.266,0.126,0.529,0.259,0.789,0.397
								s0.516,0.284,0.768,0.436C27.507,2.546,27.756,2.703,28,2.867c0.246,0.164,0.486,0.333,0.723,0.509s0.469,0.356,0.697,0.543
								c0.227,0.188,0.45,0.38,0.668,0.577c0.219,0.198,0.432,0.401,0.641,0.609c0.208,0.208,0.411,0.422,0.609,0.64
								c0.197,0.219,0.39,0.441,0.576,0.669c0.188,0.228,0.368,0.46,0.544,0.696c0.175,0.237,0.345,0.478,0.509,0.723
								s0.321,0.494,0.473,0.746c0.151,0.253,0.297,0.509,0.436,0.769s0.271,0.523,0.396,0.789c0.127,0.267,0.246,0.536,0.358,0.809
								c0.112,0.271,0.219,0.547,0.317,0.824c0.1,0.277,0.192,0.557,0.277,0.839c0.086,0.281,0.164,0.565,0.236,0.851
								c0.071,0.286,0.136,0.573,0.193,0.862c0.057,0.289,0.107,0.579,0.15,0.87c0.044,0.292,0.08,0.584,0.108,0.877
								c0.029,0.293,0.051,0.587,0.065,0.881C35.992,17.244,36,17.538,36,17.833v0.002c0,0.294-0.008,0.589-0.021,0.884
								c-0.015,0.293-0.036,0.588-0.065,0.881c-0.028,0.293-0.064,0.585-0.108,0.877c-0.043,0.291-0.094,0.581-0.15,0.869
								c-0.058,0.289-0.122,0.577-0.193,0.863c-0.072,0.285-0.15,0.568-0.236,0.851c-0.085,0.282-0.178,0.562-0.277,0.839
								c-0.099,0.277-0.205,0.553-0.317,0.824c-0.112,0.272-0.231,0.541-0.358,0.809c-0.125,0.266-0.258,0.529-0.396,0.789
								s-0.284,0.516-0.436,0.768c-0.151,0.253-0.309,0.502-0.473,0.746c-0.164,0.246-0.334,0.486-0.509,0.723
								c-0.176,0.236-0.356,0.469-0.544,0.697c-0.187,0.227-0.379,0.45-0.576,0.668c-0.198,0.219-0.401,0.432-0.609,0.641
								c-0.209,0.208-0.422,0.411-0.641,0.609c-0.218,0.197-0.441,0.39-0.668,0.576c-0.229,0.188-0.461,0.368-0.697,0.544
								c-0.236,0.175-0.477,0.345-0.723,0.509c-0.244,0.164-0.493,0.321-0.746,0.473c-0.252,0.151-0.508,0.297-0.768,0.436
								s-0.523,0.271-0.789,0.396c-0.268,0.127-0.536,0.246-0.809,0.358c-0.271,0.112-0.547,0.219-0.824,0.317
								c-0.277,0.1-0.557,0.192-0.839,0.277c-0.282,0.086-0.565,0.164-0.851,0.236c-0.286,0.071-0.574,0.136-0.863,0.193
								c-0.288,0.057-0.578,0.107-0.869,0.15c-0.292,0.044-0.584,0.08-0.877,0.108c-0.293,0.029-0.588,0.051-0.881,0.065
								c-0.295,0.014-0.589,0.021-0.884,0.021h-0.002c-0.294,0-0.589-0.008-0.883-0.021c-0.294-0.015-0.588-0.036-0.881-0.065
								c-0.293-0.028-0.585-0.064-0.877-0.108c-0.292-0.043-0.582-0.094-0.87-0.15c-0.289-0.058-0.577-0.122-0.862-0.193
								c-0.286-0.072-0.569-0.15-0.851-0.236c-0.282-0.085-0.562-0.178-0.839-0.277c-0.277-0.099-0.552-0.205-0.824-0.317
								c-0.272-0.112-0.542-0.231-0.808-0.358c-0.266-0.125-0.529-0.258-0.789-0.396s-0.516-0.284-0.769-0.436
								C8.493,33.122,8.244,32.965,8,32.801c-0.245-0.164-0.486-0.334-0.723-0.509c-0.236-0.176-0.469-0.356-0.696-0.544
								c-0.228-0.187-0.451-0.379-0.669-0.576c-0.218-0.198-0.432-0.401-0.64-0.609c-0.208-0.209-0.412-0.422-0.609-0.641
								c-0.198-0.218-0.39-0.441-0.577-0.668c-0.187-0.229-0.368-0.461-0.543-0.697c-0.175-0.236-0.345-0.477-0.509-0.723
								c-0.164-0.244-0.321-0.493-0.473-0.746c-0.151-0.252-0.296-0.508-0.435-0.768c-0.139-0.26-0.271-0.523-0.397-0.789
								c-0.126-0.268-0.245-0.536-0.358-0.809c-0.113-0.271-0.219-0.547-0.318-0.824S0.86,23.342,0.775,23.06
								s-0.164-0.565-0.235-0.851c-0.072-0.286-0.136-0.574-0.194-0.863c-0.057-0.288-0.107-0.578-0.151-0.869
								c-0.043-0.292-0.079-0.584-0.108-0.877c-0.029-0.293-0.051-0.588-0.065-0.881C0.007,18.424,0,18.129,0,17.835v-0.002
								c0-0.295,0.007-0.589,0.021-0.884c0.015-0.294,0.036-0.588,0.065-0.881c0.029-0.293,0.064-0.585,0.108-0.877
								c0.043-0.291,0.094-0.581,0.151-0.87c0.058-0.289,0.122-0.576,0.194-0.862c0.071-0.285,0.15-0.569,0.235-0.851
								c0.085-0.282,0.178-0.562,0.277-0.839s0.205-0.553,0.318-0.824c0.113-0.272,0.232-0.542,0.358-0.809
								c0.126-0.266,0.258-0.529,0.397-0.789c0.139-0.26,0.284-0.516,0.435-0.769C2.712,8.327,2.87,8.078,3.033,7.833
								C3.197,7.588,3.367,7.348,3.542,7.11c0.176-0.236,0.357-0.469,0.543-0.696c0.187-0.228,0.379-0.45,0.577-0.669
								c0.198-0.218,0.401-0.432,0.609-0.64c0.208-0.208,0.421-0.411,0.64-0.609c0.218-0.197,0.441-0.39,0.669-0.577
								c0.228-0.187,0.46-0.367,0.696-0.543C7.514,3.2,7.754,3.031,8,2.867c0.245-0.164,0.494-0.321,0.746-0.473
								c0.253-0.151,0.509-0.297,0.769-0.436s0.523-0.271,0.789-0.397c0.267-0.126,0.536-0.245,0.808-0.357
								c0.272-0.113,0.547-0.219,0.824-0.318c0.277-0.099,0.557-0.191,0.839-0.277c0.282-0.085,0.565-0.164,0.851-0.235
								s0.573-0.136,0.862-0.193c0.289-0.058,0.579-0.107,0.87-0.151c0.292-0.043,0.584-0.079,0.877-0.107
								c0.293-0.029,0.587-0.051,0.881-0.065C17.41-0.159,17.705-0.166,17.999-0.166z"/>
						</g>
					</g>
				</g>
			</g>
			<g id="SI" transform="translate(2 8)">
				<path d="M16.945,14.016c0.224-0.4,0.336-0.835,0.336-1.302c0-0.625-0.136-1.127-0.406-1.505s-0.6-0.66-0.987-0.848
					c-0.388-0.187-0.898-0.382-1.533-0.588c-0.522-0.168-0.933-0.319-1.232-0.455c-0.299-0.135-0.548-0.321-0.749-0.56
					s-0.301-0.549-0.301-0.931c0-0.485,0.154-0.861,0.462-1.127c0.308-0.267,0.719-0.399,1.232-0.399c0.56,0,1.003,0.149,1.33,0.448
					s0.527,0.644,0.602,1.036h1.371c-0.093-0.729-0.424-1.328-0.993-1.8c-0.569-0.471-1.339-0.707-2.31-0.707
					c-0.625,0-1.169,0.107-1.631,0.322c-0.462,0.215-0.817,0.519-1.064,0.91c-0.247,0.392-0.371,0.845-0.371,1.358
					c0,0.597,0.133,1.078,0.399,1.441c0.266,0.364,0.588,0.638,0.966,0.819s0.88,0.376,1.505,0.581
					c0.532,0.168,0.952,0.324,1.26,0.47c0.308,0.145,0.567,0.342,0.777,0.594s0.315,0.579,0.315,0.98
					c0,0.467-0.149,0.85-0.448,1.148c-0.299,0.299-0.728,0.447-1.288,0.447c-0.429,0-0.796-0.086-1.099-0.259
					s-0.537-0.392-0.7-0.657c-0.164-0.267-0.259-0.539-0.287-0.819h-1.358c0.046,0.532,0.222,1.005,0.525,1.421
					c0.303,0.415,0.709,0.742,1.218,0.98c0.509,0.237,1.09,0.356,1.743,0.356c0.672,0,1.237-0.126,1.694-0.378
					C16.38,14.744,16.721,14.418,16.945,14.016z M20.863,15.275v-9.87h-1.274v9.87H20.863z"/>
			</g>
		</g>
	</g>
	<g id="Address-Tab-Copy-4">
		<g id="BT-FULL_1_">
			<g id="Rectangle_1_">
				<g>
					<defs>
						<path id="SVGID_5_" d="M61.999-0.166h0.002c0.294,0,0.589,0.007,0.884,0.021c0.293,0.015,0.588,0.036,0.881,0.065
							c0.293,0.028,0.585,0.064,0.877,0.107c0.291,0.044,0.581,0.094,0.869,0.151c0.289,0.058,0.577,0.122,0.863,0.193
							c0.285,0.071,0.568,0.15,0.851,0.235c0.282,0.086,0.562,0.179,0.839,0.277c0.277,0.1,0.553,0.205,0.824,0.318
							c0.272,0.112,0.541,0.231,0.809,0.357c0.266,0.126,0.529,0.259,0.789,0.397s0.516,0.284,0.768,0.436
							C71.507,2.546,71.756,2.703,72,2.867c0.246,0.164,0.486,0.333,0.723,0.509s0.469,0.356,0.697,0.543
							c0.227,0.188,0.45,0.38,0.668,0.577c0.219,0.198,0.432,0.401,0.641,0.609c0.208,0.208,0.411,0.422,0.609,0.64
							c0.197,0.219,0.39,0.441,0.576,0.669c0.188,0.228,0.368,0.46,0.544,0.696c0.175,0.237,0.345,0.478,0.509,0.723
							s0.321,0.494,0.473,0.746c0.151,0.253,0.297,0.509,0.436,0.769s0.271,0.523,0.396,0.789c0.127,0.267,0.246,0.536,0.358,0.809
							c0.112,0.271,0.219,0.547,0.317,0.824c0.1,0.277,0.192,0.557,0.277,0.839c0.086,0.281,0.164,0.565,0.236,0.851
							c0.071,0.286,0.136,0.573,0.193,0.862c0.057,0.289,0.107,0.579,0.15,0.87c0.044,0.292,0.08,0.584,0.108,0.877
							c0.029,0.293,0.051,0.588,0.065,0.881C79.992,17.244,80,17.539,80,17.833v0.002c0,0.294-0.008,0.589-0.021,0.884
							c-0.015,0.293-0.036,0.588-0.065,0.881c-0.028,0.293-0.064,0.585-0.108,0.877c-0.043,0.291-0.094,0.581-0.15,0.869
							c-0.058,0.289-0.122,0.577-0.193,0.863c-0.072,0.285-0.15,0.568-0.236,0.851c-0.085,0.282-0.178,0.562-0.277,0.839
							c-0.099,0.277-0.205,0.553-0.317,0.824c-0.112,0.272-0.231,0.541-0.358,0.809c-0.125,0.266-0.258,0.529-0.396,0.789
							s-0.284,0.516-0.436,0.768c-0.151,0.253-0.309,0.502-0.473,0.746c-0.164,0.246-0.334,0.486-0.509,0.723
							c-0.176,0.236-0.356,0.469-0.544,0.697c-0.187,0.227-0.379,0.45-0.576,0.668c-0.198,0.219-0.401,0.432-0.609,0.641
							c-0.209,0.208-0.422,0.411-0.641,0.609c-0.218,0.197-0.441,0.39-0.668,0.576c-0.229,0.188-0.461,0.368-0.697,0.544
							c-0.236,0.175-0.477,0.345-0.723,0.509c-0.244,0.164-0.493,0.321-0.746,0.473c-0.252,0.151-0.508,0.297-0.768,0.436
							s-0.523,0.271-0.789,0.396c-0.268,0.127-0.536,0.246-0.809,0.358c-0.271,0.112-0.547,0.219-0.824,0.317
							c-0.277,0.1-0.557,0.192-0.839,0.277c-0.282,0.086-0.565,0.164-0.851,0.236c-0.286,0.071-0.574,0.136-0.863,0.193
							c-0.288,0.057-0.578,0.107-0.869,0.15c-0.292,0.044-0.584,0.08-0.877,0.108c-0.293,0.029-0.588,0.051-0.881,0.065
							c-0.295,0.014-0.59,0.021-0.884,0.021h-0.002c-0.294,0-0.589-0.008-0.884-0.021c-0.293-0.015-0.588-0.036-0.881-0.065
							c-0.293-0.028-0.585-0.064-0.877-0.108c-0.291-0.043-0.581-0.094-0.869-0.15c-0.289-0.058-0.577-0.122-0.863-0.193
							c-0.285-0.072-0.568-0.15-0.851-0.236c-0.282-0.085-0.562-0.178-0.839-0.277c-0.277-0.099-0.553-0.205-0.824-0.317
							c-0.272-0.112-0.541-0.231-0.809-0.358c-0.266-0.125-0.529-0.258-0.789-0.396s-0.516-0.284-0.768-0.436
							c-0.253-0.151-0.502-0.309-0.746-0.473c-0.246-0.164-0.486-0.334-0.723-0.509c-0.236-0.176-0.469-0.356-0.697-0.544
							c-0.227-0.187-0.45-0.379-0.668-0.576c-0.219-0.198-0.432-0.401-0.641-0.609c-0.208-0.209-0.411-0.422-0.609-0.641
							c-0.197-0.218-0.39-0.441-0.576-0.668c-0.188-0.229-0.368-0.461-0.544-0.697c-0.175-0.236-0.345-0.477-0.509-0.723
							c-0.164-0.244-0.32-0.493-0.473-0.746c-0.151-0.252-0.297-0.508-0.436-0.768s-0.271-0.523-0.396-0.789
							c-0.127-0.268-0.246-0.536-0.358-0.809c-0.112-0.271-0.219-0.547-0.317-0.824c-0.1-0.277-0.192-0.557-0.277-0.839
							c-0.086-0.282-0.164-0.565-0.236-0.851c-0.071-0.286-0.136-0.574-0.193-0.863c-0.057-0.288-0.107-0.578-0.15-0.869
							c-0.044-0.292-0.08-0.584-0.108-0.877c-0.029-0.293-0.051-0.588-0.065-0.881C44.008,18.424,44,18.129,44,17.835v-0.002
							c0-0.294,0.008-0.589,0.021-0.884c0.015-0.293,0.036-0.588,0.065-0.881c0.028-0.293,0.064-0.585,0.108-0.877
							c0.043-0.291,0.094-0.581,0.15-0.87c0.058-0.289,0.122-0.576,0.193-0.862c0.072-0.285,0.15-0.569,0.236-0.851
							c0.085-0.282,0.178-0.562,0.277-0.839c0.099-0.277,0.205-0.553,0.317-0.824c0.112-0.272,0.231-0.542,0.358-0.809
							c0.125-0.266,0.258-0.529,0.396-0.789s0.284-0.516,0.436-0.769c0.152-0.252,0.309-0.501,0.473-0.746s0.334-0.485,0.509-0.723
							c0.176-0.236,0.356-0.469,0.544-0.696c0.187-0.228,0.379-0.45,0.576-0.669c0.198-0.218,0.401-0.432,0.609-0.64
							c0.209-0.208,0.422-0.411,0.641-0.609c0.218-0.197,0.441-0.39,0.668-0.577c0.229-0.187,0.461-0.367,0.697-0.543
							S51.754,3.031,52,2.867c0.244-0.164,0.493-0.321,0.746-0.473c0.252-0.151,0.508-0.297,0.768-0.436s0.523-0.271,0.789-0.397
							c0.268-0.126,0.536-0.245,0.809-0.357c0.271-0.113,0.547-0.219,0.824-0.318c0.277-0.099,0.557-0.191,0.839-0.277
							c0.282-0.085,0.565-0.164,0.851-0.235c0.286-0.071,0.574-0.136,0.863-0.193c0.288-0.058,0.578-0.107,0.869-0.151
							c0.292-0.043,0.584-0.079,0.877-0.107c0.293-0.029,0.588-0.051,0.881-0.065C61.41-0.159,61.705-0.166,61.999-0.166z"/>
					</defs>
					<clipPath id="SVGID_6_">
						<use xlink:href="#SVGID_5_"  overflow="visible"/>
					</clipPath>
					<g clip-path="url(#SVGID_6_)">
						<g>
							<path id="path_1_1_" fill="none" stroke="#000000" stroke-width="2" d="M61.999-0.166h0.002c0.294,0,0.589,0.007,0.884,0.021
								c0.293,0.015,0.588,0.036,0.881,0.065c0.293,0.028,0.585,0.064,0.877,0.107c0.291,0.044,0.581,0.094,0.869,0.151
								c0.289,0.058,0.577,0.122,0.863,0.193c0.285,0.071,0.568,0.15,0.851,0.235c0.282,0.086,0.562,0.179,0.839,0.277
								c0.277,0.1,0.553,0.205,0.824,0.318c0.272,0.112,0.541,0.231,0.809,0.357c0.266,0.126,0.529,0.259,0.789,0.397
								s0.516,0.284,0.768,0.436C71.507,2.546,71.756,2.703,72,2.867c0.246,0.164,0.486,0.333,0.723,0.509s0.469,0.356,0.697,0.543
								c0.227,0.188,0.45,0.38,0.668,0.577c0.219,0.198,0.432,0.401,0.641,0.609c0.208,0.208,0.411,0.422,0.609,0.64
								c0.197,0.219,0.39,0.441,0.576,0.669c0.188,0.228,0.368,0.46,0.544,0.696c0.175,0.237,0.345,0.478,0.509,0.723
								s0.321,0.494,0.473,0.746c0.151,0.253,0.297,0.509,0.436,0.769s0.271,0.523,0.396,0.789c0.127,0.267,0.246,0.536,0.358,0.809
								c0.112,0.271,0.219,0.547,0.317,0.824c0.1,0.277,0.192,0.557,0.277,0.839c0.086,0.281,0.164,0.565,0.236,0.851
								c0.071,0.286,0.136,0.573,0.193,0.862c0.057,0.289,0.107,0.579,0.15,0.87c0.044,0.292,0.08,0.584,0.108,0.877
								c0.029,0.293,0.051,0.588,0.065,0.881C79.992,17.244,80,17.539,80,17.833v0.002c0,0.294-0.008,0.589-0.021,0.884
								c-0.015,0.293-0.036,0.588-0.065,0.881c-0.028,0.293-0.064,0.585-0.108,0.877c-0.043,0.291-0.094,0.581-0.15,0.869
								c-0.058,0.289-0.122,0.577-0.193,0.863c-0.072,0.285-0.15,0.568-0.236,0.851c-0.085,0.282-0.178,0.562-0.277,0.839
								c-0.099,0.277-0.205,0.553-0.317,0.824c-0.112,0.272-0.231,0.541-0.358,0.809c-0.125,0.266-0.258,0.529-0.396,0.789
								s-0.284,0.516-0.436,0.768c-0.151,0.253-0.309,0.502-0.473,0.746c-0.164,0.246-0.334,0.486-0.509,0.723
								c-0.176,0.236-0.356,0.469-0.544,0.697c-0.187,0.227-0.379,0.45-0.576,0.668c-0.198,0.219-0.401,0.432-0.609,0.641
								c-0.209,0.208-0.422,0.411-0.641,0.609c-0.218,0.197-0.441,0.39-0.668,0.576c-0.229,0.188-0.461,0.368-0.697,0.544
								c-0.236,0.175-0.477,0.345-0.723,0.509c-0.244,0.164-0.493,0.321-0.746,0.473c-0.252,0.151-0.508,0.297-0.768,0.436
								s-0.523,0.271-0.789,0.396c-0.268,0.127-0.536,0.246-0.809,0.358c-0.271,0.112-0.547,0.219-0.824,0.317
								c-0.277,0.1-0.557,0.192-0.839,0.277c-0.282,0.086-0.565,0.164-0.851,0.236c-0.286,0.071-0.574,0.136-0.863,0.193
								c-0.288,0.057-0.578,0.107-0.869,0.15c-0.292,0.044-0.584,0.08-0.877,0.108c-0.293,0.029-0.588,0.051-0.881,0.065
								c-0.295,0.014-0.59,0.021-0.884,0.021h-0.002c-0.294,0-0.589-0.008-0.884-0.021c-0.293-0.015-0.588-0.036-0.881-0.065
								c-0.293-0.028-0.585-0.064-0.877-0.108c-0.291-0.043-0.581-0.094-0.869-0.15c-0.289-0.058-0.577-0.122-0.863-0.193
								c-0.285-0.072-0.568-0.15-0.851-0.236c-0.282-0.085-0.562-0.178-0.839-0.277c-0.277-0.099-0.553-0.205-0.824-0.317
								c-0.272-0.112-0.541-0.231-0.809-0.358c-0.266-0.125-0.529-0.258-0.789-0.396s-0.516-0.284-0.768-0.436
								c-0.253-0.151-0.502-0.309-0.746-0.473c-0.246-0.164-0.486-0.334-0.723-0.509c-0.236-0.176-0.469-0.356-0.697-0.544
								c-0.227-0.187-0.45-0.379-0.668-0.576c-0.219-0.198-0.432-0.401-0.641-0.609c-0.208-0.209-0.411-0.422-0.609-0.641
								c-0.197-0.218-0.39-0.441-0.576-0.668c-0.188-0.229-0.368-0.461-0.544-0.697c-0.175-0.236-0.345-0.477-0.509-0.723
								c-0.164-0.244-0.32-0.493-0.473-0.746c-0.151-0.252-0.297-0.508-0.436-0.768s-0.271-0.523-0.396-0.789
								c-0.127-0.268-0.246-0.536-0.358-0.809c-0.112-0.271-0.219-0.547-0.317-0.824c-0.1-0.277-0.192-0.557-0.277-0.839
								c-0.086-0.282-0.164-0.565-0.236-0.851c-0.071-0.286-0.136-0.574-0.193-0.863c-0.057-0.288-0.107-0.578-0.15-0.869
								c-0.044-0.292-0.08-0.584-0.108-0.877c-0.029-0.293-0.051-0.588-0.065-0.881C44.008,18.424,44,18.129,44,17.835v-0.002
								c0-0.294,0.008-0.589,0.021-0.884c0.015-0.293,0.036-0.588,0.065-0.881c0.028-0.293,0.064-0.585,0.108-0.877
								c0.043-0.291,0.094-0.581,0.15-0.87c0.058-0.289,0.122-0.576,0.193-0.862c0.072-0.285,0.15-0.569,0.236-0.851
								c0.085-0.282,0.178-0.562,0.277-0.839c0.099-0.277,0.205-0.553,0.317-0.824c0.112-0.272,0.231-0.542,0.358-0.809
								c0.125-0.266,0.258-0.529,0.396-0.789s0.284-0.516,0.436-0.769c0.152-0.252,0.309-0.501,0.473-0.746s0.334-0.485,0.509-0.723
								c0.176-0.236,0.356-0.469,0.544-0.696c0.187-0.228,0.379-0.45,0.576-0.669c0.198-0.218,0.401-0.432,0.609-0.64
								c0.209-0.208,0.422-0.411,0.641-0.609c0.218-0.197,0.441-0.39,0.668-0.577c0.229-0.187,0.461-0.367,0.697-0.543
								S51.754,3.031,52,2.867c0.244-0.164,0.493-0.321,0.746-0.473c0.252-0.151,0.508-0.297,0.768-0.436s0.523-0.271,0.789-0.397
								c0.268-0.126,0.536-0.245,0.809-0.357c0.271-0.113,0.547-0.219,0.824-0.318c0.277-0.099,0.557-0.191,0.839-0.277
								c0.282-0.085,0.565-0.164,0.851-0.235c0.286-0.071,0.574-0.136,0.863-0.193c0.288-0.058,0.578-0.107,0.869-0.151
								c0.292-0.043,0.584-0.079,0.877-0.107c0.293-0.029,0.588-0.051,0.881-0.065C61.41-0.159,61.705-0.166,61.999-0.166z"/>
						</g>
					</g>
				</g>
			</g>
			<g id="NO" transform="translate(2 8)">
				<path d="M67.846,5.924c-0.732-0.43-1.557-0.645-2.471-0.645c-0.915,0-1.743,0.215-2.485,0.645s-1.323,1.029-1.743,1.799
					c-0.42,0.771-0.63,1.641-0.63,2.611s0.21,1.841,0.63,2.611c0.42,0.77,1.001,1.369,1.743,1.799s1.57,0.645,2.485,0.645
					c0.914,0,1.738-0.215,2.471-0.645s1.309-1.029,1.729-1.799c0.42-0.771,0.631-1.641,0.631-2.611s-0.211-1.841-0.631-2.611
					C69.154,6.953,68.578,6.354,67.846,5.924z M56.935,15.275h1.274v-9.87h-1.274v7.813l-5.124-7.813h-1.273v9.87h1.273V7.478
					L56.935,15.275z M63.548,6.938c0.536-0.313,1.146-0.469,1.827-0.469c0.672,0,1.275,0.156,1.813,0.469s0.957,0.761,1.26,1.345
					c0.304,0.583,0.455,1.267,0.455,2.051c0,0.774-0.151,1.453-0.455,2.037c-0.303,0.583-0.723,1.033-1.26,1.352
					c-0.537,0.316-1.141,0.476-1.813,0.476c-0.682,0-1.291-0.157-1.827-0.47s-0.957-0.763-1.261-1.351
					c-0.303-0.588-0.455-1.27-0.455-2.044c0-0.784,0.152-1.468,0.455-2.051C62.591,7.699,63.012,7.251,63.548,6.938z"/>
			</g>
		</g>
	</g>
</g>
<g id="si" display="none">
	<g id="Address-Tab-Copy-3_1_" display="inline">
		<g id="BT-FULL_2_">
			<g id="Rectangle_2_">
				<g>
					<defs>
						<path id="SVGID_7_" d="M17.999-0.166h0.002c0.294,0,0.589,0.007,0.884,0.021c0.293,0.015,0.588,0.036,0.881,0.065
							c0.293,0.028,0.585,0.064,0.877,0.107c0.291,0.044,0.581,0.094,0.869,0.151c0.289,0.058,0.577,0.122,0.863,0.193
							c0.285,0.071,0.568,0.15,0.851,0.235c0.282,0.086,0.562,0.179,0.839,0.277c0.277,0.1,0.553,0.205,0.824,0.318
							c0.272,0.112,0.541,0.231,0.809,0.357c0.266,0.126,0.529,0.259,0.789,0.397s0.516,0.284,0.768,0.436
							C27.507,2.546,27.756,2.703,28,2.867c0.246,0.164,0.486,0.333,0.723,0.509s0.469,0.356,0.697,0.543
							c0.227,0.188,0.45,0.38,0.668,0.577c0.219,0.198,0.432,0.401,0.641,0.609c0.208,0.208,0.411,0.422,0.609,0.64
							c0.197,0.219,0.39,0.441,0.576,0.669c0.188,0.228,0.368,0.46,0.544,0.696c0.175,0.237,0.345,0.478,0.509,0.723
							s0.321,0.494,0.473,0.746c0.151,0.253,0.297,0.509,0.436,0.769s0.271,0.523,0.396,0.789c0.127,0.267,0.246,0.536,0.358,0.809
							c0.112,0.271,0.219,0.547,0.317,0.824c0.1,0.277,0.192,0.557,0.277,0.839c0.086,0.281,0.164,0.565,0.236,0.851
							c0.071,0.286,0.136,0.573,0.193,0.862c0.057,0.289,0.107,0.579,0.15,0.87c0.044,0.292,0.08,0.584,0.108,0.877
							c0.029,0.293,0.051,0.587,0.065,0.881C35.992,17.244,36,17.538,36,17.833v0.002c0,0.294-0.008,0.589-0.021,0.884
							c-0.015,0.293-0.036,0.588-0.065,0.881c-0.028,0.293-0.064,0.585-0.108,0.877c-0.043,0.291-0.094,0.581-0.15,0.869
							c-0.058,0.289-0.122,0.577-0.193,0.863c-0.072,0.285-0.15,0.568-0.236,0.851c-0.085,0.282-0.178,0.562-0.277,0.839
							c-0.099,0.277-0.205,0.553-0.317,0.824c-0.112,0.272-0.231,0.541-0.358,0.809c-0.125,0.266-0.258,0.529-0.396,0.789
							s-0.284,0.516-0.436,0.768c-0.151,0.253-0.309,0.502-0.473,0.746c-0.164,0.246-0.334,0.486-0.509,0.723
							c-0.176,0.236-0.356,0.469-0.544,0.697c-0.187,0.227-0.379,0.45-0.576,0.668c-0.198,0.219-0.401,0.432-0.609,0.641
							c-0.209,0.208-0.422,0.411-0.641,0.609c-0.218,0.197-0.441,0.39-0.668,0.576c-0.229,0.188-0.461,0.368-0.697,0.544
							c-0.236,0.175-0.477,0.345-0.723,0.509c-0.244,0.164-0.493,0.321-0.746,0.473c-0.252,0.151-0.508,0.297-0.768,0.436
							s-0.523,0.271-0.789,0.396c-0.268,0.127-0.536,0.246-0.809,0.358c-0.271,0.112-0.547,0.219-0.824,0.317
							c-0.277,0.1-0.557,0.192-0.839,0.277c-0.282,0.086-0.565,0.164-0.851,0.236c-0.286,0.071-0.574,0.136-0.863,0.193
							c-0.288,0.057-0.578,0.107-0.869,0.15c-0.292,0.044-0.584,0.08-0.877,0.108c-0.293,0.029-0.588,0.051-0.881,0.065
							c-0.295,0.014-0.589,0.021-0.884,0.021h-0.002c-0.294,0-0.589-0.008-0.883-0.021c-0.294-0.015-0.588-0.036-0.881-0.065
							c-0.293-0.028-0.585-0.064-0.877-0.108c-0.292-0.043-0.582-0.094-0.87-0.15c-0.289-0.058-0.577-0.122-0.862-0.193
							c-0.286-0.072-0.569-0.15-0.851-0.236c-0.282-0.085-0.562-0.178-0.839-0.277c-0.277-0.099-0.552-0.205-0.824-0.317
							c-0.272-0.112-0.542-0.231-0.808-0.358c-0.266-0.125-0.529-0.258-0.789-0.396s-0.516-0.284-0.769-0.436
							C8.493,33.122,8.244,32.965,8,32.801c-0.245-0.164-0.486-0.334-0.723-0.509c-0.236-0.176-0.469-0.356-0.696-0.544
							c-0.228-0.187-0.451-0.379-0.669-0.576c-0.218-0.198-0.432-0.401-0.64-0.609c-0.208-0.209-0.412-0.422-0.609-0.641
							c-0.198-0.218-0.39-0.441-0.577-0.668c-0.187-0.229-0.368-0.461-0.543-0.697c-0.175-0.236-0.345-0.477-0.509-0.723
							c-0.164-0.244-0.321-0.493-0.473-0.746c-0.151-0.252-0.296-0.508-0.435-0.768c-0.139-0.26-0.271-0.523-0.397-0.789
							c-0.126-0.268-0.245-0.536-0.358-0.809c-0.113-0.271-0.219-0.547-0.318-0.824S0.86,23.342,0.775,23.06
							s-0.164-0.565-0.235-0.851c-0.072-0.286-0.136-0.574-0.194-0.863c-0.057-0.288-0.107-0.578-0.151-0.869
							c-0.043-0.292-0.079-0.584-0.108-0.877c-0.029-0.293-0.051-0.588-0.065-0.881C0.007,18.424,0,18.129,0,17.835v-0.002
							c0-0.295,0.007-0.589,0.021-0.884c0.015-0.294,0.036-0.588,0.065-0.881c0.029-0.293,0.064-0.585,0.108-0.877
							c0.043-0.291,0.094-0.581,0.151-0.87c0.058-0.289,0.122-0.576,0.194-0.862c0.071-0.285,0.15-0.569,0.235-0.851
							c0.085-0.282,0.178-0.562,0.277-0.839s0.205-0.553,0.318-0.824c0.113-0.272,0.232-0.542,0.358-0.809
							c0.126-0.266,0.258-0.529,0.397-0.789c0.139-0.26,0.284-0.516,0.435-0.769C2.712,8.327,2.87,8.078,3.033,7.833
							C3.197,7.588,3.367,7.348,3.542,7.11c0.176-0.236,0.357-0.469,0.543-0.696c0.187-0.228,0.379-0.45,0.577-0.669
							c0.198-0.218,0.401-0.432,0.609-0.64c0.208-0.208,0.421-0.411,0.64-0.609c0.218-0.197,0.441-0.39,0.669-0.577
							c0.228-0.187,0.46-0.367,0.696-0.543C7.514,3.2,7.754,3.031,8,2.867c0.245-0.164,0.494-0.321,0.746-0.473
							c0.253-0.151,0.509-0.297,0.769-0.436s0.523-0.271,0.789-0.397c0.267-0.126,0.536-0.245,0.808-0.357
							c0.272-0.113,0.547-0.219,0.824-0.318c0.277-0.099,0.557-0.191,0.839-0.277c0.282-0.085,0.565-0.164,0.851-0.235
							s0.573-0.136,0.862-0.193c0.289-0.058,0.579-0.107,0.87-0.151c0.292-0.043,0.584-0.079,0.877-0.107
							c0.293-0.029,0.587-0.051,0.881-0.065C17.41-0.159,17.705-0.166,17.999-0.166z"/>
					</defs>
					<clipPath id="SVGID_8_">
						<use xlink:href="#SVGID_7_"  overflow="visible"/>
					</clipPath>
					<g clip-path="url(#SVGID_8_)">
						<g>
							<path id="path_1_2_" stroke="#000000" stroke-width="2" d="M17.999-0.166h0.002c0.294,0,0.589,0.007,0.884,0.021
								c0.293,0.015,0.588,0.036,0.881,0.065c0.293,0.028,0.585,0.064,0.877,0.107c0.291,0.044,0.581,0.094,0.869,0.151
								c0.289,0.058,0.577,0.122,0.863,0.193c0.285,0.071,0.568,0.15,0.851,0.235c0.282,0.086,0.562,0.179,0.839,0.277
								c0.277,0.1,0.553,0.205,0.824,0.318c0.272,0.112,0.541,0.231,0.809,0.357c0.266,0.126,0.529,0.259,0.789,0.397
								s0.516,0.284,0.768,0.436C27.507,2.546,27.756,2.703,28,2.867c0.246,0.164,0.486,0.333,0.723,0.509s0.469,0.356,0.697,0.543
								c0.227,0.188,0.45,0.38,0.668,0.577c0.219,0.198,0.432,0.401,0.641,0.609c0.208,0.208,0.411,0.422,0.609,0.64
								c0.197,0.219,0.39,0.441,0.576,0.669c0.188,0.228,0.368,0.46,0.544,0.696c0.175,0.237,0.345,0.478,0.509,0.723
								s0.321,0.494,0.473,0.746c0.151,0.253,0.297,0.509,0.436,0.769s0.271,0.523,0.396,0.789c0.127,0.267,0.246,0.536,0.358,0.809
								c0.112,0.271,0.219,0.547,0.317,0.824c0.1,0.277,0.192,0.557,0.277,0.839c0.086,0.281,0.164,0.565,0.236,0.851
								c0.071,0.286,0.136,0.573,0.193,0.862c0.057,0.289,0.107,0.579,0.15,0.87c0.044,0.292,0.08,0.584,0.108,0.877
								c0.029,0.293,0.051,0.587,0.065,0.881C35.992,17.244,36,17.538,36,17.833v0.002c0,0.294-0.008,0.589-0.021,0.884
								c-0.015,0.293-0.036,0.588-0.065,0.881c-0.028,0.293-0.064,0.585-0.108,0.877c-0.043,0.291-0.094,0.581-0.15,0.869
								c-0.058,0.289-0.122,0.577-0.193,0.863c-0.072,0.285-0.15,0.568-0.236,0.851c-0.085,0.282-0.178,0.562-0.277,0.839
								c-0.099,0.277-0.205,0.553-0.317,0.824c-0.112,0.272-0.231,0.541-0.358,0.809c-0.125,0.266-0.258,0.529-0.396,0.789
								s-0.284,0.516-0.436,0.768c-0.151,0.253-0.309,0.502-0.473,0.746c-0.164,0.246-0.334,0.486-0.509,0.723
								c-0.176,0.236-0.356,0.469-0.544,0.697c-0.187,0.227-0.379,0.45-0.576,0.668c-0.198,0.219-0.401,0.432-0.609,0.641
								c-0.209,0.208-0.422,0.411-0.641,0.609c-0.218,0.197-0.441,0.39-0.668,0.576c-0.229,0.188-0.461,0.368-0.697,0.544
								c-0.236,0.175-0.477,0.345-0.723,0.509c-0.244,0.164-0.493,0.321-0.746,0.473c-0.252,0.151-0.508,0.297-0.768,0.436
								s-0.523,0.271-0.789,0.396c-0.268,0.127-0.536,0.246-0.809,0.358c-0.271,0.112-0.547,0.219-0.824,0.317
								c-0.277,0.1-0.557,0.192-0.839,0.277c-0.282,0.086-0.565,0.164-0.851,0.236c-0.286,0.071-0.574,0.136-0.863,0.193
								c-0.288,0.057-0.578,0.107-0.869,0.15c-0.292,0.044-0.584,0.08-0.877,0.108c-0.293,0.029-0.588,0.051-0.881,0.065
								c-0.295,0.014-0.589,0.021-0.884,0.021h-0.002c-0.294,0-0.589-0.008-0.883-0.021c-0.294-0.015-0.588-0.036-0.881-0.065
								c-0.293-0.028-0.585-0.064-0.877-0.108c-0.292-0.043-0.582-0.094-0.87-0.15c-0.289-0.058-0.577-0.122-0.862-0.193
								c-0.286-0.072-0.569-0.15-0.851-0.236c-0.282-0.085-0.562-0.178-0.839-0.277c-0.277-0.099-0.552-0.205-0.824-0.317
								c-0.272-0.112-0.542-0.231-0.808-0.358c-0.266-0.125-0.529-0.258-0.789-0.396s-0.516-0.284-0.769-0.436
								C8.493,33.122,8.244,32.965,8,32.801c-0.245-0.164-0.486-0.334-0.723-0.509c-0.236-0.176-0.469-0.356-0.696-0.544
								c-0.228-0.187-0.451-0.379-0.669-0.576c-0.218-0.198-0.432-0.401-0.64-0.609c-0.208-0.209-0.412-0.422-0.609-0.641
								c-0.198-0.218-0.39-0.441-0.577-0.668c-0.187-0.229-0.368-0.461-0.543-0.697c-0.175-0.236-0.345-0.477-0.509-0.723
								c-0.164-0.244-0.321-0.493-0.473-0.746c-0.151-0.252-0.296-0.508-0.435-0.768c-0.139-0.26-0.271-0.523-0.397-0.789
								c-0.126-0.268-0.245-0.536-0.358-0.809c-0.113-0.271-0.219-0.547-0.318-0.824S0.86,23.342,0.775,23.06
								s-0.164-0.565-0.235-0.851c-0.072-0.286-0.136-0.574-0.194-0.863c-0.057-0.288-0.107-0.578-0.151-0.869
								c-0.043-0.292-0.079-0.584-0.108-0.877c-0.029-0.293-0.051-0.588-0.065-0.881C0.007,18.424,0,18.129,0,17.835v-0.002
								c0-0.295,0.007-0.589,0.021-0.884c0.015-0.294,0.036-0.588,0.065-0.881c0.029-0.293,0.064-0.585,0.108-0.877
								c0.043-0.291,0.094-0.581,0.151-0.87c0.058-0.289,0.122-0.576,0.194-0.862c0.071-0.285,0.15-0.569,0.235-0.851
								c0.085-0.282,0.178-0.562,0.277-0.839s0.205-0.553,0.318-0.824c0.113-0.272,0.232-0.542,0.358-0.809
								c0.126-0.266,0.258-0.529,0.397-0.789c0.139-0.26,0.284-0.516,0.435-0.769C2.712,8.327,2.87,8.078,3.033,7.833
								C3.197,7.588,3.367,7.348,3.542,7.11c0.176-0.236,0.357-0.469,0.543-0.696c0.187-0.228,0.379-0.45,0.577-0.669
								c0.198-0.218,0.401-0.432,0.609-0.64c0.208-0.208,0.421-0.411,0.64-0.609c0.218-0.197,0.441-0.39,0.669-0.577
								c0.228-0.187,0.46-0.367,0.696-0.543C7.514,3.2,7.754,3.031,8,2.867c0.245-0.164,0.494-0.321,0.746-0.473
								c0.253-0.151,0.509-0.297,0.769-0.436s0.523-0.271,0.789-0.397c0.267-0.126,0.536-0.245,0.808-0.357
								c0.272-0.113,0.547-0.219,0.824-0.318c0.277-0.099,0.557-0.191,0.839-0.277c0.282-0.085,0.565-0.164,0.851-0.235
								s0.573-0.136,0.862-0.193c0.289-0.058,0.579-0.107,0.87-0.151c0.292-0.043,0.584-0.079,0.877-0.107
								c0.293-0.029,0.587-0.051,0.881-0.065C17.41-0.159,17.705-0.166,17.999-0.166z"/>
						</g>
					</g>
				</g>
			</g>
		</g>
	</g>
</g>
<g id="si_txt" display="none">
	<g id="SI_1_" transform="translate(2 8)" display="inline">
		<path fill="#FFFFFF" d="M16.945,14.016c0.224-0.4,0.336-0.835,0.336-1.302c0-0.625-0.136-1.127-0.406-1.505s-0.6-0.66-0.987-0.848
			c-0.388-0.187-0.898-0.382-1.533-0.588c-0.522-0.168-0.933-0.319-1.232-0.455c-0.299-0.135-0.548-0.321-0.749-0.56
			s-0.301-0.549-0.301-0.931c0-0.485,0.154-0.861,0.462-1.127c0.308-0.267,0.719-0.399,1.232-0.399c0.56,0,1.003,0.149,1.33,0.448
			s0.527,0.644,0.602,1.036h1.371c-0.093-0.729-0.424-1.328-0.993-1.8c-0.569-0.471-1.339-0.707-2.31-0.707
			c-0.625,0-1.169,0.107-1.631,0.322c-0.462,0.215-0.817,0.519-1.064,0.91c-0.247,0.392-0.371,0.845-0.371,1.358
			c0,0.597,0.133,1.078,0.399,1.441c0.266,0.364,0.588,0.638,0.966,0.819s0.88,0.376,1.505,0.581c0.532,0.168,0.952,0.324,1.26,0.47
			c0.308,0.145,0.567,0.342,0.777,0.594s0.315,0.579,0.315,0.98c0,0.467-0.149,0.85-0.448,1.148
			c-0.299,0.299-0.728,0.447-1.288,0.447c-0.429,0-0.796-0.086-1.099-0.259s-0.537-0.392-0.7-0.657
			c-0.164-0.267-0.259-0.539-0.287-0.819h-1.358c0.046,0.532,0.222,1.005,0.525,1.421c0.303,0.415,0.709,0.742,1.218,0.98
			c0.509,0.237,1.09,0.356,1.743,0.356c0.672,0,1.237-0.126,1.694-0.378C16.38,14.744,16.721,14.418,16.945,14.016z M20.863,15.275
			v-9.87h-1.274v9.87H20.863z"/>
	</g>
</g>
<g id="no_txt">
	<g id="NO_1_" transform="translate(2 8)">
		<path fill="#FFFFFF" d="M67.846,5.924c-0.732-0.43-1.557-0.645-2.471-0.645c-0.915,0-1.743,0.215-2.485,0.645
			s-1.323,1.029-1.743,1.799c-0.42,0.771-0.63,1.641-0.63,2.611s0.21,1.841,0.63,2.611c0.42,0.77,1.001,1.369,1.743,1.799
			s1.57,0.645,2.485,0.645c0.914,0,1.738-0.215,2.471-0.645s1.309-1.029,1.729-1.799c0.42-0.771,0.631-1.641,0.631-2.611
			s-0.211-1.841-0.631-2.611C69.154,6.953,68.578,6.354,67.846,5.924z M56.935,15.275h1.274v-9.87h-1.274v7.813l-5.124-7.813h-1.273
			v9.87h1.273V7.478L56.935,15.275z M63.548,6.938c0.536-0.313,1.146-0.469,1.827-0.469c0.672,0,1.275,0.156,1.813,0.469
			s0.957,0.761,1.26,1.345c0.304,0.583,0.455,1.267,0.455,2.051c0,0.774-0.151,1.453-0.455,2.037
			c-0.303,0.583-0.723,1.033-1.26,1.352c-0.537,0.316-1.141,0.476-1.813,0.476c-0.682,0-1.291-0.157-1.827-0.47
			s-0.957-0.763-1.261-1.351c-0.303-0.588-0.455-1.27-0.455-2.044c0-0.784,0.152-1.468,0.455-2.051
			C62.591,7.699,63.012,7.251,63.548,6.938z"/>
	</g>
</g>
</svg>
