<?xml version="1.0" encoding="utf-8"?>
<!-- Generator: Adobe Illustrator 15.0.0, SVG Export Plug-In . SVG Version: 6.00 Build 0)  -->
<!DOCTYPE svg PUBLIC "-//W3C//DTD SVG 1.1//EN" "http://www.w3.org/Graphics/SVG/1.1/DTD/svg11.dtd">
<svg version="1.1" id="Layer_1" xmlns="http://www.w3.org/2000/svg" xmlns:xlink="http://www.w3.org/1999/xlink" x="0px" y="0px"
	 width="995px" height="200px" viewBox="0 0 995 200" enable-background="new 0 0 995 200" xml:space="preserve">
<g id="MONOGRAM_5PX_STROKE">
	<g id="Group-10" transform="translate(0 0.004882813)">
		<g id="Group-3" transform="translate(13.7063 24.46997)">
			<path id="Clip-2" shape-rendering="optimizeQuality" fill="none" d="M44.244,49.818c-13.692,8.005-18.396,25.708-10.707,40.298l0,0
				c5.988,11.366,18.558,14.422,20.327,14.801l0,0l0.135,0.04c8.123,2.424,13.415,5.682,15.729,9.696l0,0
				c2.315,4.01,2.509,10.253,0.574,18.554l0,0l-0.032,0.141c-0.55,1.735-4.14,14.241,2.7,25.109l0,0
				c5.876,9.338,15.706,14.511,25.669,14.511l0,0c4.923,0,9.879-1.265,14.407-3.91l0,0c13.692-8.011,18.396-25.706,10.705-40.3l0,0
				c-5.985-11.36-18.555-14.419-20.326-14.799l0,0l-0.138-0.04c-8.121-2.424-13.411-5.686-15.726-9.697l0,0
				c-2.313-4.01-2.505-10.253-0.574-18.555l0,0l0.035-0.137c0.548-1.738,4.138-14.246-2.701-25.11l0,0
				c-5.877-9.339-15.706-14.514-25.669-14.514l0,0C53.73,45.907,48.773,47.172,44.244,49.818 M78.74,154.775
				c-5.429-8.623-1.978-19.292-1.947-19.389l0,0l0.16-0.612c2.344-10.063,1.9-17.998-1.318-23.576l0,0
				c-3.221-5.583-9.848-9.899-19.698-12.834l0,0l-0.599-0.163c-0.11-0.021-10.971-2.209-15.767-11.308l0,0
				c-5.96-11.312-2.401-24.985,8.104-31.127l0,0c3.443-2.015,7.215-2.972,10.97-2.972l0,0c7.7,0,15.329,4.037,19.903,11.307l0,0
				c5.43,8.626,1.978,19.292,1.947,19.387l0,0l-0.16,0.611c-2.343,10.066-1.901,18,1.317,23.578l0,0
				c3.219,5.577,9.844,9.896,19.691,12.833l0,0l0.605,0.166c0.11,0.019,10.972,2.205,15.765,11.304l0,0
				c5.963,11.313,2.404,24.986-8.103,31.131l0,0c-3.444,2.013-7.212,2.973-10.969,2.973l0,0
				C90.944,166.084,83.317,162.05,78.74,154.775"/>
			<g>
				<defs>
					<path id="SVGID_1_" shape-rendering="optimizeQuality" d="M44.244,49.818c-13.692,8.005-18.396,25.708-10.707,40.298l0,0
						c5.988,11.366,18.558,14.422,20.327,14.801l0,0l0.135,0.04c8.123,2.424,13.415,5.682,15.729,9.696l0,0
						c2.315,4.01,2.509,10.253,0.574,18.554l0,0l-0.032,0.141c-0.55,1.735-4.14,14.241,2.7,25.109l0,0
						c5.876,9.338,15.706,14.511,25.669,14.511l0,0c4.923,0,9.879-1.265,14.407-3.91l0,0c13.692-8.011,18.396-25.706,10.705-40.3
						l0,0c-5.985-11.36-18.555-14.419-20.326-14.799l0,0l-0.138-0.04c-8.121-2.424-13.411-5.686-15.726-9.697l0,0
						c-2.313-4.01-2.505-10.253-0.574-18.555l0,0l0.035-0.137c0.548-1.738,4.138-14.246-2.701-25.11l0,0
						c-5.877-9.339-15.706-14.514-25.669-14.514l0,0C53.73,45.907,48.773,47.172,44.244,49.818 M78.74,154.775
						c-5.429-8.623-1.978-19.292-1.947-19.389l0,0l0.16-0.612c2.344-10.063,1.9-17.998-1.318-23.576l0,0
						c-3.221-5.583-9.848-9.899-19.698-12.834l0,0l-0.599-0.163c-0.11-0.021-10.971-2.209-15.767-11.308l0,0
						c-5.96-11.312-2.401-24.985,8.104-31.127l0,0c3.443-2.015,7.215-2.972,10.97-2.972l0,0c7.7,0,15.329,4.037,19.903,11.307l0,0
						c5.43,8.626,1.978,19.292,1.947,19.387l0,0l-0.16,0.611c-2.343,10.066-1.901,18,1.317,23.578l0,0
						c3.219,5.577,9.844,9.896,19.691,12.833l0,0l0.605,0.166c0.11,0.019,10.972,2.205,15.765,11.304l0,0
						c5.963,11.313,2.404,24.986-8.103,31.131l0,0c-3.444,2.013-7.212,2.973-10.969,2.973l0,0
						C90.944,166.084,83.317,162.05,78.74,154.775"/>
				</defs>
				<clipPath id="SVGID_2_">
					<use xlink:href="#SVGID_1_"  overflow="visible"/>
				</clipPath>
				<g clip-path="url(#SVGID_2_)">
					
						<linearGradient id="Fill-1_2_" shape-rendering="optimizeQuality" gradientUnits="userSpaceOnUse" x1="382.9124" y1="169.1414" x2="386.2642" y2="165.0634" gradientTransform="matrix(34.6478 0 0 -45.113 -13249.1943 7643.6162)">
						<stop  offset="0" style="stop-color:#8DCB86"/>
						<stop  offset="1" style="stop-color:#5DCAE8"/>
					</linearGradient>
					<path id="Fill-1" fill="url(#Fill-1_2_)" d="M44.244,49.818c-13.692,8.005-18.396,25.708-10.707,40.298l0,0
						c5.988,11.366,18.558,14.422,20.327,14.801l0,0l0.135,0.04c8.123,2.424,13.415,5.682,15.729,9.696l0,0
						c2.315,4.01,2.509,10.253,0.574,18.554l0,0l-0.032,0.141c-0.55,1.735-4.14,14.241,2.7,25.109l0,0
						c5.876,9.338,15.706,14.511,25.669,14.511l0,0c4.923,0,9.879-1.265,14.407-3.91l0,0c13.692-8.011,18.396-25.706,10.705-40.3
						l0,0c-5.985-11.36-18.555-14.419-20.326-14.799l0,0l-0.138-0.04c-8.121-2.424-13.411-5.686-15.726-9.697l0,0
						c-2.313-4.01-2.505-10.253-0.574-18.555l0,0l0.035-0.137c0.548-1.738,4.138-14.246-2.701-25.11l0,0
						c-5.877-9.339-15.706-14.514-25.669-14.514l0,0C53.73,45.907,48.773,47.172,44.244,49.818 M78.74,154.775
						c-5.429-8.623-1.978-19.292-1.947-19.389l0,0l0.16-0.612c2.344-10.063,1.9-17.998-1.318-23.576l0,0
						c-3.221-5.583-9.848-9.899-19.698-12.834l0,0l-0.599-0.163c-0.11-0.021-10.971-2.209-15.767-11.308l0,0
						c-5.96-11.312-2.401-24.985,8.104-31.127l0,0c3.443-2.015,7.215-2.972,10.97-2.972l0,0c7.7,0,15.329,4.037,19.903,11.307l0,0
						c5.43,8.626,1.978,19.292,1.947,19.387l0,0l-0.16,0.611c-2.343,10.066-1.901,18,1.317,23.578l0,0
						c3.219,5.577,9.844,9.896,19.691,12.833l0,0l0.605,0.166c0.11,0.019,10.972,2.205,15.765,11.304l0,0
						c5.963,11.313,2.404,24.986-8.103,31.131l0,0c-3.444,2.013-7.212,2.973-10.969,2.973l0,0
						C90.944,166.084,83.317,162.05,78.74,154.775"/>
				</g>
			</g>
		</g>
		<g id="Group-6" transform="translate(0 48.62305)">
			<path id="Clip-5" fill="none" d="M12.513,99.363c-4.94,5.49-7.534,12.639-7.559,19.852l0,0v0.209
				c0.015,4.392,0.982,8.804,2.954,12.873l0,0c4.851,10.016,15.513,16.546,26.562,16.546l0,0c0.88,0,1.763-0.041,2.645-0.126l0,0
				c12.262-1.171,22.864-10.441,25.783-22.538l0,0c3.014-12.506-2.875-26.229-14.007-32.633l0,0
				c-4.416-2.54-9.396-3.765-14.368-3.765l0,0C26.324,89.781,18.14,93.112,12.513,99.363 M14.047,129.282
				c-3.963-8.186-2.513-18.586,3.527-25.3l0,0c4.32-4.8,10.603-7.355,16.896-7.355l0,0c3.818,0,7.642,0.94,11.031,2.894l0,0
				c8.545,4.912,13.068,15.441,10.756,25.035l0,0c-2.242,9.298-10.379,16.415-19.79,17.315l0,0
				c-0.679,0.066-1.359,0.096-2.037,0.096l0,0C25.946,141.967,17.766,136.958,14.047,129.282"/>
			<g>
				<defs>
					<path id="SVGID_3_" shape-rendering="optimizeQuality" d="M12.513,99.363c-4.94,5.49-7.534,12.639-7.559,19.852l0,0v0.209c0.015,4.392,0.982,8.804,2.954,12.873
						l0,0c4.851,10.016,15.513,16.546,26.562,16.546l0,0c0.88,0,1.763-0.041,2.645-0.126l0,0
						c12.262-1.171,22.864-10.441,25.783-22.538l0,0c3.014-12.506-2.875-26.229-14.007-32.633l0,0
						c-4.416-2.54-9.396-3.765-14.368-3.765l0,0C26.324,89.781,18.14,93.112,12.513,99.363 M14.047,129.282
						c-3.963-8.186-2.513-18.586,3.527-25.3l0,0c4.32-4.8,10.603-7.355,16.896-7.355l0,0c3.818,0,7.642,0.94,11.031,2.894l0,0
						c8.545,4.912,13.068,15.441,10.756,25.035l0,0c-2.242,9.298-10.379,16.415-19.79,17.315l0,0
						c-0.679,0.066-1.359,0.096-2.037,0.096l0,0C25.946,141.967,17.766,136.958,14.047,129.282"/>
				</defs>
				<clipPath id="SVGID_4_">
					<use xlink:href="#SVGID_3_"  overflow="visible"/>
				</clipPath>
				<g clip-path="url(#SVGID_4_)">
					
						<linearGradient id="Fill-4_1_" gradientUnits="userSpaceOnUse" x1="390.998" y1="135.9072" x2="396.5679" y2="127.134" gradientTransform="matrix(20.8509 0 0 -20.9699 -8177.7246 2875.2654)">
						<stop  offset="0" style="stop-color:#8DCB86"/>
						<stop  offset="1" style="stop-color:#5DCAE8"/>
					</linearGradient>
					<path id="Fill-4" fill="url(#Fill-4_1_)" d="M12.513,99.363c-4.94,5.49-7.534,12.639-7.559,19.852l0,0v0.209
						c0.015,4.392,0.982,8.804,2.954,12.873l0,0c4.851,10.016,15.513,16.546,26.562,16.546l0,0c0.88,0,1.763-0.041,2.645-0.126l0,0
						c12.262-1.171,22.864-10.441,25.783-22.538l0,0c3.014-12.506-2.875-26.229-14.007-32.633l0,0
						c-4.416-2.54-9.396-3.765-14.368-3.765l0,0C26.324,89.781,18.14,93.112,12.513,99.363 M14.047,129.282
						c-3.963-8.186-2.513-18.586,3.527-25.3l0,0c4.32-4.8,10.603-7.355,16.896-7.355l0,0c3.818,0,7.642,0.94,11.031,2.894l0,0
						c8.545,4.912,13.068,15.441,10.756,25.035l0,0c-2.242,9.298-10.379,16.415-19.79,17.315l0,0
						c-0.679,0.066-1.359,0.096-2.037,0.096l0,0C25.946,141.967,17.766,136.958,14.047,129.282"/>
				</g>
			</g>
		</g>
		<g id="Group-9" shape-rendering="optimizeQuality" transform="translate(27.3623 0.4020996)">
			<path id="Clip-8" fill="none" d="M69.05,6.096c-13.69,8.008-18.394,25.709-10.706,40.301l0,0
				C64.332,57.758,76.9,60.816,78.67,61.195l0,0l0.14,0.043c8.119,2.424,13.411,5.684,15.725,9.691l0,0
				c2.313,4.011,2.506,10.254,0.574,18.557l0,0l-0.033,0.142c-0.544,1.721-4.076,14.035,2.536,24.839l0,0
				c6.046,11.131,18.423,14.142,20.172,14.519l0,0l0.135,0.04c8.122,2.424,13.414,5.686,15.73,9.696l0,0
				c2.313,4.01,2.505,10.253,0.572,18.557l0,0l-0.033,0.134c-0.55,1.739-4.139,14.243,2.7,25.113l0,0
				c5.876,9.334,15.706,14.511,25.671,14.511l0,0c4.921,0,9.877-1.265,14.405-3.91l0,0c9.253-5.414,14.402-15.249,14.394-25.563l0,0
				c-0.003-4.95-1.194-10.006-3.686-14.736l0,0c-5.988-11.364-18.558-14.419-20.329-14.799l0,0l-0.138-0.044
				c-8.119-2.42-13.411-5.682-15.721-9.693l0,0c-2.316-4.01-2.508-10.253-0.578-18.555l0,0l0.032-0.14
				c0.545-1.719,4.077-14.033-2.532-24.836l0,0c-6.048-11.134-18.426-14.146-20.175-14.521l0,0l-0.132-0.039
				c-8.126-2.422-13.418-5.685-15.733-9.695l0,0c-2.311-4.012-2.506-10.254-0.572-18.555l0,0l0.033-0.141
				c0.55-1.737,4.137-14.242-2.702-25.108l0,0c-5.875-9.339-15.705-14.513-25.67-14.512l0,0C78.534,2.188,73.577,3.45,69.05,6.096
				 M156.641,189.389c-5.729-1.577-10.691-5.32-13.98-10.546l0,0c-5.43-8.627-1.978-19.292-1.948-19.389l0,0l0.159-0.606
				c2.347-10.066,1.904-18.002-1.316-23.582l0,0c-3.221-5.583-9.847-9.899-19.697-12.834l0,0l-0.6-0.163
				c-0.108-0.021-10.856-2.186-15.689-11.17l0,0l-0.104-0.182c-5.309-8.598-1.898-19.156-1.865-19.253l0,0l0.16-0.609
				c2.343-10.068,1.898-18.001-1.32-23.579l0,0c-3.218-5.577-9.842-9.895-19.69-12.833l0,0l-0.596-0.162
				c-0.109-0.021-11.021-2.289-15.775-11.307l0,0c-2.879-5.465-3.651-11.662-2.172-17.451l0,0
				c1.482-5.814,5.133-10.67,10.275-13.679l0,0c3.406-1.991,7.187-3.007,11.023-3.007l0,0c1.958,0,3.927,0.264,5.865,0.798l0,0
				c5.732,1.574,10.695,5.32,13.984,10.545l0,0c5.43,8.625,1.978,19.292,1.944,19.387l0,0l-0.157,0.61
				c-2.343,10.067-1.903,18.002,1.315,23.58l0,0c3.224,5.582,9.852,9.899,19.699,12.836l0,0l0.6,0.159
				c0.107,0.024,10.858,2.189,15.689,11.174l0,0l0.104,0.177c5.308,8.603,1.898,19.162,1.866,19.254l0,0l-0.16,0.611
				c-2.344,10.066-1.9,18,1.32,23.578l0,0c3.215,5.577,9.841,9.896,19.688,12.833l0,0l0.597,0.163
				c0.11,0.019,11.022,2.285,15.775,11.307l0,0c2.882,5.464,3.652,11.661,2.175,17.451l0,0c-1.485,5.812-5.135,10.67-10.276,13.68
				l0,0c-3.408,1.992-7.192,3.009-11.027,3.009l0,0C160.55,190.188,158.581,189.925,156.641,189.389"/>
			<g>
				<defs>
					<path id="SVGID_5_" shape-rendering="optimizeQuality" d="M69.05,6.096c-13.69,8.008-18.394,25.709-10.706,40.301l0,0C64.332,57.758,76.9,60.816,78.67,61.195l0,0
						l0.14,0.043c8.119,2.424,13.411,5.684,15.725,9.691l0,0c2.313,4.011,2.506,10.254,0.574,18.557l0,0l-0.033,0.142
						c-0.544,1.721-4.076,14.035,2.536,24.839l0,0c6.046,11.131,18.423,14.142,20.172,14.519l0,0l0.135,0.04
						c8.122,2.424,13.414,5.686,15.73,9.696l0,0c2.313,4.01,2.505,10.253,0.572,18.557l0,0l-0.033,0.134
						c-0.55,1.739-4.139,14.243,2.7,25.113l0,0c5.876,9.334,15.706,14.511,25.671,14.511l0,0c4.921,0,9.877-1.265,14.405-3.91l0,0
						c9.253-5.414,14.402-15.249,14.394-25.563l0,0c-0.003-4.95-1.194-10.006-3.686-14.736l0,0
						c-5.988-11.364-18.558-14.419-20.329-14.799l0,0l-0.138-0.044c-8.119-2.42-13.411-5.682-15.721-9.693l0,0
						c-2.316-4.01-2.508-10.253-0.578-18.555l0,0l0.032-0.14c0.545-1.719,4.077-14.033-2.532-24.836l0,0
						c-6.048-11.134-18.426-14.146-20.175-14.521l0,0l-0.132-0.039c-8.126-2.422-13.418-5.685-15.733-9.695l0,0
						c-2.311-4.012-2.506-10.254-0.572-18.555l0,0l0.033-0.141c0.55-1.737,4.137-14.242-2.702-25.108l0,0
						c-5.875-9.339-15.705-14.513-25.67-14.512l0,0C78.534,2.188,73.577,3.45,69.05,6.096 M156.641,189.389
						c-5.729-1.577-10.691-5.32-13.98-10.546l0,0c-5.43-8.627-1.978-19.292-1.948-19.389l0,0l0.159-0.606
						c2.347-10.066,1.904-18.002-1.316-23.582l0,0c-3.221-5.583-9.847-9.899-19.697-12.834l0,0l-0.6-0.163
						c-0.108-0.021-10.856-2.186-15.689-11.17l0,0l-0.104-0.182c-5.309-8.598-1.898-19.156-1.865-19.253l0,0l0.16-0.609
						c2.343-10.068,1.898-18.001-1.32-23.579l0,0c-3.218-5.577-9.842-9.895-19.69-12.833l0,0l-0.596-0.162
						c-0.109-0.021-11.021-2.289-15.775-11.307l0,0c-2.879-5.465-3.651-11.662-2.172-17.451l0,0
						c1.482-5.814,5.133-10.67,10.275-13.679l0,0c3.406-1.991,7.187-3.007,11.023-3.007l0,0c1.958,0,3.927,0.264,5.865,0.798l0,0
						c5.732,1.574,10.695,5.32,13.984,10.545l0,0c5.43,8.625,1.978,19.292,1.944,19.387l0,0l-0.157,0.61
						c-2.343,10.067-1.903,18.002,1.315,23.58l0,0c3.224,5.582,9.852,9.899,19.699,12.836l0,0l0.6,0.159
						c0.107,0.024,10.858,2.189,15.689,11.174l0,0l0.104,0.177c5.308,8.603,1.898,19.162,1.866,19.254l0,0l-0.16,0.611
						c-2.344,10.066-1.9,18,1.32,23.578l0,0c3.215,5.577,9.841,9.896,19.688,12.833l0,0l0.597,0.163
						c0.11,0.019,11.022,2.285,15.775,11.307l0,0c2.882,5.464,3.652,11.661,2.175,17.451l0,0c-1.485,5.812-5.135,10.67-10.276,13.68
						l0,0c-3.408,1.992-7.192,3.009-11.027,3.009l0,0C160.55,190.188,158.581,189.925,156.641,189.389"/>
				</defs>
				<clipPath id="SVGID_6_">
					<use xlink:href="#SVGID_5_"  overflow="visible"/>
				</clipPath>
				<g clip-path="url(#SVGID_6_)">
					
						<linearGradient id="Fill-7_1_" gradientUnits="userSpaceOnUse" x1="371.6787" y1="195.9524" x2="374.0714" y2="193.2932" gradientTransform="matrix(48.5351 0 0 -69.1808 -17978.7344 13557.1982)">
						<stop  offset="0" style="stop-color:#8DCB86"/>
						<stop  offset="1" style="stop-color:#5DCAE8"/>
					</linearGradient>
					<path id="Fill-7" shape-rendering="optimizeQuality" fill="url(#Fill-7_1_)" d="M69.05,6.096c-13.69,8.008-18.394,25.709-10.706,40.301l0,0
						C64.332,57.758,76.9,60.816,78.67,61.195l0,0l0.14,0.043c8.119,2.424,13.411,5.684,15.725,9.691l0,0
						c2.313,4.011,2.506,10.254,0.574,18.557l0,0l-0.033,0.142c-0.544,1.721-4.076,14.035,2.536,24.839l0,0
						c6.046,11.131,18.423,14.142,20.172,14.519l0,0l0.135,0.04c8.122,2.424,13.414,5.686,15.73,9.696l0,0
						c2.313,4.01,2.505,10.253,0.572,18.557l0,0l-0.033,0.134c-0.55,1.739-4.139,14.243,2.7,25.113l0,0
						c5.876,9.334,15.706,14.511,25.671,14.511l0,0c4.921,0,9.877-1.265,14.405-3.91l0,0c9.253-5.414,14.402-15.249,14.394-25.563
						l0,0c-0.003-4.95-1.194-10.006-3.686-14.736l0,0c-5.988-11.364-18.558-14.419-20.329-14.799l0,0l-0.138-0.044
						c-8.119-2.42-13.411-5.682-15.721-9.693l0,0c-2.316-4.01-2.508-10.253-0.578-18.555l0,0l0.032-0.14
						c0.545-1.719,4.077-14.033-2.532-24.836l0,0c-6.048-11.134-18.426-14.146-20.175-14.521l0,0l-0.132-0.039
						c-8.126-2.422-13.418-5.685-15.733-9.695l0,0c-2.311-4.012-2.506-10.254-0.572-18.555l0,0l0.033-0.141
						c0.55-1.737,4.137-14.242-2.702-25.108l0,0c-5.875-9.339-15.705-14.513-25.67-14.512l0,0C78.534,2.188,73.577,3.45,69.05,6.096
						 M156.641,189.389c-5.729-1.577-10.691-5.32-13.98-10.546l0,0c-5.43-8.627-1.978-19.292-1.948-19.389l0,0l0.159-0.606
						c2.347-10.066,1.904-18.002-1.316-23.582l0,0c-3.221-5.583-9.847-9.899-19.697-12.834l0,0l-0.6-0.163
						c-0.108-0.021-10.856-2.186-15.689-11.17l0,0l-0.104-0.182c-5.309-8.598-1.898-19.156-1.865-19.253l0,0l0.16-0.609
						c2.343-10.068,1.898-18.001-1.32-23.579l0,0c-3.218-5.577-9.842-9.895-19.69-12.833l0,0l-0.596-0.162
						c-0.109-0.021-11.021-2.289-15.775-11.307l0,0c-2.879-5.465-3.651-11.662-2.172-17.451l0,0
						c1.482-5.814,5.133-10.67,10.275-13.679l0,0c3.406-1.991,7.187-3.007,11.023-3.007l0,0c1.958,0,3.927,0.264,5.865,0.798l0,0
						c5.732,1.574,10.695,5.32,13.984,10.545l0,0c5.43,8.625,1.978,19.292,1.944,19.387l0,0l-0.157,0.61
						c-2.343,10.067-1.903,18.002,1.315,23.58l0,0c3.224,5.582,9.852,9.899,19.699,12.836l0,0l0.6,0.159
						c0.107,0.024,10.858,2.189,15.689,11.174l0,0l0.104,0.177c5.308,8.603,1.898,19.162,1.866,19.254l0,0l-0.16,0.611
						c-2.344,10.066-1.9,18,1.32,23.578l0,0c3.215,5.577,9.841,9.896,19.688,12.833l0,0l0.597,0.163
						c0.11,0.019,11.022,2.285,15.775,11.307l0,0c2.882,5.464,3.652,11.661,2.175,17.451l0,0c-1.485,5.812-5.135,10.67-10.276,13.68
						l0,0c-3.408,1.992-7.192,3.009-11.027,3.009l0,0C160.55,190.188,158.581,189.925,156.641,189.389"/>
				</g>
			</g>
		</g>
	</g>
</g>
<g id="Group-19">
	
		<linearGradient id="Fill-1_3_" gradientUnits="userSpaceOnUse" x1="409.627" y1="187.5156" x2="409.627" y2="184.6992" gradientTransform="matrix(28 0 0 -26 -11031.6563 4907.0469)">
		<stop  offset="0" style="stop-color:#6CC283"/>
		<stop  offset="1" style="stop-color:#4ABAD4"/>
	</linearGradient>
	<path id="Fill-1_1_" fill="url(#Fill-1_3_)" shape-rendering="optimizeQuality" d="M398.453,104.892h10.313l29.118-54.077l29.119,54.077h10.313l-39.432-73.229
		L398.453,104.892z"/>
	<path id="Fill-2" fill="#FFFFFF" d="M342.123,31.663v73.229h9.834V73.162h38.283v-8.911h-38.283V40.82h43.679v-9.157H342.123z"/>
	<g id="Group-18" transform="translate(53 0)">
		<g id="Group-5" transform="translate(0.1262207 0.6518555)">
			<path id="Clip-4" fill="none" d="M438.627,30.03h62.79v74.207h-62.79V30.03z"/>
			<g>
				<defs>
					<rect id="SVGID_7_" x="438.627" y="30.03" width="62.79" height="74.207"/>
				</defs>
				<clipPath id="SVGID_8_">
					<use xlink:href="#SVGID_7_"  overflow="visible"/>
				</clipPath>
				<g clip-path="url(#SVGID_8_)">
					<path id="Fill-3" fill="#FFFFFF" shape-rendering="optimizeQuality" d="M501.417,95.244c0,0-8.044,8.993-25.092,8.993c-22.574,0-37.698-16.444-37.698-37.044
						c0-20.831,15.124-37.164,37.698-37.164c17.169,0,25.092,8.994,25.092,8.994l-5.643,7.578c0,0-7.563-7.344-19.328-7.344
						c-16.332,0-27.735,12.428-27.735,27.936c0,15.39,11.403,27.816,27.735,27.816c12.122,0,19.328-7.343,19.328-7.343
						L501.417,95.244z"/>
				</g>
			</g>
		</g>
		<path id="Fill-6" fill="#FFFFFF" d="M518.354,32.219h59.664V41.1h-24.968v62.135h-9.848V41.1h-24.849V32.219z"/>
		<g id="Group-10_1_" transform="translate(55.45581 0.6518555)">
			<path id="Clip-9" fill="none" d="M539.134,30.03h74.922v74.207h-74.922V30.03z"/>
			<g>
				<defs>
					<rect id="SVGID_9_" x="539.134" y="30.03" width="74.922" height="74.207"/>
				</defs>
				<clipPath id="SVGID_10_">
					<use xlink:href="#SVGID_9_"  overflow="visible"/>
				</clipPath>
				<g clip-path="url(#SVGID_10_)">
					<path id="Fill-8" fill="#FFFFFF" d="M603.967,67.193c0-15.504-10.683-27.936-27.495-27.936
						c-16.566,0-27.249,12.432-27.249,27.936c0,15.388,10.683,27.696,27.249,27.696C593.284,94.889,603.967,82.581,603.967,67.193
						 M539.134,67.193c0-20.831,14.529-37.166,37.338-37.166c23.055,0,37.584,16.334,37.584,37.166
						c0,20.597-14.529,37.044-37.584,37.044C553.663,104.237,539.134,87.79,539.134,67.193"/>
				</g>
			</g>
		</g>
		<path id="Fill-11" fill="#FFFFFF" d="M726.299,41.1h-20.051v30.296h21.007c10.568,0,18.014-4.734,18.014-15.028
			C745.269,46.07,737.823,41.1,726.299,41.1 M755.594,56.129c0,11.358-6.364,18.817-16.208,22.134v0.472l18.604,22.61v1.889H747.07
			l-18.85-23.079h-21.973v23.079h-9.845V32.219h30.137C744.546,32.219,755.594,40.622,755.594,56.129"/>
		<g id="Group-15" transform="translate(133.2954 0.6518555)">
			<path id="Clip-14" fill="none" d="M680.531,30.03h52.104v72.557h-52.104V30.03z"/>
			<g>
				<defs>
					<rect id="SVGID_11_" x="680.531" y="30.03" width="52.104" height="72.557"/>
				</defs>
				<clipPath id="SVGID_12_">
					<use xlink:href="#SVGID_11_"  overflow="visible"/>
				</clipPath>
				<g clip-path="url(#SVGID_12_)">
					<path id="Fill-13" fill="#FFFFFF" d="M681.611,100.453l31.218-34.205c5.399-5.921,7.446-8.995,7.446-13.612
						c0-7.458-6.008-13.253-15.612-13.253c-10.805,0-18.125,7.692-18.604,8.283l-5.527-7.812c0,0,9.005-9.825,24.494-9.825
						c17.163,0,25.813,9.468,25.813,21.656c0,6.515-2.399,11.488-8.047,17.644l-22.209,24.378h32.054v8.88h-51.024V100.453z"/>
				</g>
			</g>
		</g>
		<path id="Fill-16" fill="#FFFFFF" d="M903.993,68.91v-2.841L922.357,41.1H890.42v-8.881h47.909v2.134l-19.814,26.866
			c13.328,0.588,21.374,8.756,21.374,21.544c0,12.303-9.603,22.129-27.012,22.129c-15.85,0-25.575-9.588-25.932-9.826
			c1.562-2.248,3.475-5.323,4.923-7.571c0,0,8.885,8.167,20.766,8.167c10.689,0,17.051-5.567,17.051-13.139
			c0-8.287-5.884-13.612-15.609-13.612H903.993z"/>
	</g>
</g>
<g id="FURTHER_x2C_FASTER.">
	<path fill="#FFFFFF" d="M820.203,154.634c0.558-0.938,0.837-1.968,0.837-3.082c0-1.405-0.309-2.54-0.931-3.408
		c-0.618-0.867-1.365-1.519-2.245-1.951c-0.879-0.434-2.018-0.898-3.425-1.396c-1.013-0.33-1.811-0.629-2.4-0.897
		c-0.588-0.269-1.072-0.614-1.457-1.037c-0.38-0.424-0.572-0.958-0.572-1.597c0-0.806,0.247-1.419,0.745-1.843
		c0.495-0.424,1.147-0.636,1.95-0.636c0.93,0,1.664,0.254,2.201,0.76c0.539,0.507,0.868,1.151,0.989,1.937h4.709
		c-0.184-1.861-0.963-3.346-2.338-4.462c-1.373-1.116-3.218-1.673-5.528-1.673c-2.233,0-4.023,0.541-5.378,1.627
		c-1.35,1.083-2.027,2.565-2.027,4.444c0,1.363,0.304,2.469,0.914,3.316c0.608,0.847,1.348,1.491,2.214,1.936
		c0.866,0.445,1.983,0.895,3.348,1.348c1.051,0.35,1.879,0.663,2.479,0.93c0.596,0.266,1.094,0.624,1.487,1.07
		c0.391,0.443,0.589,1.006,0.589,1.688c0,0.765-0.245,1.387-0.731,1.874c-0.483,0.487-1.18,0.729-2.091,0.729
		c-1.012,0-1.82-0.297-2.432-0.886c-0.61-0.588-0.965-1.326-1.066-2.216h-4.648c0.104,1.324,0.522,2.479,1.255,3.474
		c0.73,0.988,1.71,1.75,2.926,2.274c1.221,0.528,2.604,0.791,4.153,0.791c1.569,0,2.901-0.286,3.997-0.854
		C818.818,156.329,819.647,155.575,820.203,154.634z M355.858,135.657v3.47h-9.202v5.856h7.375v3.348h-7.375v9.199h-4.368v-21.873
		H355.858z M391.745,135.657v12.826c0,1.717,0.377,3,1.131,3.857c0.753,0.858,1.843,1.286,3.269,1.286
		c1.404,0,2.484-0.428,3.237-1.286c0.754-0.857,1.13-2.141,1.13-3.857v-12.826h4.338v12.826c0,2.024-0.377,3.737-1.131,5.129
		c-0.753,1.394-1.797,2.431-3.129,3.111c-1.331,0.685-2.845,1.024-4.539,1.024c-2.623,0-4.72-0.785-6.289-2.354
		c-1.57-1.571-2.354-3.872-2.354-6.911v-12.826H391.745z M443.708,149.012l5.112,8.519h4.834l-5.453-8.737
		c1.734-0.368,3.061-1.115,3.98-2.229c0.919-1.115,1.378-2.5,1.378-4.151c0-2.023-0.665-3.656-1.999-4.895
		c-1.332-1.24-3.269-1.86-5.809-1.86h-8.334v21.873h4.369v-8.519H443.708z M500.104,135.657v3.47h-6.042v18.403h-4.368v-18.403
		h-6.01v-3.47H500.104z M549.374,157.53v-21.873h-4.4v8.861h-9.355v-8.861h-4.369v21.873h4.369v-9.511h9.355v9.511H549.374z
		 M586.437,139.127v5.67h7.746v3.347h-7.746v5.886h8.674v3.501h-13.043v-21.873h13.043v3.47H586.437z M633.35,149.012l5.112,8.519
		h4.835l-5.454-8.737c1.734-0.368,3.062-1.115,3.98-2.229c0.92-1.115,1.379-2.5,1.379-4.151c0-2.023-0.667-3.656-2-4.895
		c-1.33-1.24-3.268-1.86-5.807-1.86h-8.334v21.873h4.368v-8.519H633.35z M723.803,139.127v-3.47h-13.57v21.873h4.368v-9.199h7.376
		v-3.348h-7.376v-5.856H723.803z M867.864,135.657v3.47h-6.044v18.403h-4.37v-18.403h-6.007v-3.47H867.864z M903.375,144.797v-5.67
		h8.676v-3.47h-13.044v21.873h13.044v-3.501h-8.676v-5.886h7.746v-3.347H903.375z M955.401,157.53l-5.11-8.519h-1.921v8.519H944
		v-21.873h8.334c2.542,0,4.477,0.62,5.807,1.86c1.337,1.238,2.002,2.871,2.002,4.895c0,1.651-0.462,3.036-1.381,4.151
		c-0.917,1.114-2.244,1.861-3.979,2.229l5.454,8.737H955.401z M768.796,153.134h-8.768l-1.546,4.396h-4.618l8.056-21.625h4.986
		l8.022,21.625h-4.614L768.796,153.134z M445.382,146.008h-3.594v-6.663h3.594c1.28,0,2.225,0.294,2.833,0.883
		c0.61,0.589,0.916,1.409,0.916,2.464C449.131,144.901,447.881,146.008,445.382,146.008z M635.023,146.008h-3.594v-6.663h3.594
		c1.281,0,2.226,0.294,2.834,0.883c0.611,0.589,0.916,1.409,0.916,2.464C638.773,144.901,637.523,146.008,635.023,146.008z
		 M948.37,146.008h3.594c2.497,0,3.749-1.106,3.749-3.316c0-1.055-0.307-1.875-0.917-2.464c-0.608-0.589-1.552-0.883-2.832-0.883
		h-3.594V146.008z M767.619,149.816l-3.221-9.232l-3.221,9.232H767.619z M995.438,157.53v-4.552h-4.708v4.552H995.438z
		 M677.633,154.713c0.495,1.116,0.742,2.241,0.742,3.377c0,1.282-0.335,2.332-1.007,3.16c-0.67,0.825-1.709,1.24-3.112,1.24v-1.675
		c0.537,0,0.93-0.129,1.177-0.389c0.247-0.258,0.372-0.715,0.372-1.376v-0.313h-1.983v-4.025H677.633z"/>
</g>
</svg>
