<?xml version="1.0" encoding="utf-8"?>
<!-- Generator: Adobe Illustrator 15.0.0, SVG Export Plug-In . SVG Version: 6.00 Build 0)  -->
<!DOCTYPE svg PUBLIC "-//W3C//DTD SVG 1.1//EN" "http://www.w3.org/Graphics/SVG/1.1/DTD/svg11.dtd">
<svg version="1.1" id="Layer_2" xmlns="http://www.w3.org/2000/svg" xmlns:xlink="http://www.w3.org/1999/xlink" x="0px" y="0px"
	 width="200px" height="200px" viewBox="0 0 200 200" enable-background="new 0 0 200 200" xml:space="preserve">
<g>
	<path d="M0,0v200h200V0H0z M55.604,168.511c-2.669,11.06-12.358,19.531-23.566,20.603c-0.806,0.076-1.612,0.115-2.416,0.115
		c-10.098,0-19.844-5.973-24.276-15.123c-1.803-3.722-2.686-7.752-2.7-11.767v-0.188c0.022-6.592,2.393-13.125,6.908-18.146
		c5.143-5.715,12.623-8.758,20.117-8.758c4.543,0,9.095,1.121,13.131,3.442C52.975,144.539,58.358,157.083,55.604,168.511z
		 M113.962,185.627c-4.139,2.42-8.667,3.576-13.167,3.576c-9.107,0-18.089-4.729-23.461-13.266
		c-6.249-9.931-2.969-21.361-2.466-22.949l0.029-0.127c1.768-7.588,1.591-13.293-0.523-16.959
		c-2.116-3.668-6.954-6.647-14.377-8.862l-0.123-0.035c-1.616-0.347-13.104-3.14-18.578-13.524
		c-7.027-13.335-2.728-29.516,9.786-36.832c4.139-2.42,8.669-3.575,13.167-3.575c9.106,0,18.089,4.728,23.46,13.262
		c6.251,9.93,2.97,21.359,2.469,22.948l-0.031,0.129c-1.766,7.591-1.59,13.296,0.524,16.96c2.116,3.666,6.951,6.646,14.373,8.859
		l0.126,0.039c1.619,0.344,13.105,3.14,18.579,13.522C130.775,162.128,126.475,178.307,113.962,185.627z M184.866,185.627
		c-4.138,2.42-8.669,3.576-13.168,3.576c-9.107,0-18.089-4.729-23.462-13.266c-6.25-9.931-2.971-21.361-2.469-22.949l0.029-0.124
		c1.77-7.589,1.592-13.296-0.521-16.962c-2.115-3.668-6.952-6.647-14.377-8.862l-0.123-0.035
		c-1.601-0.343-12.912-3.095-18.437-13.271c-6.043-9.875-2.815-21.129-2.319-22.701l0.029-0.129
		c1.766-7.588,1.59-13.293-0.523-16.959c-2.113-3.662-6.949-6.643-14.371-8.859l-0.128-0.039c-1.618-0.345-13.106-3.14-18.575-13.52
		c-7.027-13.338-2.729-29.516,9.785-36.835c4.138-2.42,8.667-3.572,13.166-3.572c9.109,0,18.091,4.728,23.462,13.261
		c6.25,9.932,2.97,21.364,2.467,22.949l-0.029,0.129c-1.768,7.586-1.59,13.292,0.524,16.958s6.952,6.649,14.376,8.86l0.122,0.035
		c1.599,0.344,12.911,3.098,18.438,13.273c6.043,9.873,2.813,21.127,2.315,22.699l-0.028,0.129
		c-1.768,7.591-1.592,13.294,0.522,16.96c2.116,3.662,6.952,6.646,14.372,8.859l0.128,0.039c1.616,0.344,13.103,3.136,18.577,13.522
		c2.279,4.323,3.365,8.947,3.369,13.47C198.025,171.691,193.32,180.682,184.866,185.627z"/>
	
		<linearGradient id="SVGID_1_" gradientUnits="userSpaceOnUse" x1="218.6855" y1="-105.5947" x2="412.1092" y2="-299.0184" gradientTransform="matrix(1 0 0 -1 -197.6602 -119.96)">
		<stop  offset="0" style="stop-color:#8CCA86"/>
		<stop  offset="1" style="stop-color:#5BCAE8"/>
	</linearGradient>
	<path fill="url(#SVGID_1_)" d="M176.073,135.271l-0.128-0.039c-7.42-2.213-12.256-5.197-14.372-8.859
		c-2.114-3.666-2.29-9.369-0.522-16.96l0.028-0.129c0.498-1.572,3.728-12.826-2.315-22.699
		c-5.527-10.175-16.84-12.929-18.438-13.273l-0.122-0.035c-7.424-2.211-12.262-5.194-14.376-8.86s-2.292-9.372-0.524-16.958
		l0.029-0.129c0.503-1.585,3.783-13.017-2.467-22.949c-5.371-8.533-14.354-13.261-23.463-13.261c-4.498,0-9.027,1.152-13.166,3.572
		c-12.513,7.319-16.812,23.497-9.784,36.835c5.469,10.38,16.957,13.175,18.575,13.52l0.127,0.039
		c7.422,2.216,12.258,5.197,14.371,8.859c2.113,3.666,2.289,9.371,0.523,16.959l-0.029,0.129
		c-0.496,1.572-3.724,12.826,2.319,22.701c5.524,10.176,16.836,12.928,18.437,13.271l0.123,0.035
		c7.425,2.215,12.262,5.194,14.377,8.862c2.113,3.666,2.291,9.373,0.521,16.962l-0.029,0.124
		c-0.502,1.588-3.781,13.019,2.469,22.949c5.373,8.537,14.354,13.266,23.462,13.266c4.499,0,9.03-1.156,13.168-3.576
		c8.454-4.945,13.159-13.936,13.153-23.363c-0.004-4.522-1.09-9.146-3.369-13.47C189.176,138.407,177.689,135.615,176.073,135.271z
		 M191.116,167.689c-1.355,5.311-4.69,9.75-9.39,12.5c-3.113,1.819-6.57,2.75-10.08,2.75c-1.787,0-3.586-0.244-5.359-0.728
		c-5.235-1.442-9.773-4.869-12.777-9.642c-4.963-7.883-1.809-17.633-1.779-17.719l0.146-0.558
		c2.146-9.198,1.737-16.452-1.204-21.553s-9.002-9.046-18.001-11.731l-0.549-0.146c-0.099-0.021-9.921-2-14.339-10.212l-0.096-0.162
		c-4.853-7.861-1.732-17.51-1.703-17.598l0.145-0.558c2.143-9.201,1.734-16.453-1.204-21.55c-2.94-5.099-8.998-9.041-17.998-11.73
		l-0.546-0.146c-0.1-0.021-10.072-2.093-14.417-10.336c-2.63-4.988-3.335-10.653-1.985-15.944c1.356-5.313,4.693-9.754,9.392-12.501
		c3.113-1.82,6.568-2.75,10.076-2.75c1.787,0,3.588,0.244,5.361,0.729c5.236,1.438,9.772,4.863,12.779,9.64
		c4.962,7.882,1.807,17.63,1.775,17.718l-0.143,0.555c-2.144,9.202-1.738,16.453,1.203,21.551c2.943,5.103,9.001,9.05,18.004,11.731
		l0.547,0.147c0.099,0.021,9.924,1.999,14.34,10.211l0.095,0.161c4.854,7.862,1.733,17.514,1.706,17.597l-0.146,0.56
		c-2.143,9.2-1.738,16.451,1.202,21.553c2.94,5.096,8.997,9.039,17.997,11.728l0.545,0.147c0.102,0.02,10.076,2.091,14.42,10.334
		C191.764,156.732,192.473,162.396,191.116,167.689z"/>
	
		<linearGradient id="SVGID_2_" gradientUnits="userSpaceOnUse" x1="176.6816" y1="-147.5962" x2="370.1062" y2="-341.0208" gradientTransform="matrix(1 0 0 -1 -197.6602 -119.96)">
		<stop  offset="0" style="stop-color:#8CCA86"/>
		<stop  offset="1" style="stop-color:#5BCAE8"/>
	</linearGradient>
	<path fill="url(#SVGID_2_)" d="M105.17,135.271l-0.126-0.039c-7.422-2.213-12.257-5.193-14.373-8.859
		c-2.114-3.664-2.29-9.369-0.524-16.96l0.031-0.129c0.502-1.589,3.782-13.018-2.469-22.948c-5.371-8.534-14.354-13.262-23.46-13.262
		c-4.498,0-9.028,1.155-13.167,3.575c-12.514,7.316-16.813,23.496-9.786,36.832c5.474,10.385,16.962,13.178,18.578,13.524
		l0.123,0.035c7.423,2.215,12.261,5.194,14.377,8.862c2.114,3.666,2.291,9.371,0.523,16.959l-0.029,0.127
		c-0.503,1.588-3.783,13.019,2.466,22.949c5.372,8.537,14.354,13.266,23.461,13.266c4.5,0,9.028-1.156,13.167-3.576
		c12.513-7.32,16.813-23.499,9.787-36.833C118.275,138.411,106.789,135.615,105.17,135.271z M110.827,180.193
		c-3.147,1.841-6.593,2.717-10.026,2.717c-7.037,0-14.008-3.69-18.191-10.335c-4.96-7.884-1.807-17.634-1.776-17.72l0.146-0.56
		c2.143-9.198,1.736-16.45-1.205-21.551c-2.944-5.101-9-9.048-18.003-11.731l-0.548-0.146c-0.101-0.021-10.027-2.019-14.409-10.333
		c-5.45-10.339-2.196-22.839,7.404-28.452c3.147-1.841,6.595-2.719,10.026-2.719c7.039,0,14.009,3.692,18.191,10.335
		c4.963,7.886,1.808,17.634,1.778,17.721l-0.146,0.561c-2.143,9.199-1.737,16.451,1.205,21.552
		c2.94,5.096,8.996,9.043,17.998,11.728l0.553,0.148c0.102,0.019,10.025,2.017,14.408,10.333
		C123.684,162.081,120.428,174.581,110.827,180.193z"/>
	
		<linearGradient id="SVGID_3_" gradientUnits="userSpaceOnUse" x1="134.6377" y1="-189.6421" x2="328.0618" y2="-383.0662" gradientTransform="matrix(1 0 0 -1 -197.6602 -119.96)">
		<stop  offset="0" style="stop-color:#8CCA86"/>
		<stop  offset="1" style="stop-color:#5BCAE8"/>
	</linearGradient>
	<path fill="url(#SVGID_3_)" d="M42.802,138.689c-4.036-2.321-8.588-3.442-13.131-3.442c-7.494,0-14.974,3.043-20.117,8.758
		c-4.515,5.021-6.886,11.554-6.908,18.146v0.188c0.014,4.015,0.897,8.045,2.7,11.767c4.432,9.15,14.178,15.123,24.276,15.123
		c0.804,0,1.61-0.039,2.416-0.115c11.208-1.071,20.897-9.543,23.566-20.603C58.358,157.083,52.975,144.539,42.802,138.689z
		 M49.536,167.029c-2.05,8.496-9.487,15.005-18.088,15.824c-0.621,0.06-1.241,0.092-1.861,0.092
		c-7.755-0.002-15.23-4.579-18.63-11.598c-3.623-7.479-2.297-16.983,3.224-23.121c3.949-4.388,9.688-6.72,15.442-6.72
		c3.49,0,6.983,0.856,10.083,2.64C47.513,148.641,51.648,158.264,49.536,167.029z"/>
</g>
</svg>
